<?xml version="1.0" encoding="utf-8"?>
<!-- Generator: Adobe Illustrator 21.0.2, SVG Export Plug-In . SVG Version: 6.00 Build 0)  -->
<svg version="1.1" id="Слой_1" xmlns="http://www.w3.org/2000/svg" xmlns:xlink="http://www.w3.org/1999/xlink" x="0px" y="0px"
	 viewBox="0 0 101.8 119" enable-background="new 0 0 101.8 119" xml:space="preserve">
<path fill="#0F437B" d="M88.2,110.4C88.2,110.4,88.1,110.4,88.2,110.4c-0.9,0-1.5-0.7-1.5-1.5c0.7-37.8-8.7-66.2-27.9-84.4
	C34.3,1.1,1.9,3,1.6,3C0.8,3.1,0.1,2.5,0,1.6C-0.1,0.8,0.6,0.1,1.4,0c0.3,0,34-2,59.5,22.2c19.8,18.8,29.5,48,28.8,86.6
	C89.7,109.7,89,110.4,88.2,110.4z"/>
<path fill="#0F437B" d="M88.2,119c-0.5,0-0.9-0.2-1.2-0.6l-13.7-18c-0.5-0.7-0.4-1.6,0.3-2.1c0.7-0.5,1.6-0.4,2.1,0.3L88.1,115
	L99,98.7c0.5-0.7,1.4-0.9,2.1-0.4c0.7,0.5,0.9,1.4,0.4,2.1l-12.1,18C89.2,118.8,88.7,119,88.2,119C88.2,119,88.2,119,88.2,119z"/>
</svg>
