<?xml version="1.0" encoding="utf-8"?>
<!-- Generator: Adobe Illustrator 21.0.2, SVG Export Plug-In . SVG Version: 6.00 Build 0)  -->
<svg version="1.1" id="Слой_1" xmlns="http://www.w3.org/2000/svg" xmlns:xlink="http://www.w3.org/1999/xlink" x="0px" y="0px"
	 viewBox="0 0 101 90" enable-background="new 0 0 101 90" xml:space="preserve">
<g>
	<path fill="#D86D46" d="M71.1,80.4c-0.9-0.2-1.8,0.3-2,1.2L67.4,88c-0.2,0.9,0.3,1.7,1.2,2c0.1,0,0.3,0,0.4,0
		c0.8,0,1.4-0.5,1.6-1.2l1.7-6.4C72.6,81.5,72,80.7,71.1,80.4L71.1,80.4z M71.1,80.4"/>
	<path fill="#D86D46" d="M50.5,48.2c0.2,0,0.4,0,0.6-0.1l18.5-7.3c0.9-0.3,1.3-1.3,0.9-2.1c-0.4-0.8-1.3-1.2-2.2-0.9l-17.9,7.1
		L3.4,26.3v-0.5c0-0.9-0.8-1.6-1.7-1.6c-0.9,0-1.7,0.7-1.7,1.6v1.6c0,0.7,0.4,1.2,1,1.5l48.8,19.3C50.1,48.2,50.3,48.2,50.5,48.2
		L50.5,48.2z M50.5,48.2"/>
	<path fill="#D86D46" d="M70.5,64.7c-0.4-0.8-1.4-1.1-2.3-0.7c-3.2,1.5-8.5,3.3-16.1,3.5V53.1c0-0.9-0.8-1.6-1.7-1.6
		c-0.9,0-1.7,0.7-1.7,1.6v14.4c-20.9-0.6-27.6-12.7-28.6-14.7V41.8c0-0.9-0.8-1.6-1.7-1.6c-0.9,0-1.7,0.7-1.7,1.6v11.3
		c0,0.2,0,0.4,0.1,0.6c0.3,0.7,7.5,17.1,33.5,17.1c9.1,0,15.5-2.1,19.3-3.9C70.6,66.5,70.9,65.5,70.5,64.7L70.5,64.7z M70.5,64.7"/>
	<path fill="#D86D46" d="M75.8,82c-0.9,0-1.7,0.7-1.7,1.6v4.8c0,0.9,0.8,1.6,1.7,1.6c0.9,0,1.7-0.7,1.7-1.6v-4.8
		C77.4,82.7,76.7,82,75.8,82L75.8,82z M75.8,82"/>
	<path fill="#D86D46" d="M99.3,24.1c-0.9,0-1.7,0.7-1.7,1.6v0.5l-20.2,7.9v-2.9l22.5-8.9c0.6-0.2,1-0.8,1-1.5c0-0.7-0.4-1.2-1-1.5
		L51.1,0.1c-0.4-0.2-0.9-0.2-1.3,0L1,19.4c-0.6,0.2-1,0.8-1,1.5c0,0.7,0.4,1.2,1,1.5l48.8,19.3c0.2,0.1,0.4,0.1,0.6,0.1
		c0.2,0,0.4,0,0.6-0.1l17.7-7c0.9-0.3,1.3-1.3,0.9-2.1c-0.4-0.8-1.3-1.2-2.2-0.9l-17,6.7L6.1,20.9L50.5,3.3l44.4,17.6l-19.3,7.6
		l-18.5-6.6c0.1-0.3,0.2-0.7,0.2-1c0-2.7-3-4.8-6.7-4.8c-3.8,0-6.7,2.1-6.7,4.8c0,2.7,3,4.8,6.7,4.8c1.7,0,3.2-0.4,4.4-1.1l19.2,6.9
		V71c-2,0.7-3.4,2.4-3.4,4.5c0,2.7,2.3,4.8,5.1,4.8c2.8,0,5-2.2,5-4.8c0-2.1-1.4-3.9-3.4-4.5v-9.1c4.8-3.5,6.6-8.1,6.6-8.3
		c0.1-0.2,0.1-0.3,0.1-0.5V41.8c0-0.9-0.8-1.6-1.7-1.6c-0.9,0-1.7,0.7-1.7,1.6v11c-0.3,0.7-1.3,2.8-3.4,4.9V37.7l22.5-8.9
		c0.6-0.2,1-0.8,1-1.5v-1.6C101,24.8,100.2,24.1,99.3,24.1L99.3,24.1z M50.5,22.5c-2.1,0-3.4-1-3.4-1.6c0-0.7,1.3-1.6,3.4-1.6
		c2.1,0,3.4,1,3.4,1.6C53.9,21.6,52.6,22.5,50.5,22.5L50.5,22.5z M75.8,77.2c-0.9,0-1.7-0.7-1.7-1.6c0-0.9,0.8-1.6,1.7-1.6
		c0.9,0,1.7,0.7,1.7,1.6C77.4,76.5,76.7,77.2,75.8,77.2L75.8,77.2z M75.8,77.2"/>
	<path fill="#D86D46" d="M82.4,81.6c-0.2-0.9-1.1-1.4-2-1.2c-0.9,0.2-1.5,1.1-1.2,2l1.7,6.4c0.2,0.7,0.9,1.2,1.6,1.2
		c0.1,0,0.3,0,0.4,0c0.9-0.2,1.5-1.1,1.2-2L82.4,81.6z M82.4,81.6"/>
</g>
</svg>
