<?xml version="1.0" encoding="utf-8"?>
<!-- Generator: Adobe Illustrator 21.0.2, SVG Export Plug-In . SVG Version: 6.00 Build 0)  -->
<svg version="1.1" id="Слой_1" xmlns="http://www.w3.org/2000/svg" xmlns:xlink="http://www.w3.org/1999/xlink" x="0px" y="0px"
	 viewBox="0 0 99.7 109.6" enable-background="new 0 0 99.7 109.6" xml:space="preserve">
<path fill="#D86D46" d="M80.6,61.1c0.3-2.4,1.6-4.6,3.7-6c2-1.4,3.3-3.1,3.8-5.1c0.5-2,0.1-4.2-1.1-6.3c-1.2-2.1-1.4-4.7-0.6-7
	c0.8-2.3,0.8-4.4,0.1-6.3c-0.8-2-2.4-3.5-4.8-4.5c-2.2-1-3.9-2.9-4.7-5.2c-0.7-2.1-1.9-3.7-3.5-4.7c-1.7-1.1-3.8-1.4-6.1-0.9
	c-2.4,0.4-4.8-0.1-6.7-1.6c-1.9-1.5-4-2.2-6-2c-2,0.2-3.9,1.1-5.5,2.9c-1.7,1.8-4,2.7-6.4,2.7c-2.5-0.1-4.5,0.6-6,1.9
	C35,20,34,21.9,33.7,24.3c-0.3,2.4-1.6,4.6-3.6,5.9c-2,1.4-3.3,3.1-3.8,5.1c-0.5,2-0.1,4,1,6.1c1.2,2.1,1.4,4.6,0.5,6.9
	c-0.8,2.3-0.9,4.4-0.1,6.3c0.4,1,1,1.9,1.8,2.6L13.6,83.6c-0.4,0.6-0.4,1.3,0,1.9c0.4,0.6,1.1,0.9,1.8,0.8L31.9,84l5.5,15.8
	c0.1,0.4,0.4,0.7,0.8,0.9c0.2,0.1,0.5,0.2,0.7,0.3c0.7,0.1,1.4-0.3,1.7-0.9l15.9-26c1,0.3,2,0.4,3,0.4c2.1-0.2,4-1.2,5.7-3
	c1.7-1.8,4-2.8,6.5-2.7c2.4,0.1,4.5-0.6,6-1.9C79.3,65.5,80.3,63.5,80.6,61.1L80.6,61.1z M39.6,95l-4.7-13.6
	c-0.1-0.4-0.4-0.7-0.8-0.9c-0.3-0.2-0.8-0.3-1.2-0.2l-14.2,2l14-23c1.9,1.2,3.3,3,3.8,5.2c0.7,2.6,1.9,4.4,3.8,5.5
	c1.8,1.1,3.9,1.4,6.4,0.9c2.3-0.5,4.8,0.1,6.7,1.5L39.6,95z M75.4,64.1c-0.8,0.7-2,1.1-3.6,1c-3.5-0.1-6.9,1.3-9.3,3.9
	c-1.1,1.1-2.2,1.8-3.3,1.9c-0.8,0.1-1.7-0.1-2.5-0.6c-0.3-0.2-0.6-0.4-1-0.6c-2.8-2.2-6.4-3-9.8-2.3c-1.5,0.3-2.8,0.2-3.8-0.4
	c-1-0.6-1.7-1.8-2.2-3.4c-0.8-3.1-2.8-5.7-5.5-7.4c-0.3-0.2-0.6-0.3-0.9-0.5c-0.2-0.1-0.4-0.2-0.6-0.4c-0.9-0.6-1.5-1.3-1.8-2
	c-0.4-1-0.4-2.3,0.1-3.7c1.2-3.2,0.9-6.8-0.8-9.8c-0.7-1.3-0.9-2.5-0.7-3.6c0.3-1.1,1-2.1,2.3-2.9c2.8-1.9,4.7-5,5.2-8.4
	c0.2-1.5,0.7-2.6,1.6-3.3c0.9-0.7,2.1-1.1,3.6-1c3.4,0.1,6.7-1.3,9.1-3.8c1-1.1,2.1-1.7,3.2-1.8c1.1-0.1,2.3,0.3,3.5,1.3
	c2.7,2.1,6.2,2.9,9.6,2.3c1.5-0.3,2.7-0.1,3.6,0.5c0.9,0.5,1.5,1.5,2,2.7c1.1,3.3,3.6,6,6.7,7.4c1.5,0.7,2.5,1.5,2.9,2.6
	c0.4,1,0.4,2.3-0.1,3.7c-1.2,3.3-0.9,7,0.8,10c0.8,1.4,1,2.6,0.8,3.7c-0.3,1.1-1,2.1-2.3,2.9c-2.9,2-4.8,5.1-5.2,8.6
	C76.8,62.2,76.3,63.4,75.4,64.1L75.4,64.1z M75.4,64.1"/>
<rect x="4.3" y="24.2" transform="matrix(0.5211 -0.8535 0.8535 0.5211 -22.8938 68.7799)" fill="none" width="91" height="61.2"/>
<path fill="#D86D46" d="M68.3,24.4c-10.2-6.3-23.7-3-29.9,7.2c-6.3,10.2-3,23.7,7.2,29.9c10.2,6.3,23.7,3,29.9-7.2
	C81.8,44.1,78.5,30.7,68.3,24.4L68.3,24.4z M47.5,58.5c-8.5-5.2-11.3-16.4-6-25c5.2-8.5,16.4-11.3,25-6c8.5,5.2,11.3,16.4,6,25
	C67.2,61,56,63.7,47.5,58.5L47.5,58.5z M47.5,58.5"/>
<path fill="#D86D46" d="M58.2,27.9C52.4,27.4,47,30.2,44,35.1c-0.5,0.9-0.3,2,0.6,2.5c0.9,0.5,2,0.3,2.5-0.6
	c2.3-3.7,6.4-5.9,10.8-5.5c1,0.1,1.9-0.7,1.9-1.7C59.9,28.8,59.2,27.9,58.2,27.9L58.2,27.9z M58.2,27.9"/>
<path fill="#D86D46" d="M68.3,32.9c-1-1.1-2.1-2.1-3.4-2.9c-0.9-0.5-2-0.3-2.5,0.6c-0.5,0.9-0.3,2,0.6,2.5c1,0.6,1.9,1.3,2.6,2.2
	c0.1,0.1,0.3,0.3,0.4,0.3c0.7,0.4,1.5,0.3,2.1-0.2C68.9,34.8,68.9,33.6,68.3,32.9L68.3,32.9z M68.3,32.9"/>
<path fill="#D86D46" d="M79.2,59.7c-0.3,0.3-0.5,0.6-0.8,0.9l13.6,21.3l-14.3-1.7c-0.4-0.1-0.8,0.1-1.2,0.3c-0.3,0.2-0.6,0.6-0.7,1
	l-4.5,13.7L57.2,73c-1.3,0.3-2.3,0.8-3.4,1.4l16.5,25.9c0.4,0.6,1.1,0.9,1.8,0.8c0.7-0.1,1.3-0.6,1.5-1.2l5.2-15.9l16.6,2
	c0.4,0.1,0.8,0,1.2-0.3c0.2-0.1,0.4-0.3,0.6-0.6c0.4-0.6,0.4-1.3,0-1.9L81.2,58.3C80.4,58.7,79.7,59.1,79.2,59.7z"/>
</svg>
