<?xml version="1.0" encoding="utf-8"?>
<!-- Generator: Adobe Illustrator 21.0.2, SVG Export Plug-In . SVG Version: 6.00 Build 0)  -->
<svg version="1.1" id="Слой_1" xmlns="http://www.w3.org/2000/svg" xmlns:xlink="http://www.w3.org/1999/xlink" x="0px" y="0px"
	 viewBox="0 0 84 89.8" enable-background="new 0 0 84 89.8" xml:space="preserve">
<path fill="#EA611A" d="M67.2,49.8c0.3-2.4,1.6-4.6,3.7-6c2-1.4,3.3-3.1,3.8-5.1c0.5-2,0.1-4.2-1.1-6.3c-1.2-2.1-1.4-4.7-0.6-7
	c0.8-2.3,0.8-4.4,0.1-6.3c-0.8-2-2.4-3.5-4.8-4.5c-2.2-1-3.9-2.9-4.7-5.2c-0.7-2.1-1.9-3.7-3.5-4.7c-1.7-1.1-3.8-1.4-6.1-0.9
	C51.5,4.1,49,3.5,47.1,2c-1.9-1.5-4-2.2-6-2c-2,0.2-3.9,1.1-5.5,2.9c-1.7,1.8-4,2.7-6.4,2.7c-2.5-0.1-4.5,0.6-6,1.9
	c-1.5,1.3-2.5,3.2-2.8,5.6c-0.3,2.4-1.6,4.6-3.6,5.9c-2,1.4-3.3,3.1-3.8,5.1c-0.5,2-0.1,4,1,6.1c1.2,2.1,1.4,4.6,0.5,6.9
	c-0.8,2.3-0.9,4.4-0.1,6.3c0.4,1,1,1.9,1.8,2.6L0.3,72.3c-0.4,0.6-0.4,1.3,0,1.9s1.1,0.9,1.8,0.8l16.5-2.3l5.5,15.8
	c0.1,0.4,0.4,0.7,0.8,0.9c0.2,0.1,0.5,0.2,0.7,0.3c0.7,0.1,1.4-0.3,1.7-0.9l15.9-26c1,0.3,2,0.4,3,0.4c2.1-0.2,4-1.2,5.7-3
	c1.7-1.8,4-2.8,6.5-2.7c2.4,0.1,4.5-0.6,6-1.9C66,54.2,67,52.3,67.2,49.8L67.2,49.8z M26.3,83.7l-4.7-13.6c-0.1-0.4-0.4-0.7-0.8-0.9
	c-0.3-0.2-0.8-0.3-1.2-0.2l-14.2,2l14-23c1.9,1.2,3.3,3,3.8,5.2c0.7,2.6,1.9,4.4,3.8,5.5c1.8,1.1,3.9,1.4,6.4,0.9
	c2.3-0.5,4.8,0.1,6.7,1.5L26.3,83.7z M62.1,52.8c-0.8,0.7-2,1.1-3.6,1c-3.5-0.1-6.9,1.3-9.3,3.9c-1.1,1.1-2.2,1.8-3.3,1.9
	c-0.8,0.1-1.7-0.1-2.5-0.6c-0.3-0.2-0.6-0.4-1-0.6c-2.8-2.2-6.4-3-9.8-2.3c-1.5,0.3-2.8,0.2-3.8-0.4c-1-0.6-1.7-1.8-2.2-3.4
	c-0.8-3.1-2.8-5.7-5.5-7.4c-0.3-0.2-0.6-0.3-0.9-0.5c-0.2-0.1-0.4-0.2-0.6-0.4c-0.9-0.6-1.5-1.3-1.8-2c-0.4-1-0.4-2.3,0.1-3.7
	c1.2-3.2,0.9-6.8-0.8-9.8c-0.7-1.3-0.9-2.5-0.7-3.6c0.3-1.1,1-2.1,2.3-2.9c2.8-1.9,4.7-5,5.2-8.4c0.2-1.5,0.7-2.6,1.6-3.3
	c0.9-0.7,2.1-1.1,3.6-1c3.4,0.1,6.7-1.3,9.1-3.8c1-1.1,2.1-1.7,3.2-1.8c1.1-0.1,2.3,0.3,3.5,1.3c2.7,2.1,6.2,2.9,9.6,2.3
	c1.5-0.3,2.7-0.1,3.6,0.5c0.9,0.5,1.5,1.5,2,2.7c1.1,3.3,3.6,6,6.7,7.4c1.5,0.7,2.5,1.5,2.9,2.6c0.4,1,0.4,2.3-0.1,3.7
	c-1.2,3.3-0.9,7,0.8,10c0.8,1.4,1,2.6,0.8,3.7c-0.3,1.1-1,2.1-2.3,2.9c-2.9,2-4.8,5.1-5.2,8.6C63.5,50.9,62.9,52.1,62.1,52.8
	L62.1,52.8z M62.1,52.8"/>
<path fill="#EA611A" d="M55,13.1c-10.2-6.3-23.7-3-29.9,7.2c-6.3,10.2-3,23.7,7.2,29.9c10.2,6.3,23.7,3,29.9-7.2
	C68.5,32.8,65.2,19.4,55,13.1L55,13.1z M34.2,47.2c-8.5-5.2-11.3-16.4-6-25c5.2-8.5,16.4-11.3,25-6c8.5,5.2,11.3,16.4,6,25
	C53.9,49.7,42.7,52.4,34.2,47.2L34.2,47.2z M34.2,47.2"/>
<path fill="#EA611A" d="M44.9,16.6c-5.7-0.5-11.2,2.3-14.2,7.2c-0.5,0.9-0.3,2,0.6,2.5c0.9,0.5,2,0.3,2.5-0.6
	c2.3-3.7,6.4-5.9,10.8-5.5c1,0.1,1.9-0.7,1.9-1.7C46.6,17.5,45.9,16.7,44.9,16.6L44.9,16.6z M44.9,16.6"/>
<path fill="#EA611A" d="M55,21.6c-1-1.1-2.1-2.1-3.4-2.9c-0.9-0.5-2-0.3-2.5,0.6c-0.5,0.9-0.3,2,0.6,2.5c1,0.6,1.9,1.3,2.6,2.2
	c0.1,0.1,0.3,0.3,0.4,0.3c0.7,0.4,1.5,0.3,2.1-0.2C55.6,23.5,55.6,22.4,55,21.6L55,21.6z M55,21.6"/>
<path fill="#EA611A" d="M65.8,48.4c-0.3,0.3-0.5,0.6-0.8,0.9l13.6,21.3l-14.3-1.7c-0.4-0.1-0.8,0.1-1.2,0.3c-0.3,0.2-0.6,0.6-0.7,1
	L58,83.8L43.9,61.7c-1.3,0.3-2.3,0.8-3.4,1.4L57,89c0.4,0.6,1.1,0.9,1.8,0.8c0.7-0.1,1.3-0.6,1.5-1.2l5.2-15.9l16.6,2
	c0.4,0.1,0.8,0,1.2-0.3c0.2-0.1,0.4-0.3,0.6-0.6c0.4-0.6,0.4-1.3,0-1.9L67.9,47.1C67.1,47.4,66.4,47.9,65.8,48.4z"/>
</svg>
