<?xml version="1.0" encoding="utf-8"?>
<!-- Generator: Adobe Illustrator 21.0.2, SVG Export Plug-In . SVG Version: 6.00 Build 0)  -->
<svg version="1.1" id="Слой_1" xmlns="http://www.w3.org/2000/svg" xmlns:xlink="http://www.w3.org/1999/xlink" x="0px" y="0px"
	 viewBox="0 0 94.6 89.3" enable-background="new 0 0 94.6 89.3" xml:space="preserve">
<g>
	<path fill="#D86D46" d="M7.4,89.3c-1.2,0-2.1-0.9-2.1-2.1V54c0-1.2,0.9-2.1,2.1-2.1c1.2,0,2.1,0.9,2.1,2.1v31.2h11.8V50
		c0-1.2,0.9-2.1,2.1-2.1h21.3c1.2,0,2.1,0.9,2.1,2.1v35.1h38.4V54c0-1.2,0.9-2.1,2.1-2.1c1.2,0,2.1,0.9,2.1,2.1v33.3
		c0,1.2-0.9,2.1-2.1,2.1H7.4z M25.5,85.1h17.1V70.7h-3.2c-1.2,0-2.1-0.9-2.1-2.1c0-1.2,0.9-2.1,2.1-2.1h3.2V52.1H25.5V85.1z"/>
	<path fill="#D86D46" d="M92.5,49.4c-0.6,0-1.1-0.2-1.5-0.6L47.3,5L3.6,48.8c-0.4,0.4-0.9,0.6-1.5,0.6c-0.3,0-0.5-0.1-0.8-0.2
		C0.5,48.9,0,48.2,0,47.3V7.4c0-1.2,0.9-2.1,2.1-2.1H16V2.1C16,0.9,16.9,0,18.1,0h10.6c1.2,0,2.1,0.9,2.1,2.1v5.3
		c0,1.2-0.9,2.1-2.1,2.1s-2.1-0.9-2.1-2.1V4.2h-6.5v3.2c0,1.2-0.9,2.1-2.1,2.1H4.2v32.8L45.8,0.6C46.2,0.2,46.7,0,47.3,0
		c0.6,0,1.1,0.2,1.5,0.6l41.6,41.6V9.5H65.9c-1.2,0-2.1-0.9-2.1-2.1c0-1.2,0.9-2.1,2.1-2.1h26.6c1.2,0,2.1,0.9,2.1,2.1v39.9
		c0,0.8-0.5,1.6-1.3,1.9C93.1,49.4,92.8,49.4,92.5,49.4z"/>
	<path fill="#D86D46" d="M55.3,73.3c-1.2,0-2.1-0.9-2.1-2.1V50c0-1.2,0.9-2.1,2.1-2.1h16c1.2,0,2.1,0.9,2.1,2.1v21.3
		c0,1.2-0.9,2.1-2.1,2.1H55.3z M57.4,69.2h11.8V52.1H57.4V69.2z"/>
</g>
</svg>
