<?xml version="1.0" encoding="utf-8"?>
<!-- Generator: Adobe Illustrator 21.0.2, SVG Export Plug-In . SVG Version: 6.00 Build 0)  -->
<svg version="1.1" id="Шар_1" xmlns="http://www.w3.org/2000/svg" xmlns:xlink="http://www.w3.org/1999/xlink" x="0px" y="0px"
	 viewBox="0 0 16.9 31.4" enable-background="new 0 0 16.9 31.4" xml:space="preserve">
<path d="M0.5,31.4C0.3,31.4,0,31.2,0,31c0-0.3,0.1-0.5,0.4-0.6c0.1,0,7.6-1.2,11.6-7.5c2.9-4.6,3.3-10.8,1-18.4
	c-0.1-0.3,0.1-0.5,0.3-0.6c0.3-0.1,0.5,0.1,0.6,0.3c2.3,7.9,1.9,14.4-1.2,19.3C8.6,30.1,0.9,31.3,0.5,31.4
	C0.5,31.4,0.5,31.4,0.5,31.4z"/>
<path d="M11.1,6.5C11.1,6.5,11,6.5,11.1,6.5c-0.4-0.1-0.5-0.3-0.5-0.6l1-5.5c0-0.2,0.2-0.3,0.3-0.4c0.2-0.1,0.4,0,0.5,0.1l4.3,3.8
	c0.2,0.2,0.2,0.5,0,0.7c-0.2,0.2-0.5,0.2-0.7,0l-3.6-3.2l-0.8,4.6C11.5,6.3,11.3,6.5,11.1,6.5z"/>
</svg>
