<?xml version="1.0" encoding="utf-8"?>
<!-- Generator: Adobe Illustrator 21.0.2, SVG Export Plug-In . SVG Version: 6.00 Build 0)  -->
<svg version="1.1" id="Слой_1" xmlns="http://www.w3.org/2000/svg" xmlns:xlink="http://www.w3.org/1999/xlink" x="0px" y="0px"
	 viewBox="0 0 58.8 45.9" enable-background="new 0 0 58.8 45.9" xml:space="preserve">
<path fill="#EA611A" d="M39,35.9c1.6,0,2.9,1.3,2.9,2.9c0,1.6-1.3,2.9-2.9,2.9c-1.6,0-2.9-1.3-2.9-2.9C36.1,37.2,37.4,35.9,39,35.9
	L39,35.9z M39,43.2c2.4,0,4.4-2,4.4-4.4c0-2.4-2-4.4-4.4-4.4c-2.4,0-4.4,2-4.4,4.4C34.6,41.2,36.6,43.2,39,43.2L39,43.2z"/>
<path fill="#EA611A" d="M26.1,40.2C26.1,40.2,26,40.2,26.1,40.2c-0.7,2.5-2.9,4.3-5.5,4.3c-1.5,0-3-0.6-4.1-1.7
	c-1.1-1.1-1.6-2.6-1.6-4.1c0.1-2.8,2.4-5.2,5.2-5.4c0.1,0,0.3,0,0.4,0c0.4,0,0.8,0,1.2,0.1c0.1,0,0.2,0,0.3,0l1-0.2
	c1.5-0.2,2.9-1,4-2.1c0.1-0.1,0.1-0.2,0.2-0.3l0.5-1.5l0.4,0.1l0.5,0.2L26.1,40.2L26.1,40.2z M36,2.4c0.2,0.5,0.2,1,0.1,1.4
	l-3.9,21.3l-1.6-5.3L36,2.4L36,2.4z M39.5,31.7c-0.6,0-1.3,0-1.9,0.1l-0.9-0.1c-1.1-0.2-2.2-0.7-3-1.6l-0.6-1.9l4.4-24.1
	c0.3-1.4-0.3-3-1.4-3.9C36,0,35.7,0,35.5,0c-0.2,0.1-0.4,0.3-0.5,0.5l-5.2,16.8L24.6,0.5c-0.1-0.2-0.3-0.4-0.5-0.5
	c-0.2-0.1-0.5,0-0.7,0.2c-1.1,1-1.6,2.5-1.4,3.9l1.6,8.9c0.1,0.4,0.5,0.7,0.9,0.6c0.4-0.1,0.7-0.5,0.6-0.9l-1.6-8.9
	c-0.1-0.5,0-1,0.1-1.4L29.1,20l0,0l2.6,8.4h0l0.7,2.3c0,0.1,0.1,0.2,0.2,0.3c1.1,1.1,2.5,1.9,4,2.1l1,0.2c0.1,0,0.2,0,0.3,0
	c0.5-0.1,1.1-0.1,1.6-0.1c2.8,0.2,5.1,2.6,5.2,5.4c0.1,1.5-0.5,3-1.6,4.1c-1.1,1.1-2.5,1.7-4.1,1.7c-2.6,0-4.8-1.7-5.5-4.2
	c0,0,0,0,0-0.1l-2.6-10.9c-0.1-0.2-0.2-0.4-0.5-0.5l-0.4-0.2h0l-2-0.7l-0.2-0.1l-2.3-12.6c-0.1-0.4-0.5-0.7-0.9-0.6
	c-0.4,0.1-0.7,0.5-0.6,0.9l2.3,12.7l-0.6,1.9c-0.8,0.8-1.9,1.4-3,1.6l-0.9,0.1c-0.6-0.1-1.2-0.1-1.9-0.1c-3.6,0.3-6.4,3.3-6.6,6.8
	c-0.1,2,0.6,3.8,2,5.2c1.4,1.4,3.2,2.2,5.1,2.2c3.2,0,6-2.1,6.9-5.2c0,0,0-0.1,0-0.1l2.3-9.8l2.3,9.8c0,0,0,0.1,0,0.1
	c0.9,3.1,3.7,5.2,6.9,5.2c1.9,0,3.8-0.8,5.1-2.2c1.4-1.4,2.1-3.2,2-5.2C46,35,43.1,32,39.5,31.7L39.5,31.7z"/>
<path fill="#EA611A" d="M20.6,41.7c-1.6,0-2.9-1.3-2.9-2.9c0-1.6,1.3-2.9,2.9-2.9c1.6,0,2.9,1.3,2.9,2.9
	C23.5,40.4,22.2,41.7,20.6,41.7L20.6,41.7z M20.6,34.4c-2.4,0-4.4,2-4.4,4.4c0,2.4,2,4.4,4.4,4.4c2.4,0,4.4-2,4.4-4.4
	C25,36.4,23,34.4,20.6,34.4L20.6,34.4z"/>
<g>
	<path fill="#EA611A" d="M36.3,22.2c-0.3,0-0.5-0.1-0.6-0.4c-0.2-0.4-0.1-0.8,0.2-1c1.6-1,5.2-2.7,10.8-2.3c2.1,0.1,6.9,0.9,9.6,1.4
		l-3.1-3.9C53,15.9,53,15.7,53,15.5c0-0.2,0.1-0.4,0.3-0.5c1.1-0.8,2.3-1.7,3.1-2.4c-1.7-0.1-4.3-0.6-7.7-1.1L48,11.4
		c-4.5-0.8-9.6,1.5-9.7,1.5c-0.4,0.2-0.8,0-1-0.4c-0.2-0.4,0-0.8,0.4-1C38,11.4,43.3,9,48.3,9.9L49,10c4.3,0.7,7.4,1.3,8.7,1.1
		c0.7-0.1,1,0.4,1,0.5c0.2,0.5,0.4,1-3.9,4.1l3.8,4.8c0.2,0.2,0.2,0.6,0.1,0.9c-0.2,0.3-0.5,0.4-0.8,0.3c-0.1,0-8.5-1.6-11.3-1.7
		c-5.1-0.3-8.4,1.2-9.9,2.1C36.5,22.2,36.4,22.2,36.3,22.2z"/>
</g>
<g>
	<path fill="#EA611A" d="M13.4,26.9c-0.9,0-1.8,0-2.7-0.1c-2.7-0.2-4.8-0.6-6.5-0.9c-1.4-0.2-2.4-0.4-3-0.4c-0.7,0.1-1-0.4-1-0.5
		c-0.2-0.5-0.4-1,3.9-4.1l-3.8-4.8C0,15.8,0,15.5,0.2,15.2C0.4,15,0.7,14.8,1,14.9c0.1,0,8.5,1.6,11.3,1.7c5.1,0.3,7.3-0.5,8.8-1.5
		c0.4-0.2,0.8-0.1,1,0.2c0.2,0.4,0.1,0.8-0.2,1c-1.7,1-4.2,2.1-9.7,1.7c-2.1-0.1-6.9-0.9-9.6-1.4l3.1,3.9c0.1,0.2,0.2,0.4,0.2,0.6
		c0,0.2-0.1,0.4-0.3,0.5c-1.1,0.8-2.4,1.7-3.2,2.4c0.6,0.1,1.3,0.2,2.1,0.3c1.7,0.3,3.8,0.7,6.4,0.9c7.8,0.5,12.8-1.4,12.8-1.4
		c0.4-0.1,0.8,0,1,0.4c0.2,0.4,0,0.8-0.4,1C23.9,25.4,19.9,26.9,13.4,26.9z"/>
</g>
</svg>
