<?xml version="1.0" encoding="utf-8"?>
<!-- Generator: Adobe Illustrator 21.0.2, SVG Export Plug-In . SVG Version: 6.00 Build 0)  -->
<svg version="1.1" id="Слой_1" xmlns="http://www.w3.org/2000/svg" xmlns:xlink="http://www.w3.org/1999/xlink" x="0px" y="0px"
	 viewBox="0 0 55.1 57" enable-background="new 0 0 55.1 57" xml:space="preserve">
<path fill="#EA611A" d="M27.5,45.6c-1,0-1.9,0.9-1.9,1.9c0,1,0.9,1.9,1.9,1.9c1,0,1.9-0.9,1.9-1.9C29.4,46.4,28.6,45.6,27.5,45.6
	L27.5,45.6z M27.5,51.3c-2.1,0-3.8-1.7-3.8-3.8c0-2.1,1.7-3.8,3.8-3.8c2.1,0,3.8,1.7,3.8,3.8C31.3,49.6,29.6,51.3,27.5,51.3
	L27.5,51.3z"/>
<path fill="#EA611A" d="M2.8,22.8v6.6c0,1.6,1.2,2.8,2.8,2.8h9.5c1.7,0,3.3,0.8,4.5,2.1c1.1,1.3,1.6,3,1.3,4.7l-1,6.4
	c-0.5,3.2,0.9,6.5,3.6,8.4c2.4,1.7,5.7,1.7,8.1,0c2.7-1.9,4.1-5.2,3.6-8.4l-1-6.4c-0.3-1.7,0.2-3.4,1.3-4.7c1.1-1.3,2.8-2.1,4.5-2.1
	h9.5c1.6,0,2.8-1.2,2.8-2.8v-6.6H2.8L2.8,22.8L2.8,22.8z M27.5,57c-1.8,0-3.6-0.6-5.1-1.6c-3.3-2.3-5-6.4-4.4-10.3l1-6.4
	c0.2-1.1-0.2-2.3-0.9-3.1c-0.8-0.9-1.9-1.4-3-1.4H5.7c-2.7,0-4.7-2.1-4.7-4.7v-7.6c0-0.6,0.4-0.9,0.9-0.9h51.3
	c0.6,0,0.9,0.4,0.9,0.9v7.6c0,2.7-2.1,4.7-4.7,4.7h-9.5c-1.1,0-2.3,0.5-2.9,1.3c-0.8,0.9-1,2-0.9,3.1l1,6.4c0.7,4-1.1,8-4.4,10.3
	C31.1,56.5,29.3,57,27.5,57L27.5,57z"/>
<path fill="#EA611A" d="M11.4,8.5c-0.6,0-0.9-0.4-0.9-0.9V4.7c0-0.6,0.4-0.9,0.9-0.9c0.6,0,0.9,0.4,0.9,0.9v2.8
	C12.3,8.2,12,8.5,11.4,8.5L11.4,8.5z"/>
<path fill="#EA611A" d="M2.8,12.3h7.6v-1.4c-0.6,0.4-1.3,0.5-2.1,0.5c-2-0.1-3.6-1.8-3.6-4V1.9H3.8c-0.5,0-0.9,0.5-0.9,0.9V12.3
	L2.8,12.3z M11.4,14.2H1.9c-0.6,0-0.9-0.4-0.9-0.9V2.8C0.9,1.2,2.2,0,3.8,0h1.9c0.6,0,0.9,0.4,0.9,0.9v6.5c0,1.1,0.9,2,1.8,2.1
	c0.6,0,1-0.2,1.4-0.5c0.4-0.4,0.6-0.9,0.6-1.4c0-0.6,0.4-0.9,0.9-0.9c0.6,0,0.9,0.4,0.9,0.9v5.7C12.3,13.9,12,14.2,11.4,14.2
	L11.4,14.2z"/>
<path fill="#EA611A" d="M12.3,7.6v7.6c0,1,0.9,1.9,1.9,1.9c1,0,1.9-0.9,1.9-1.9v-10c0-0.6,0.4-1,0.9-1c0.6,0,0.9,0.4,0.9,1
	c0,0.8,0.7,1.4,1.4,1.4c0.8,0,1.4-0.7,1.4-1.4V1.9H6.6v5.7c0,1,0.9,1.9,1.9,1.9c1,0,1.9-0.9,1.9-1.9c0-0.6,0.4-0.9,0.9-0.9
	C12,6.6,12.3,7.1,12.3,7.6L12.3,7.6z M14.2,19c-2.1,0-3.8-1.7-3.8-3.8v-4.3c-0.6,0.3-1.2,0.5-1.9,0.5c-2.1,0-3.8-1.7-3.8-3.8V0.9
	C4.7,0.4,5.1,0,5.7,0h16.1c0.6,0,0.9,0.4,0.9,0.9v4.3c0,1.8-1.5,3.3-3.3,3.3c-0.5,0-0.9-0.1-1.4-0.3v6.9C18,17.3,16.3,19,14.2,19
	L14.2,19z"/>
<path fill="#EA611A" d="M18,12.3h34.2V2.8c0-0.6-0.4-0.9-0.9-0.9H22.8v3.2c0,1.8-1.3,3.2-2.9,3.4c-0.6,0.1-1.2,0-1.8-0.3V12.3
	L18,12.3z M53.2,14.2H17.1c-0.3,0-0.6-0.2-0.8-0.4c-0.1-0.2-0.2-0.4-0.2-0.6V5.2c0-0.6,0.4-1,0.9-1c0.6,0,0.9,0.4,0.9,1
	c0,0.4,0.2,0.8,0.5,1c0.3,0.3,0.7,0.4,1.1,0.4c0.7-0.1,1.2-0.8,1.2-1.5V0.9c0-0.6,0.4-0.9,1-0.9h29.4c1.6,0,2.8,1.2,2.8,2.8v10.4
	C54.1,13.9,53.7,14.2,53.2,14.2L53.2,14.2z"/>
<path fill="#EA611A" d="M17.1,6.6c-0.6,0-0.9-0.4-0.9-0.9V3.8c0-0.6,0.4-0.9,0.9-0.9c0.6,0,0.9,0.4,0.9,0.9v1.9
	C18,6.3,17.7,6.6,17.1,6.6L17.1,6.6z"/>
<path fill="#EA611A" d="M1.9,20.9h51.3v-6.6H18v1c0,2.1-1.7,3.8-3.8,3.8c-2.1,0-3.8-1.7-3.8-3.8v-1H1.9V20.9L1.9,20.9z M54.1,22.8
	H0.9c-0.6,0-0.9-0.4-0.9-0.9v-8.5c0-0.6,0.4-1,0.9-1h10.4c0.6,0,0.9,0.4,0.9,1v1.9c0,1,0.9,1.9,1.9,1.9c1,0,1.9-0.9,1.9-1.9v-1.9
	c0-0.6,0.4-1,0.9-1h37c0.6,0,0.9,0.4,0.9,1v8.5C55.1,22.4,54.7,22.8,54.1,22.8L54.1,22.8z"/>
<path fill="#EA611A" d="M7.6,26.6H1.9c-0.6,0-0.9-0.4-0.9-0.9c0-0.6,0.4-0.9,0.9-0.9h5.7c0.6,0,0.9,0.4,0.9,0.9
	C8.5,26.2,8.2,26.6,7.6,26.6L7.6,26.6z"/>
<path fill="#EA611A" d="M5.7,30.4H1.9c-0.6,0-0.9-0.4-0.9-1c0-0.6,0.4-0.9,0.9-0.9h3.8c0.6,0,0.9,0.4,0.9,0.9
	C6.6,30,6.3,30.4,5.7,30.4L5.7,30.4z"/>
</svg>
