<?xml version="1.0" encoding="utf-8"?>
<!-- Generator: Adobe Illustrator 21.0.2, SVG Export Plug-In . SVG Version: 6.00 Build 0)  -->
<svg version="1.1" id="Слой_1" xmlns="http://www.w3.org/2000/svg" xmlns:xlink="http://www.w3.org/1999/xlink" x="0px" y="0px"
	 viewBox="0 0 55.7 42.7" enable-background="new 0 0 55.7 42.7" xml:space="preserve">
<path fill="#EA611A" d="M1.9,1.9v39h52v-39H1.9L1.9,1.9z M53.8,42.7h-52c-1,0-1.9-0.8-1.9-1.9v-39C0,0.8,0.8,0,1.9,0h52
	c1,0,1.9,0.8,1.9,1.9v39C55.7,41.8,54.8,42.7,53.8,42.7L53.8,42.7z"/>
<path fill="#EA611A" d="M27.8,42.7c-0.5,0-0.9-0.4-0.9-0.9V0.9c0-0.5,0.4-0.9,0.9-0.9c0.5,0,0.9,0.4,0.9,0.9v40.8
	C28.8,42.3,28.3,42.7,27.8,42.7L27.8,42.7z"/>
<path fill="#EA611A" d="M5.6,5.6L5.6,5.6v31.5h17.6V5.6H5.6L5.6,5.6z M23.2,39H5.6c-1,0-1.9-0.8-1.9-1.9V5.6c0-1,0.8-1.9,1.9-1.9
	h17.6c1,0,1.9,0.8,1.9,1.9v31.5C25.1,38.1,24.2,39,23.2,39L23.2,39z"/>
<path fill="#EA611A" d="M32.5,5.6L32.5,5.6v31.5h17.6V5.6H32.5L32.5,5.6z M50.1,39H32.5c-1,0-1.9-0.8-1.9-1.9V5.6
	c0-1,0.8-1.9,1.9-1.9h17.6c1,0,1.9,0.8,1.9,1.9v31.5C52,38.1,51.1,39,50.1,39L50.1,39z"/>
<path fill="#EA611A" d="M35.3,24.1c-0.2,0-0.4-0.1-0.6-0.2L31,21.2c-0.4-0.3-0.5-0.9-0.2-1.3c0.3-0.4,0.9-0.5,1.3-0.2l3.7,2.8
	c0.4,0.3,0.5,0.9,0.2,1.3C35.8,24,35.5,24.1,35.3,24.1L35.3,24.1z"/>
<path fill="#EA611A" d="M8.4,9.3c-0.5,0-0.9-0.4-0.9-0.9c0-0.1,0-0.2,0.1-0.3c0-0.1,0.1-0.2,0.2-0.3c0.4-0.4,0.9-0.4,1.3,0
	c0,0,0,0,0,0C9.1,7.8,9.2,7.9,9.2,8c0.2,0.5,0,1-0.5,1.2C8.6,9.3,8.5,9.3,8.4,9.3L8.4,9.3z"/>
<path fill="#EA611A" d="M17.6,9.3h-5.6c-0.5,0-0.9-0.4-0.9-0.9c0-0.5,0.4-0.9,0.9-0.9h5.6c0.5,0,0.9,0.4,0.9,0.9
	C18.6,8.9,18.1,9.3,17.6,9.3L17.6,9.3z"/>
<path fill="#EA611A" d="M31.5,9.3c-0.5,0-0.9-0.4-0.9-0.9c0-0.1,0-0.2,0.1-0.4c0-0.1,0.1-0.2,0.2-0.3c0.4-0.4,0.9-0.4,1.3,0
	c0,0,0,0,0,0c0.1,0.1,0.1,0.2,0.2,0.3c0.1,0.3,0.1,0.7-0.2,1c-0.1,0.1-0.2,0.2-0.3,0.2C31.8,9.3,31.7,9.3,31.5,9.3L31.5,9.3z"/>
<path fill="#EA611A" d="M40.8,9.3h-5.6c-0.5,0-0.9-0.4-0.9-0.9c0-0.5,0.4-0.9,0.9-0.9h5.6c0.5,0,0.9,0.4,0.9,0.9
	C41.8,8.9,41.3,9.3,40.8,9.3L40.8,9.3z"/>
</svg>
