<?xml version="1.0" encoding="utf-8"?>
<!-- Generator: Adobe Illustrator 21.0.2, SVG Export Plug-In . SVG Version: 6.00 Build 0)  -->
<svg version="1.1" id="Слой_1" xmlns="http://www.w3.org/2000/svg" xmlns:xlink="http://www.w3.org/1999/xlink" x="0px" y="0px"
	 viewBox="0 0 71.7 56.7" enable-background="new 0 0 71.7 56.7" xml:space="preserve">
<g>
	<path fill="#EA611A" d="M47.7,56.7c-0.2,0-0.3,0-0.5-0.1L0.5,30.2c-0.5-0.3-0.7-0.9-0.4-1.4c0.3-0.5,0.9-0.7,1.4-0.4l46,26L70,33.6
		c0.4-0.4,1-0.4,1.4,0.1c0.4,0.4,0.4,1-0.1,1.4l-23,21.3C48.2,56.6,47.9,56.7,47.7,56.7z"/>
</g>
<g>
	<path fill="#EA611A" d="M2.2,27.2c-0.6,0-1-0.4-1-1V21c0-0.6,0.4-1,1-1s1,0.4,1,1v5.2C3.2,26.7,2.7,27.2,2.2,27.2z"/>
</g>
<g>
	<path fill="#EA611A" d="M68,34c-0.6,0-1-0.4-1-1v-5.2c0-0.6,0.4-1,1-1s1,0.4,1,1V33C69,33.5,68.6,34,68,34z"/>
</g>
<g>
	<path fill="#EA611A" d="M47.2,52.2c-0.6,0-1-0.4-1-1V46c0-0.6,0.4-1,1-1s1,0.4,1,1v5.2C48.2,51.7,47.7,52.2,47.2,52.2z"/>
</g>
<g>
	<path fill="#EA611A" d="M47.7,44.6c-0.2,0-0.3,0-0.5-0.1L0.5,18.1c-0.5-0.3-0.7-0.9-0.4-1.4c0.3-0.5,0.9-0.7,1.4-0.4l46,26
		l21.4-19.8l-44-20.4L4.4,15.5c-0.5,0.3-1.1,0.2-1.4-0.3c-0.3-0.5-0.2-1.1,0.3-1.4l21-13.7c0.3-0.2,0.7-0.2,1-0.1l45.8,21.2
		c0.3,0.1,0.5,0.4,0.6,0.8c0.1,0.3-0.1,0.7-0.3,0.9l-23,21.3C48.2,44.5,47.9,44.6,47.7,44.6z"/>
</g>
</svg>
