<?xml version="1.0" encoding="utf-8"?>
<!-- Generator: Adobe Illustrator 21.0.2, SVG Export Plug-In . SVG Version: 6.00 Build 0)  -->
<svg version="1.1" id="Слой_1" xmlns="http://www.w3.org/2000/svg" xmlns:xlink="http://www.w3.org/1999/xlink" x="0px" y="0px"
	 viewBox="0 0 59.8 57.9" enable-background="new 0 0 59.8 57.9" xml:space="preserve">
<path fill="#EA611A" d="M58.8,33.9l-3-3c-1.2-1.2-3.3-1.2-4.5,0L34.9,47.2l-2.3,8.3L32,56.1c-0.4,0.4-0.4,1.1,0,1.5l0,0l0,0
	c0.2,0.2,0.5,0.3,0.7,0.3c0.3,0,0.5-0.1,0.8-0.3l0.6-0.6l8.3-2.3l16.4-16.4C60.1,37.1,60.1,35.1,58.8,33.9L58.8,33.9z M37.3,47.8
	l10.9-10.9l4.5,4.5L41.8,52.3L37.3,47.8z M36.4,49.8l3.4,3.4l-4.7,1.3L36.4,49.8z M57.3,36.8l-3,3l-4.5-4.5l3-3
	c0.4-0.4,1.1-0.4,1.5,0l3,3C57.7,35.8,57.7,36.4,57.3,36.8L57.3,36.8z M57.3,36.8"/>
<path fill="#EA611A" d="M28.8,12.8c-0.6,0-1.1,0.5-1.1,1.1c0,0.6,0.5,1.1,1.1,1.1H48c0.6,0,1.1-0.5,1.1-1.1c0-0.6-0.5-1.1-1.1-1.1
	H28.8z M28.8,12.8"/>
<path fill="#EA611A" d="M49.1,28.8c0-0.6-0.5-1.1-1.1-1.1H28.8c-0.6,0-1.1,0.5-1.1,1.1c0,0.6,0.5,1.1,1.1,1.1H48
	C48.6,29.9,49.1,29.4,49.1,28.8L49.1,28.8z M49.1,28.8"/>
<path fill="#EA611A" d="M22,7.7c-0.4-0.4-1.1-0.3-1.5,0.1l-6.7,7.8l-4.1-3.1c-0.5-0.4-1.1-0.3-1.5,0.2c-0.4,0.5-0.3,1.1,0.2,1.5
	l4.9,3.7c0.2,0.1,0.4,0.2,0.6,0.2c0.3,0,0.6-0.1,0.8-0.4l7.3-8.5C22.5,8.8,22.4,8.1,22,7.7L22,7.7z M22,7.7"/>
<path fill="#EA611A" d="M22,22.7c-0.4-0.4-1.1-0.3-1.5,0.1l-6.7,7.8l-4.1-3.1c-0.5-0.4-1.1-0.3-1.5,0.2c-0.4,0.5-0.3,1.1,0.2,1.5
	l4.9,3.7c0.2,0.1,0.4,0.2,0.6,0.2c0.3,0,0.6-0.1,0.8-0.4l7.3-8.5C22.5,23.7,22.4,23.1,22,22.7L22,22.7z M22,22.7"/>
<path fill="#EA611A" d="M20.5,38.8l-6.7,7.8l-4.1-3.1c-0.5-0.4-1.1-0.3-1.5,0.2c-0.4,0.5-0.3,1.1,0.2,1.5l4.9,3.7
	c0.2,0.1,0.4,0.2,0.6,0.2c0.3,0,0.6-0.1,0.8-0.4l7.3-8.5c0.4-0.4,0.3-1.1-0.1-1.5C21.5,38.3,20.8,38.3,20.5,38.8L20.5,38.8z
	 M20.5,38.8"/>
<path fill="#EA611A" d="M26.7,55.5H13c-6,0-10.9-4.9-10.9-10.9V13C2.1,7,7,2.1,13,2.1h31.6c6,0,10.9,4.9,10.9,10.9v12.6
	c0,0.6,0.5,1.1,1.1,1.1c0.6,0,1.1-0.5,1.1-1.1V13c0-7.2-5.8-13-13-13H13C5.8,0,0,5.8,0,13v31.6c0,7.2,5.8,13,13,13h13.7
	c0.6,0,1.1-0.5,1.1-1.1C27.7,56,27.3,55.5,26.7,55.5L26.7,55.5z M26.7,55.5"/>
</svg>
