<?xml version="1.0" encoding="utf-8"?>
<!-- Generator: Adobe Illustrator 21.0.2, SVG Export Plug-In . SVG Version: 6.00 Build 0)  -->
<svg version="1.1" id="Слой_1" xmlns="http://www.w3.org/2000/svg" xmlns:xlink="http://www.w3.org/1999/xlink" x="0px" y="0px"
	 viewBox="0 0 54.7 54.7" enable-background="new 0 0 54.7 54.7" xml:space="preserve">
<g>
	<path fill="#EA611A" d="M3.4,13.3c-0.3,0-0.5-0.1-0.6-0.3c-0.4-0.4-0.4-0.9,0-1.3l3.8-3.8c0.4-0.4,0.9-0.4,1.3,0
		c0.4,0.4,0.4,0.9,0,1.3L4,13C3.8,13.2,3.6,13.3,3.4,13.3L3.4,13.3z"/>
	<path fill="#EA611A" d="M5.9,15.9c-0.3,0-0.5-0.1-0.6-0.3c-0.4-0.4-0.4-0.9,0-1.3l2.6-2.6c0.4-0.4,0.9-0.4,1.3,0
		c0.4,0.4,0.4,0.9,0,1.3l-2.6,2.6C6.5,15.8,6.2,15.9,5.9,15.9L5.9,15.9z"/>
	<path fill="#EA611A" d="M8.6,18.5c-0.3,0-0.5-0.1-0.6-0.3c-0.4-0.4-0.4-0.9,0-1.3l3.8-3.8c0.4-0.4,0.9-0.4,1.3,0
		c0.4,0.4,0.4,0.9,0,1.3l-3.8,3.8C9,18.4,8.7,18.5,8.6,18.5L8.6,18.5z"/>
	<path fill="#EA611A" d="M11.1,21.1c-0.3,0-0.5-0.1-0.6-0.3c-0.4-0.4-0.4-0.9,0-1.3L13,17c0.4-0.4,0.9-0.4,1.3,0
		c0.4,0.4,0.4,0.9,0,1.3l-2.6,2.6C11.6,21,11.4,21.1,11.1,21.1L11.1,21.1z"/>
	<path fill="#EA611A" d="M13.7,23.6c-0.3,0-0.5-0.1-0.6-0.3c-0.4-0.4-0.4-0.9,0-1.3l3.8-3.8c0.4-0.4,0.9-0.4,1.3,0
		c0.4,0.4,0.4,0.9,0,1.3l-3.8,3.8C14.1,23.5,13.9,23.6,13.7,23.6L13.7,23.6z"/>
	<path fill="#EA611A" d="M16.3,26.2c-0.3,0-0.5-0.1-0.6-0.3c-0.4-0.4-0.4-0.9,0-1.3l2.6-2.6c0.4-0.4,0.9-0.4,1.3,0
		c0.4,0.4,0.4,0.9,0,1.3L17,25.9C16.8,26.1,16.5,26.2,16.3,26.2L16.3,26.2z"/>
	<path fill="#EA611A" d="M29.2,39.1c-0.3,0-0.5-0.1-0.6-0.3c-0.4-0.4-0.4-0.9,0-1.3l3.8-3.8c0.4-0.4,0.9-0.4,1.3,0
		c0.4,0.4,0.4,0.9,0,1.3l-3.8,3.8C29.6,39,29.4,39.1,29.2,39.1L29.2,39.1z"/>
	<path fill="#EA611A" d="M31.7,41.6c-0.3,0-0.5-0.1-0.6-0.3c-0.4-0.4-0.4-0.9,0-1.3l2.6-2.6c0.4-0.4,0.9-0.4,1.3,0
		c0.4,0.4,0.4,0.9,0,1.3l-2.6,2.6C32.2,41.6,32,41.6,31.7,41.6L31.7,41.6z"/>
	<path fill="#EA611A" d="M34.4,44.2c-0.3,0-0.5-0.1-0.6-0.3c-0.4-0.4-0.4-0.9,0-1.3l3.8-3.8c0.4-0.4,0.9-0.4,1.3,0
		c0.4,0.4,0.4,0.9,0,1.3L35,43.9C34.8,44.1,34.5,44.2,34.4,44.2L34.4,44.2z"/>
	<path fill="#EA611A" d="M45.3,43.5c-0.5,0-0.9,0.2-1.3,0.5c-0.7,0.7-0.7,1.8,0,2.6c0.7,0.7,1.8,0.7,2.6,0c0.7-0.7,0.7-1.8,0-2.6
		C46.2,43.7,45.7,43.5,45.3,43.5L45.3,43.5z M45.3,48.8c-0.9,0-1.8-0.4-2.6-1.1c-1.5-1.5-1.5-3.7,0-5.1c1.5-1.5,3.7-1.5,5.1,0
		c1.5,1.5,1.5,3.7,0,5.1C47.1,48.5,46.2,48.8,45.3,48.8L45.3,48.8z"/>
	<path fill="#EA611A" d="M8.7,47.3l3.2,3.2l30.3-30.3L38.9,17L8.7,47.3L8.7,47.3z M11.8,52.8c-0.3,0-0.5-0.1-0.6-0.3l-4.6-4.6
		c-0.4-0.4-0.4-0.9,0-1.3l31.6-31.5c0.4-0.4,0.9-0.4,1.3,0l4.6,4.5c0.2,0.2,0.3,0.4,0.3,0.6c0,0.3-0.1,0.5-0.3,0.6L12.5,52.5
		C12.4,52.7,12.1,52.8,11.8,52.8L11.8,52.8z"/>
	<path fill="#EA611A" d="M4.2,42.8L7.4,46l30.3-30.3l-3.2-3.2L4.2,42.8L4.2,42.8z M7.4,48.2c-0.3,0-0.5-0.1-0.6-0.3l-4.5-4.6
		c-0.4-0.4-0.4-0.9,0-1.3l31.5-31.5c0.4-0.4,0.9-0.4,1.3,0l4.6,4.6c0.4,0.4,0.4,0.9,0,1.3L8,47.9C7.8,48.1,7.7,48.2,7.4,48.2
		L7.4,48.2z"/>
	<path fill="#EA611A" d="M39.6,7.4l7.7,7.7l4.9-4.9c0.8-0.8,0.8-2.3,0-3.1l-4.6-4.6c-0.8-0.8-2.3-0.8-3.1,0L39.6,7.4L39.6,7.4z
		 M47.3,17.3c-0.3,0-0.5-0.1-0.6-0.3l-9-9c-0.2-0.2-0.3-0.4-0.3-0.6c0-0.3,0.1-0.5,0.3-0.6l5.6-5.6C43.9,0.5,44.9,0,46,0
		c1.1,0,2.1,0.5,2.8,1.2l4.6,4.6c1.5,1.5,1.5,4.1,0,5.7L47.9,17C47.8,17.2,47.6,17.3,47.3,17.3L47.3,17.3z"/>
	<path fill="#EA611A" d="M3.5,44.7l-1.4,7.9l7.9-1.4L3.5,44.7L3.5,44.7z M0.9,54.7c-0.3,0-0.5-0.1-0.6-0.3C0.1,54.2,0,53.9,0,53.6
		l1.9-10.9C2,42.3,2.2,42,2.6,41.9c0.4-0.1,0.6,0,0.9,0.2l9,9c0.3,0.3,0.4,0.6,0.2,0.9c-0.1,0.4-0.4,0.5-0.7,0.6l-10.8,2
		C1,54.7,1,54.7,0.9,54.7L0.9,54.7z"/>
	<path fill="#EA611A" d="M35.7,11.2l7.7,7.7l2.6-2.6l-7.7-7.7L35.7,11.2L35.7,11.2z M43.5,21.1c-0.3,0-0.5-0.1-0.6-0.3l-9-9
		c-0.2-0.2-0.3-0.4-0.3-0.6c0-0.3,0.1-0.5,0.3-0.6l3.8-3.8c0.4-0.4,0.9-0.4,1.3,0l9,9c0.2,0.2,0.3,0.4,0.3,0.6
		c0,0.3-0.1,0.5-0.3,0.6l-3.8,3.8C43.9,21.1,43.7,21.1,43.5,21.1L43.5,21.1z"/>
	<path fill="#EA611A" d="M9.2,1.8c-0.3,0-0.5,0.1-0.6,0.3L2.1,8.6c-0.4,0.4-0.4,0.9,0,1.3l16.2,16.2l7.7-7.7L9.8,2.1
		C9.7,1.9,9.4,1.8,9.2,1.8L9.2,1.8z M18.3,28.3c-0.3,0-0.5-0.1-0.6-0.3L0.8,11.1c-1.1-1.1-1.1-2.8,0-3.8l6.5-6.5c1-1,2.8-1,3.8,0
		L28,17.7c0.4,0.4,0.4,0.9,0,1.3l-9,9C18.8,28.2,18.6,28.3,18.3,28.3L18.3,28.3z"/>
	<path fill="#EA611A" d="M28.6,36.4L45,52.8c0.1,0.1,0.4,0.1,0.5,0l7.3-7.3c0.1-0.1,0.1-0.4,0-0.5l0,0L36.4,28.6L28.6,36.4
		L28.6,36.4z M45.3,54.7c-0.5,0-1.1-0.2-1.5-0.6l-17-17c-0.4-0.4-0.4-0.9,0-1.3l9-9c0.4-0.4,0.9-0.4,1.3,0l17,17
		c0.8,0.8,0.8,2.2,0,3L46.7,54C46.4,54.5,45.8,54.7,45.3,54.7L45.3,54.7z"/>
</g>
</svg>
