<?xml version="1.0" encoding="utf-8"?>
<!-- Generator: Adobe Illustrator 21.0.2, SVG Export Plug-In . SVG Version: 6.00 Build 0)  -->
<svg version="1.1" id="Слой_1" xmlns="http://www.w3.org/2000/svg" xmlns:xlink="http://www.w3.org/1999/xlink" x="0px" y="0px"
	 viewBox="0 0 73.4 35.1" enable-background="new 0 0 73.4 35.1" xml:space="preserve">
<path fill="#EA611A" d="M43.3,29.3c-0.3,0-0.7-0.2-0.8-0.5c-0.2-0.3-0.2-0.7,0-1l9.8-16.7c0.2-0.3,0.5-0.5,0.8-0.5
	c0.3,0,0.7,0.2,0.8,0.5l9.8,16.7c0.2,0.3,0.2,0.7,0,1c-0.2,0.3-0.5,0.5-0.8,0.5H43.3z M45,27.4h16.1L53,13.6L45,27.4z"/>
<path fill="#EA611A" d="M1,35.1c-0.3,0-0.7-0.2-0.8-0.5c-0.2-0.3-0.2-0.7,0-1L19.5,0.5C19.7,0.2,20,0,20.3,0H53c0,0,0.1,0,0.1,0
	l0.1,0c0.1,0,0.1,0,0.1,0c0,0,0.1,0.1,0.1,0.1l0.1,0.1l0.1,0.1c0,0,0.1,0.1,0.1,0.1l0.1,0.1l14.3,24.4c0.3,0.5,0.1,1.1-0.3,1.3
	c-0.1,0.1-0.3,0.1-0.5,0.1c-0.3,0-0.7-0.2-0.8-0.5L53,2.9L35.3,33.2h37.1c0.5,0,1,0.4,1,1c0,0.5-0.4,1-1,1H1z M41.7,6.3
	c0.2,0,0.3,0,0.5,0.1c0.5,0.3,0.6,0.9,0.4,1.3L27.8,33.2h5.3L51.3,1.9H38.6L20.4,33.2h5.1L40.9,6.8C41.1,6.5,41.4,6.3,41.7,6.3z
	 M2.7,33.2h15.5L36.3,1.9h-4.9L17,26.9c-0.2,0.3-0.5,0.5-0.8,0.5c-0.2,0-0.3,0-0.5-0.1c-0.5-0.3-0.6-0.9-0.4-1.3l13.9-24h-8.3
	L2.7,33.2z"/>
</svg>
