<?xml version="1.0" encoding="utf-8"?>
<!-- Generator: Adobe Illustrator 21.0.2, SVG Export Plug-In . SVG Version: 6.00 Build 0)  -->
<svg version="1.1" id="Слой_1" xmlns="http://www.w3.org/2000/svg" xmlns:xlink="http://www.w3.org/1999/xlink" x="0px" y="0px"
	 viewBox="0 0 55.9 55.9" enable-background="new 0 0 55.9 55.9" xml:space="preserve">
<g>
	<path fill="#EA611A" d="M2.2,5.9C1.5,8.1,2.4,10.6,4.3,12c1.9,1.3,4.4,1.3,6.2,0.1c1.4-0.9,2.3-2.4,2.5-4.1
		c0.2-1.7-0.5-3.3-1.6-4.5c-0.8-0.8-1.9-1.4-3-1.6l2,3.5c0.2,0.3,0.2,0.6,0,0.8l-0.2,0.5c-0.9,1.9-2.9,3-5,2.9H4.9
		c-0.3,0-0.6-0.2-0.7-0.5L2.2,5.9L2.2,5.9z M7.6,14.9c-1.5,0-3-0.5-4.3-1.4c-3.4-2.3-4.2-6.8-2-10.1C1.5,3.1,1.8,2.9,2.1,3
		c0.3,0,0.7,0.2,0.7,0.5l2.7,4.5C6.8,8,8.1,7.3,8.7,6.1l0,0L6.1,1.4c-0.2-0.3-0.2-0.7,0-0.9C6.2,0.3,6.5,0.1,6.7,0
		c2.2-0.2,4.5,0.6,6.1,2.1c1.6,1.6,2.3,3.7,2.1,6c-0.2,2.2-1.4,4.2-3.3,5.5C10.5,14.5,9,14.9,7.6,14.9L7.6,14.9z"/>
	<path fill="#EA611A" d="M38.6,44.5c-0.3,0-0.5-0.1-0.7-0.3c-0.4-0.4-0.4-0.9,0-1.3l1.9-1.9c0.4-0.4,0.9-0.4,1.3,0
		c0.4,0.4,0.4,0.9,0,1.3l-1.9,1.9C39.1,44.4,38.9,44.5,38.6,44.5L38.6,44.5z"/>
	<path fill="#EA611A" d="M48.4,42.7c-1.1,0-2.1,0.3-3.1,0.9c-1.4,0.9-2.3,2.4-2.5,4.1c-0.2,1.7,0.5,3.3,1.6,4.5
		c0.8,0.8,1.9,1.4,3,1.6l-2-3.5c-0.2-0.3-0.2-0.6,0-0.8l0.2-0.5c0.9-1.9,2.9-3.1,5-2.9H51c0.3,0,0.6,0.2,0.7,0.5l2,3.4
		c0.7-2.2-0.2-4.7-2.1-6.1C50.6,43,49.5,42.7,48.4,42.7L48.4,42.7z M48.4,55.7c-2,0-3.8-0.7-5.2-2.1c-1.6-1.6-2.3-3.7-2.1-6
		c0.2-2.2,1.4-4.2,3.3-5.5c2.5-1.7,5.9-1.7,8.4,0.1c3.3,2.3,4.2,6.8,2,10.1c-0.2,0.3-0.5,0.4-0.8,0.5c-0.3,0-0.7-0.2-0.7-0.5
		l-2.6-4.5c-1.4-0.1-2.6,0.7-3.3,1.9l2.7,4.6c0.2,0.3,0.2,0.7,0,0.9c-0.2,0.3-0.5,0.5-0.7,0.5C49,55.7,48.7,55.7,48.4,55.7
		L48.4,55.7z"/>
	<path fill="#EA611A" d="M36.4,41.5c-0.3,0-0.5-0.1-0.7-0.3c-0.4-0.4-0.4-0.9,0-1.3l1.5-1.5c0.4-0.4,0.9-0.4,1.3,0
		c0.4,0.4,0.4,0.9,0,1.3L37,41.3C36.9,41.4,36.7,41.5,36.4,41.5L36.4,41.5z"/>
	<path fill="#EA611A" d="M42.5,25.7l3.3,3.3c0.4,0.4,0.9,0.4,1.3,0l6.6-6.6c0.2-0.2,0.3-0.4,0.3-0.7c0-0.3-0.1-0.5-0.3-0.7l-3.3-3.3
		c-0.3,0.4-0.7,0.6-1.3,0.6c-0.5,0-1-0.2-1.4-0.6c-1.1-1.1-1.2-1.9-1.2-2.9c0-0.3,0-0.7-0.1-1.1c-0.1-0.9-0.6-1.9-1.3-2.6l-3.4-3.4
		c-2-2-2.7-2.7-4.9-3.6C32.9,2.4,29,2.4,23.7,4c2.5,0.3,4.7,1.2,7.7,4.1c2.2,2.2,2.4,5.8,0.4,8.3l4,4c0.7,0.7,1.6,1.2,2.6,1.3
		c0.5,0.1,0.8,0.1,1.1,0.1c1,0,1.8,0.1,2.9,1.2c0.4,0.4,0.6,0.9,0.6,1.4C43.1,25,42.9,25.4,42.5,25.7L42.5,25.7z M46.4,31.2
		c-0.7,0-1.5-0.3-2-0.8l-3.3-3.3c-0.4-0.4-0.6-0.9-0.6-1.4c0-0.5,0.2-0.9,0.6-1.2c-0.7-0.7-0.9-0.7-1.7-0.7c-0.4,0-0.7,0-1.3-0.1
		c-1.3-0.2-2.6-0.8-3.6-1.9l-4.6-4.6c-0.4-0.4-0.4-0.9,0-1.3c1.9-1.9,2-4.7,0.2-6.4c-3.7-3.7-5.9-3.7-10-3.7h-1.2
		c-0.5,0-0.8-0.3-0.9-0.7c-0.1-0.5,0.1-0.8,0.6-1c8-3.6,13.5-4.1,18.9-1.6c2.5,1.1,3.4,2,5.4,4l3.4,3.4c1,1,1.7,2.3,1.9,3.6
		c0.2,0.6,0.2,1,0.2,1.4c0,0.7,0,0.9,0.7,1.6c0.4-0.3,0.8-0.6,1.3-0.6l0,0c0.5,0,0.9,0.2,1.3,0.6l3.3,3.3c0.6,0.6,0.8,1.2,0.8,2
		c0,0.7-0.3,1.5-0.8,2l-6.6,6.6C47.9,30.9,47.2,31.2,46.4,31.2L46.4,31.2z"/>
	<path fill="#EA611A" d="M30.7,17.9L2.5,49.5c-0.5,0.5-0.7,0.9-0.7,1.5c0,0.5,0.2,0.9,0.6,1.3l1.3,1.2c0.7,0.7,2,0.7,2.7-0.1
		l28.2-31.6L30.7,17.9L30.7,17.9z M5,55.9c-0.9,0-1.9-0.4-2.6-1l-1.3-1.3C0.4,52.8,0,51.9,0,50.8c0-1,0.4-2,1.1-2.8L30,15.9
		c0.2-0.2,0.4-0.3,0.7-0.3c0.3,0,0.5,0.1,0.7,0.3l5.3,5.3c0.4,0.4,0.4,0.9,0,1.3L7.7,54.8C7,55.5,6,55.9,5,55.9L5,55.9z"/>
	<path fill="#EA611A" d="M30.7,17.9L2.5,49.5c-0.5,0.5-0.7,0.9-0.7,1.5c0,0.5,0.2,0.9,0.6,1.3l1.3,1.2c0.7,0.7,2,0.7,2.7-0.1
		l28.2-31.6L30.7,17.9L30.7,17.9z M5,55.9c-0.9,0-1.9-0.4-2.6-1l-1.3-1.3C0.4,52.8,0,51.9,0,50.8c0-1,0.4-2,1.1-2.8L30,15.9
		c0.2-0.2,0.4-0.3,0.7-0.3c0.3,0,0.5,0.1,0.7,0.3l5.3,5.3c0.4,0.4,0.4,0.9,0,1.3L7.7,54.8C7,55.5,6,55.9,5,55.9L5,55.9z"/>
	<path fill="#EA611A" d="M30.7,17.9L2.5,49.5c-0.5,0.5-0.7,0.9-0.7,1.5c0,0.5,0.2,0.9,0.6,1.3l1.3,1.2c0.7,0.7,2,0.7,2.7-0.1
		l28.2-31.6L30.7,17.9L30.7,17.9z M5,55.9c-0.9,0-1.9-0.4-2.6-1l-1.3-1.3C0.4,52.8,0,51.9,0,50.8c0-1,0.4-2,1.1-2.8L30,15.9
		c0.2-0.2,0.4-0.3,0.7-0.3c0.3,0,0.5,0.1,0.7,0.3l5.3,5.3c0.4,0.4,0.4,0.9,0,1.3L7.7,54.8C7,55.5,6,55.9,5,55.9L5,55.9z"/>
	<path fill="#EA611A" d="M10.2,14.5c3,1.8,5.8,4,8.6,6.9l3.4,3.4l2.5-2.8l-3.3-3.3c-2.8-2.8-5-5.6-6.8-8.6c-0.6,1.5-1.5,2.7-2.9,3.6
		C11.3,14,10.7,14.3,10.2,14.5L10.2,14.5z M22.2,26.9c-0.3,0-0.5-0.1-0.7-0.3l-4.1-4c-3.4-3.4-6.7-5.9-10.3-7.7
		c-0.3-0.1-0.5-0.4-0.5-0.7s0.1-0.6,0.3-0.8l0.1-0.1c0.1-0.2,0.4-0.3,0.6-0.3c1.1,0,2.1-0.4,3-0.9c1.6-1,2.5-2.7,2.5-4.6
		c0-0.3,0.1-0.5,0.3-0.7l0.1-0.1c0.3-0.2,0.6-0.3,0.8-0.3c0.3,0,0.6,0.2,0.7,0.5c1.9,3.6,4.3,6.9,7.7,10.3l3.8,3.8
		c0.4,0.4,0.4,0.9,0,1.3l-3.7,4.2C22.7,26.7,22.5,26.9,22.2,26.9L22.2,26.9L22.2,26.9z"/>
	<path fill="#EA611A" d="M28.8,31.2l5.9,5.9c1.8,1.8,4,4.7,6.8,8.7c0.6-1.5,1.5-2.9,3-3.8c0.6-0.4,1.1-0.7,1.7-0.8
		c-4.2-2.8-7.1-5-8.7-6.8l-6-6.1L28.8,31.2L28.8,31.2z M41.8,49.2L41.8,49.2c-0.4,0-0.7-0.2-0.7-0.4c-3.4-5-5.9-8.5-7.8-10.4
		l-6.5-6.5c-0.4-0.4-0.4-0.9,0-1.3l3.7-4.2c0.2-0.2,0.4-0.3,0.7-0.3c0.3,0,0.5,0.1,0.7,0.3l6.7,6.7c2,2,5.3,4.5,10.4,7.8
		c0.3,0.2,0.4,0.4,0.4,0.7c0,0.3-0.1,0.6-0.3,0.7l-0.1,0.1c-0.2,0.2-0.4,0.3-0.7,0.3c-1.1,0-2.1,0.4-3,0.9c-1.5,1.1-2.4,2.8-2.4,4.7
		c0,0.3-0.1,0.5-0.3,0.7L42.4,49C42.3,49.1,42.1,49.2,41.8,49.2L41.8,49.2z"/>
</g>
</svg>
