<?xml version="1.0" encoding="utf-8"?>
<!-- Generator: Adobe Illustrator 21.0.2, SVG Export Plug-In . SVG Version: 6.00 Build 0)  -->
<svg version="1.1" id="Шар_1" xmlns="http://www.w3.org/2000/svg" xmlns:xlink="http://www.w3.org/1999/xlink" x="0px" y="0px"
	 viewBox="0 0 13 20.7" enable-background="new 0 0 13 20.7" xml:space="preserve">
<path d="M7.9,20.7c-2.8,0-5.1-2.3-5.1-5.1V8.5c0-2.8,2.3-5.1,5.1-5.1c2.8,0,5.1,2.3,5.1,5.1v7.1C13,18.4,10.7,20.7,7.9,20.7z
	 M7.9,4.4c-2.3,0-4.1,1.8-4.1,4.1v7.1c0,2.3,1.8,4.1,4.1,4.1c2.3,0,4.1-1.8,4.1-4.1V8.5C12,6.2,10.2,4.4,7.9,4.4z"/>
<path d="M7.9,13.1c-0.3,0-0.5-0.2-0.5-0.5V7.9c0-0.3,0.2-0.5,0.5-0.5s0.5,0.2,0.5,0.5v4.7C8.4,12.9,8.2,13.1,7.9,13.1z"/>
<path d="M1.6,6.8C1.6,6.8,1.5,6.8,1.6,6.8C1.2,6.7,1.1,6.5,1.1,6.2c0-0.1,0.7-3.6,4.8-4.7c0.3-0.1,0.5,0.1,0.6,0.4
	c0.1,0.3-0.1,0.5-0.4,0.6c-3.4,0.9-4,3.8-4,3.9C2,6.6,1.8,6.8,1.6,6.8z"/>
<path d="M0.5,3.9c-0.1,0-0.2,0-0.2-0.1C0,3.7-0.1,3.4,0.1,3.2c0-0.1,1.2-2.3,3.6-3.1c0.3-0.1,0.5,0,0.6,0.3C4.4,0.6,4.2,0.9,4,1
	c-2,0.7-3,2.6-3,2.7C0.9,3.8,0.7,3.9,0.5,3.9z"/>
</svg>
