<?xml version="1.0" encoding="utf-8"?>
<!-- Generator: Adobe Illustrator 21.0.2, SVG Export Plug-In . SVG Version: 6.00 Build 0)  -->
<svg version="1.1" id="Шар_1" xmlns="http://www.w3.org/2000/svg" xmlns:xlink="http://www.w3.org/1999/xlink" x="0px" y="0px"
	 viewBox="0 0 24 25" enable-background="new 0 0 24 25" xml:space="preserve">
<g>
	<g>
		<defs>
			<rect id="SVGID_1_" width="24" height="25"/>
		</defs>
		<clipPath id="SVGID_2_">
			<use xlink:href="#SVGID_1_"  overflow="visible"/>
		</clipPath>
		<path clip-path="url(#SVGID_2_)" d="M19.1,24c-1,0-2.2-0.3-3.5-0.7c-2.9-1.1-6-3.2-8.8-6c-2.8-2.8-5-5.9-6-8.8c-1-2.6-1-4.8,0-5.8
			C0.9,2.5,1,2.3,1.2,2.2c0.9-0.9,1.9-2,3.3-2c0.9,0,1.8,0.6,2.8,1.8c2.7,3.4,1.5,4.6,0.1,6L7,8.2c-0.2,0.2-0.7,1.3,3.4,5.4
			c1.3,1.3,2.5,2.3,3.4,2.9c0.6,0.4,1.6,0.9,2,0.5l0.3-0.3c1.4-1.4,2.6-2.6,6,0.1c1.1,0.9,1.7,1.8,1.8,2.7c0.1,1.3-1,2.4-2,3.3
			c-0.2,0.2-0.3,0.3-0.4,0.4C20.9,23.8,20.1,24,19.1,24L19.1,24z M4.3,1c-1,0-1.8,0.9-2.6,1.7C1.6,2.9,1.4,3,1.3,3.2
			C0.6,3.9,0.6,5.9,1.5,8.1c1,2.8,3.1,5.8,5.9,8.5c2.7,2.7,5.8,4.8,8.5,5.9c2.3,0.8,4.2,0.9,4.9,0.2c0.1-0.1,0.3-0.3,0.5-0.4
			c0.8-0.8,1.8-1.7,1.7-2.6c0-0.7-0.5-1.4-1.5-2.2c-2.8-2.3-3.6-1.5-4.9-0.1l-0.3,0.3c-0.6,0.6-1.6,0.5-3-0.4c-1-0.6-2.1-1.6-3.5-3
			c-3.4-3.4-4.5-5.5-3.4-6.5l0.3-0.3C8,6.1,8.8,5.3,6.6,2.5C5.8,1.5,5.1,1,4.3,1C4.4,1,4.4,1,4.3,1L4.3,1z M4.3,1"/>
		<path clip-path="url(#SVGID_2_)" d="M19.3,10c-0.1,0-0.1,0-0.2,0c-0.2-0.1-0.3-0.3-0.2-0.5c0.5-1.3,0.2-2.7-0.7-3.6
			c-1-1-2.5-1.3-3.8-0.7c-0.2,0.1-0.4,0-0.5-0.2c-0.1-0.2,0-0.4,0.2-0.5c1.6-0.7,3.4-0.4,4.7,0.9c1.2,1.2,1.5,3,0.9,4.5
			C19.6,10,19.4,10,19.3,10L19.3,10z M19.3,10"/>
		<path clip-path="url(#SVGID_2_)" d="M22.8,11.5c-0.1,0-0.1,0-0.2,0c-0.2-0.1-0.3-0.3-0.2-0.5c1.1-2.7,0.5-5.8-1.6-7.8
			c-2.1-2.1-5.4-2.7-8.1-1.5c-0.2,0.1-0.4,0-0.5-0.2c-0.1-0.2,0-0.4,0.2-0.5c3-1.4,6.6-0.7,9,1.6c2.3,2.3,3,5.7,1.8,8.7
			C23.1,11.4,23,11.5,22.8,11.5L22.8,11.5z M22.8,11.5"/>
	</g>
</g>
</svg>
