<?xml version="1.0" encoding="utf-8"?>
<!-- Generator: Adobe Illustrator 21.0.2, SVG Export Plug-In . SVG Version: 6.00 Build 0)  -->
<svg version="1.1" id="Layer_1" xmlns="http://www.w3.org/2000/svg" xmlns:xlink="http://www.w3.org/1999/xlink" x="0px" y="0px"
	 viewBox="0 0 260.1 311.9" style="enable-background:new 0 0 260.1 311.9;" xml:space="preserve">
<path d="M238.2,277.9c14.6-18.2,22-38.9,22-62c0-38.7-29.6-65.7-71.1-75.5c17.9-4.7,31.3-9.9,40.3-22.5c9-12.6,13.5-26.6,13.5-42.2
	c0-21.3-7.8-34.2-23.3-50.8C204,8.3,179.4,0,145.5,0H0v311.9h152.7C200.6,311.9,223.5,296.2,238.2,277.9z M80.9,61.7h36.4
	c21.9,0,32.9,7.9,32.9,25.3c0,6.4-2.3,18.4-7,24.1c-4.7,5.6-12.8,8.5-24.2,8.5H80.9L80.9,61.7L80.9,61.7z M80.5,242.5v-56.7h44.6
	c14.4,0,24.3,3,29.7,9c5.4,6,8.1,12.6,8.1,19.8c0,7.2-2.8,13.6-8.3,19.3c-5.6,5.7-14.3,8.6-26.2,8.6H80.5z"/>
</svg>
