<?xml version="1.0" encoding="utf-8"?>
<!-- Generator: Adobe Illustrator 21.0.2, SVG Export Plug-In . SVG Version: 6.00 Build 0)  -->
<svg version="1.1" id="Слой_1" xmlns="http://www.w3.org/2000/svg" xmlns:xlink="http://www.w3.org/1999/xlink" x="0px" y="0px"
	 viewBox="0 0 64.6 58" enable-background="new 0 0 64.6 58" xml:space="preserve">
<path fill="#EA611A" d="M42.4,34.1c0,0.8-0.7,1.5-1.5,1.5h-7c-0.8,0-1.5-0.7-1.5-1.5c0-0.8,0.7-1.5,1.5-1.5h7
	C41.8,32.6,42.4,33.3,42.4,34.1L42.4,34.1z M37.5,6c0.8,0,1.5-0.7,1.5-1.5V1.5c0-0.8-0.7-1.5-1.5-1.5C36.6,0,36,0.7,36,1.5v3.1
	C36,5.4,36.6,6,37.5,6L37.5,6z M32.5,13.5c0,0.8,0.7,1.5,1.5,1.5h7c0.8,0,1.5-0.7,1.5-1.5c0-0.8-0.7-1.5-1.5-1.5h-7
	C33.1,12,32.5,12.7,32.5,13.5L32.5,13.5z M41,22.3h-7c-0.8,0-1.5,0.7-1.5,1.5c0,0.8,0.7,1.5,1.5,1.5h7c0.8,0,1.5-0.7,1.5-1.5
	C42.4,23,41.8,22.3,41,22.3L41,22.3z M49,6c0.8,0,1.5-0.7,1.5-1.5V1.5C50.4,0.7,49.8,0,49,0c-0.8,0-1.5,0.7-1.5,1.5v3.1
	C47.5,5.4,48.2,6,49,6L49,6z M47.7,15h7c0.8,0,1.5-0.7,1.5-1.5c0-0.8-0.7-1.5-1.5-1.5h-7c-0.8,0-1.5,0.7-1.5,1.5
	C46.3,14.3,46.9,15,47.7,15L47.7,15z M47.7,25.2h7c0.8,0,1.5-0.7,1.5-1.5c0-0.8-0.7-1.5-1.5-1.5h-7c-0.8,0-1.5,0.7-1.5,1.5
	C46.3,24.6,46.9,25.2,47.7,25.2L47.7,25.2z M43.2,6c0.8,0,1.5-0.7,1.5-1.5V1.5C44.7,0.7,44,0,43.2,0c-0.8,0-1.5,0.7-1.5,1.5v3.1
	C41.8,5.4,42.4,6,43.2,6L43.2,6z M47.7,35.5h7c0.8,0,1.5-0.7,1.5-1.5c0-0.8-0.7-1.5-1.5-1.5h-7c-0.8,0-1.5,0.7-1.5,1.5
	C46.3,34.9,46.9,35.5,47.7,35.5L47.7,35.5z M27.2,22.3h-7c-0.8,0-1.5,0.7-1.5,1.5c0,0.8,0.7,1.5,1.5,1.5h7c0.8,0,1.5-0.7,1.5-1.5
	C28.6,23,28,22.3,27.2,22.3L27.2,22.3z M33.2,4.6V1.5c0-0.8-0.7-1.5-1.5-1.5c-0.8,0-1.5,0.7-1.5,1.5v3.1c0,0.8,0.7,1.5,1.5,1.5
	C32.5,6,33.2,5.4,33.2,4.6L33.2,4.6z M27.2,12h-7c-0.8,0-1.5,0.7-1.5,1.5c0,0.8,0.7,1.5,1.5,1.5h7c0.8,0,1.5-0.7,1.5-1.5
	C28.6,12.7,28,12,27.2,12L27.2,12z M63.2,1.8h-7V1.5c0-0.8-0.7-1.5-1.5-1.5c-0.8,0-1.5,0.7-1.5,1.5v3.1c0,0.8,0.7,1.5,1.5,1.5
	c0.8,0,1.4-0.6,1.5-1.3h5.5v38.2H33.8c-0.8,0-1.5,0.7-1.5,1.5c0,0.8,0.7,1.5,1.5,1.5h29.3c0.8,0,1.5-0.7,1.5-1.5V3.2
	C64.6,2.4,64,1.8,63.2,1.8L63.2,1.8z M26.8,32.9c0.6,0.6,0.6,1.5,0,2.1c-0.6,0.6-1.5,0.6-2.1,0l-0.1-0.1L23.6,36
	c2,2.3,3.2,5.3,3.2,8.6c0,7.4-6,13.4-13.4,13.4C6,58,0,52,0,44.6c0-6.3,4.4-11.7,10.4-13c0-0.1,0-0.1,0-0.2c0-0.8,0.7-1.5,1.5-1.5
	h3.1c0.8,0,1.5,0.7,1.5,1.5c0,0.1,0,0.2,0,0.2c1.9,0.4,3.6,1.3,5.1,2.4l1.2-1.2l-0.1-0.1c-0.6-0.6-0.6-1.5,0-2.1
	c0.6-0.6,1.5-0.6,2.1,0l1.1,1.1c0,0,0,0,0,0c0,0,0,0,0,0L26.8,32.9z M13.4,34.2c-5.8,0-10.4,4.7-10.4,10.4c0,5.8,4.7,10.4,10.4,10.4
	s10.4-4.7,10.4-10.4C23.8,38.9,19.1,34.2,13.4,34.2L13.4,34.2z M11.7,25.2c0.8,0,1.5-0.7,1.5-1.5V4.7h5.5C18.8,5.4,19.4,6,20.2,6
	c0.8,0,1.5-0.7,1.5-1.5V1.5C21.6,0.7,21,0,20.2,0c-0.8,0-1.5,0.7-1.5,1.5v0.3h-7c-0.8,0-1.5,0.7-1.5,1.5v20.6
	C10.3,24.6,10.9,25.2,11.7,25.2L11.7,25.2z M16.5,43.2h-1.6V39c0-0.8-0.7-1.5-1.5-1.5c-0.8,0-1.5,0.7-1.5,1.5v5.6
	c0,0.8,0.7,1.5,1.5,1.5h3.1c0.8,0,1.5-0.7,1.5-1.5C17.9,43.8,17.3,43.2,16.5,43.2L16.5,43.2z M25.9,6c0.8,0,1.5-0.7,1.5-1.5V1.5
	c0-0.8-0.7-1.5-1.5-1.5c-0.8,0-1.5,0.7-1.5,1.5v3.1C24.5,5.4,25.1,6,25.9,6L25.9,6z M25.9,6"/>
</svg>
