<?xml version="1.0" encoding="utf-8"?>
<!-- Generator: Adobe Illustrator 21.0.2, SVG Export Plug-In . SVG Version: 6.00 Build 0)  -->
<svg version="1.1" id="Слой_1" xmlns="http://www.w3.org/2000/svg" xmlns:xlink="http://www.w3.org/1999/xlink" x="0px" y="0px"
	 viewBox="0 0 52.3 53.8" enable-background="new 0 0 52.3 53.8" xml:space="preserve">
<path fill="#EA611A" d="M48.3,35.4"/>
<path fill="#EA611A" d="M35.8,53.8c-1.1,0-2.4-0.1-3.8-0.2c-0.6,0-1.2,0-1.7,0c-7.1,0-13.5-0.8-13.6-0.8l-2.9-0.3l-0.2,0.1
	c-0.7,0.5-1.6,0.8-2.4,0.8h-7c-2.3,0-4.2-1.9-4.2-4.2V30.5c0-2.3,1.9-4.2,4.2-4.2h7c0.7,0,1.4,0.2,2,0.5l0.5,0.3l0.3-0.6
	c0.6-1.2,1.3-2.3,2.1-3.2c0,0,0.1-0.1,0.1-0.1c4.5-3.4,9.4-16.5,9.6-17.1l0-0.1l0-0.1c-0.1-0.8-0.4-3.7,0.8-5
	C27.1,0.3,27.8,0,28.5,0c0.8,0,3.6,0.2,5.4,2.6c1.7,2.3,1.8,5.9,0.2,10.6c-1.3,4-1.5,5.9-1.5,6.9l0,0.7l0.6-0.1
	c0.6-0.1,1.2-0.3,1.7-0.4l0.1,0c0.1,0,2.6-0.6,5.6-0.7c0.5,0,0.9,0,1.3,0c3.4,0,6,0.7,7.5,2.1c2.6,2.3,1.8,5.3,1.3,6.4l-0.1,0.3
	l0.2,0.3c0.6,0.8,1.3,2,1.4,3.6c0.1,1.4-0.4,2.9-1.5,4.2l-0.2,0.3l0.1,0.3c0.2,0.5,0.4,1.2,0.4,2.1c0.1,1.5-0.3,3.6-2.4,5.5
	l-0.2,0.2l0,0.3c0.1,1,0.1,2.5-0.7,4c-1.1,2-3.4,3.4-6.8,4.2C39.6,53.6,37.9,53.8,35.8,53.8z M32.2,51.7c1.3,0.1,2.6,0.2,3.7,0.2
	c1.9,0,3.5-0.1,4.8-0.4c2.8-0.6,4.6-1.7,5.5-3.2c0.8-1.4,0.5-2.8,0.4-3.3v0l0-0.1c-0.1-0.4,0-0.9,0.3-1.1c1.7-1.3,2.5-2.8,2.4-4.5
	c0-0.9-0.3-1.6-0.5-2v0L48.6,37c-0.2-0.4-0.2-0.9,0.1-1.2c1.1-1.1,1.6-2.3,1.6-3.5c-0.1-1.7-1.3-2.9-1.4-3.1
	c-0.4-0.3-0.5-0.9-0.2-1.3c0.2-0.3,1.7-2.9-0.5-4.9c-1.1-1-3.3-1.6-6.3-1.6c-2,0-4.3,0.3-6.3,0.7l-0.1,0c-0.6,0.1-1.3,0.2-2,0.4
	c-0.3,0.1-0.5,0.1-0.8,0.1c-0.3,0-0.8-0.1-1.2-0.5c-1.3-1.2-1.1-4.2,0.7-9.7c1.3-4,1.3-7.1,0.1-8.9c-1.2-1.6-3.1-1.8-3.7-1.8l-0.3,0
	l-0.2,0.3c-0.4,0.7-0.4,2.6-0.2,3.7c0,0.2,0,0.3,0,0.5C27.6,7,22.6,20.7,17.6,24.6c-1.5,1.6-2.1,3.3-2.3,4.2l0,0.2l0,0.2
	c0.1,0.4,0.2,0.8,0.2,1.3v18.7c0,0.3,0,0.6-0.1,0.9l-0.1,0.6l1.8,0.2c0.1,0,6.4,0.8,13.3,0.8c0.6,0,1.1,0,1.7,0H32.2z M4.2,28.2
	c-1.2,0-2.2,1-2.2,2.2v18.7c0,1.2,1,2.2,2.2,2.2h0.6v0h6.4c1.2,0,2.2-1,2.2-2.2V30.5c0-1.2-1-2.2-2.2-2.2H4.2z"/>
</svg>
