<?xml version="1.0" encoding="utf-8"?>
<!-- Generator: Adobe Illustrator 21.0.2, SVG Export Plug-In . SVG Version: 6.00 Build 0)  -->
<svg version="1.1" id="Слой_1" xmlns="http://www.w3.org/2000/svg" xmlns:xlink="http://www.w3.org/1999/xlink" x="0px" y="0px"
	 viewBox="0 0 43.3 57.8" enable-background="new 0 0 43.3 57.8" xml:space="preserve">
<g>
	<g>
		<g>
			<path fill="#EA611A" d="M33.1,50.7c-0.4-0.2-0.8-0.2-1.2,0.1l-5.9,3.9l-3.8-11.4c1.2-0.2,2.2-1,3-1.8c0.5-0.5,1.1-1.1,1.5-1.2
				c0.5-0.1,1.2,0.1,2,0.2c1.2,0.3,2.6,0.6,3.8-0.1c0.5-0.3,0.9-0.7,1.2-1.2l6.1,14.9L33.1,50.7L33.1,50.7z M21.7,40.9
				c-0.5,0-1.2-0.7-1.8-1.2c-0.8-0.7-1.6-1.5-2.6-1.7c-0.3-0.1-0.7-0.1-1-0.1c-0.7,0-1.5,0.2-2.2,0.3c-0.8,0.2-1.7,0.4-2.1,0.2
				c-0.4-0.2-0.7-1.1-0.9-1.9c-0.3-1-0.6-2.1-1.4-2.8c-0.7-0.7-1.8-1.1-2.8-1.4C6.1,32,5.2,31.7,5,31.3c-0.2-0.4,0-1.3,0.2-2.1
				c0.2-1,0.5-2.1,0.2-3.2c-0.3-1-1-1.8-1.7-2.6c-0.6-0.6-1.2-1.3-1.2-1.8c0-0.5,0.7-1.2,1.2-1.8c0.7-0.8,1.5-1.6,1.7-2.6
				c0.3-1,0-2.1-0.2-3.2C5,13.4,4.8,12.4,5,12c0.2-0.4,1.1-0.7,1.9-0.9c1-0.3,2.1-0.6,2.8-1.4c0.8-0.8,1.1-1.8,1.4-2.8
				C11.4,6.1,11.6,5.2,12,5c0.4-0.2,1.3,0,2.1,0.2c1,0.2,2.1,0.5,3.2,0.2c1-0.3,1.8-1,2.6-1.7c0.6-0.6,1.3-1.2,1.8-1.2
				c0.5,0,1.2,0.7,1.8,1.2C24.2,4.4,25,5.1,26,5.4c1,0.3,2.1,0,3.2-0.2C30,5,30.9,4.8,31.3,5c0.4,0.2,0.7,1.1,0.9,1.9
				c0.3,1,0.6,2.1,1.4,2.8c0.7,0.7,1.8,1.1,2.8,1.4c0.8,0.2,1.7,0.5,1.9,0.9c0.2,0.4,0,1.3-0.2,2.1c-0.2,1-0.5,2.1-0.2,3.2
				c0.3,1,1,1.8,1.7,2.6c0.6,0.6,1.2,1.3,1.2,1.8c0,0.5-0.7,1.2-1.2,1.8C39,24.2,38.2,25,38,26c-0.3,1,0,2.1,0.2,3.2
				c0.2,0.8,0.4,1.7,0.2,2.1c-0.2,0.4-1.1,0.7-1.9,0.9c-1,0.3-2.1,0.6-2.8,1.4c-0.8,0.8-1.1,1.8-1.4,2.8c-0.2,0.8-0.5,1.7-0.9,1.9
				c-0.4,0.2-1.3,0-2.1-0.2c-1-0.2-2.1-0.5-3.2-0.2c-1,0.3-1.8,1-2.6,1.7C22.9,40.3,22.1,40.9,21.7,40.9L21.7,40.9z M20.5,46.5
				l-3.1,8.2l-6-4c-0.4-0.2-0.8-0.3-1.2-0.1l-6.8,3.4l6.1-14.9c0.3,0.5,0.6,0.9,1.2,1.2c1.2,0.7,2.6,0.4,3.8,0.1
				c0.8-0.2,1.6-0.4,2-0.2c0.4,0.1,1,0.7,1.5,1.2c0.3,0.3,0.7,0.6,1.1,0.9c0,0,0,0.1,0,0.1l1.3,3.9C20.6,46.5,20.6,46.5,20.5,46.5
				L20.5,46.5z M34.9,35.9c0.1-0.3,0.2-0.5,0.4-0.6c0.3-0.3,1.1-0.6,1.8-0.8c1.2-0.4,2.6-0.8,3.3-2c0.7-1.2,0.4-2.6,0.1-3.8
				c-0.2-0.8-0.4-1.5-0.2-2c0.1-0.4,0.7-1,1.2-1.5c0.9-0.9,1.9-2,1.9-3.4c0-1.4-1-2.5-1.9-3.4c-0.5-0.5-1.1-1.1-1.2-1.5
				c-0.1-0.5,0.1-1.3,0.2-2c0.3-1.2,0.6-2.6-0.1-3.8c-0.7-1.2-2.1-1.6-3.3-2c-0.7-0.2-1.5-0.5-1.8-0.8C35,7.7,34.7,7,34.5,6.2
				c-0.4-1.2-0.8-2.6-2-3.3c-1.2-0.7-2.6-0.4-3.8-0.1c-0.8,0.2-1.6,0.4-2,0.2c-0.4-0.1-1-0.7-1.5-1.2C24.2,1,23.1,0,21.7,0
				c-1.4,0-2.5,1-3.4,1.9c-0.5,0.5-1.1,1.1-1.5,1.2c-0.5,0.1-1.2-0.1-2-0.2c-1.2-0.3-2.6-0.6-3.8,0.1C9.6,3.6,9.2,5,8.8,6.2
				C8.6,7,8.4,7.7,8.1,8C7.7,8.4,7,8.6,6.2,8.8c-1.2,0.4-2.6,0.8-3.3,2c-0.7,1.2-0.4,2.6-0.1,3.8c0.2,0.8,0.4,1.5,0.2,2
				c-0.1,0.4-0.7,1-1.2,1.5C1,19.2,0,20.2,0,21.7c0,1.4,1,2.5,1.9,3.4c0.5,0.5,1.1,1.1,1.2,1.5c0.1,0.5-0.1,1.3-0.2,2
				c-0.3,1.2-0.6,2.6,0.1,3.8c0.7,1.2,2.1,1.6,3.3,2C7,34.7,7.7,35,8.1,35.3c0.1,0.1,0.3,0.4,0.4,0.6L0.1,56.1
				c-0.2,0.5-0.1,1,0.3,1.3c0.2,0.2,0.5,0.3,0.8,0.3c0.2,0,0.4,0,0.5-0.1l9-4.5l6.6,4.4c0.3,0.2,0.7,0.3,1,0.1
				c0.4-0.1,0.6-0.4,0.8-0.7l2.6-7l2.3,7c0.1,0.4,0.4,0.6,0.8,0.8c0.4,0.1,0.7,0.1,1.1-0.1l6.6-4.4l9,4.5c0.2,0.1,0.4,0.1,0.5,0.1
				c0.3,0,0.6-0.1,0.8-0.3c0.4-0.3,0.5-0.9,0.3-1.3L34.9,35.9L34.9,35.9z"/>
		</g>
	</g>
	<g>
		<path fill="#EA611A" d="M20,30.4C20,30.4,20,30.4,20,30.4c-0.5,0-1-0.3-1.3-0.7L14,22.1c-0.4-0.7-0.2-1.6,0.5-2.1
			c0.7-0.4,1.6-0.2,2.1,0.5l3.4,5.6l9.4-14.9c0.4-0.7,1.4-0.9,2.1-0.5c0.7,0.4,0.9,1.4,0.5,2.1l-10.7,17C21,30.1,20.5,30.4,20,30.4z
			"/>
	</g>
</g>
</svg>
