<?xml version="1.0" encoding="utf-8"?>
<!-- Generator: Adobe Illustrator 21.0.2, SVG Export Plug-In . SVG Version: 6.00 Build 0)  -->
<svg version="1.1" id="Слой_1" xmlns="http://www.w3.org/2000/svg" xmlns:xlink="http://www.w3.org/1999/xlink" x="0px" y="0px"
	 viewBox="0 0 56.4 57.3" enable-background="new 0 0 56.4 57.3" xml:space="preserve">
<g>
	<path fill="#EA611A" d="M15.4,9.6c0.4,1.1,1.4,1.9,2.6,1.9h7.1c1.2,0,2.2-0.8,2.6-1.9c0.4-1.1,1.5-3.5,2.4-4.2
		c0.8-0.7,1.2-1.7,1-2.7c-0.2-1-0.9-1.8-1.8-2.1c-2.9-1-5.4-0.6-7.4,0.9c-0.3,0.3-0.8,0.3-1.2,0c-1.9-1.6-4.5-1.9-7.4-0.9
		c-1,0.3-1.7,1.1-1.8,2.1c-0.2,1,0.2,2,1,2.7C13.6,6.2,15.1,8.8,15.4,9.6L15.4,9.6z M13.4,3c0-0.2,0.2-0.5,0.6-0.6
		c0.9-0.3,1.7-0.4,2.5-0.4c1.2,0,2.2,0.4,3.1,1c1,0.8,2.5,0.8,3.6,0c1.4-1.1,3.3-1.3,5.6-0.6c0.4,0.1,0.5,0.5,0.6,0.6
		c0.1,0.3-0.1,0.7-0.3,0.9c-1.5,1.2-2.8,4.4-3,5.1c-0.1,0.4-0.4,0.6-0.8,0.6H18c-0.4,0-0.7-0.2-0.8-0.6c-0.4-1.2-2.2-4-3.4-5.1
		C13.5,3.6,13.4,3.3,13.4,3L13.4,3z M13.4,3"/>
	<path fill="#EA611A" d="M29.7,13.4c0-0.5-0.4-1-1-1c-0.2,0-0.3,0.1-0.5,0.1c-0.1-0.1-0.3-0.1-0.5-0.1H16.3c-0.5,0-1,0.4-1,1
		c0,0.5,0.4,1,1,1h11.5v1H17.3c-0.5,0-1,0.4-1,1c0,0.5,0.4,1,1,1h11.4c0.9,0.7,1.9,1.1,3,1.1c1.3,0,2.5-0.5,3.4-1.4
		c0.4-0.4,0.4-1,0-1.3c-0.4-0.4-1-0.4-1.3,0c-1.1,1.1-3,1.1-4,0V13.4z M29.7,13.4"/>
	<path fill="#EA611A" d="M20.1,24.8c-6.1,0-13.4,7.8-13.4,14.3c0,0.5,0.4,1,1,1c0.5,0,1-0.4,1-1c0-5.5,6.4-12.4,11.5-12.4
		c0.5,0,1-0.4,1-1C21.1,25.3,20.7,24.8,20.1,24.8L20.1,24.8z M20.1,24.8"/>
	<path fill="#EA611A" d="M46.9,30.6c-1,0-2.2,0.1-3.3,0.2c-1.3-2.4-3-4.4-5.1-6l-6.9-4.7c-1.1-0.9-2.9-1.9-5-1.9h-7.4
		c-1.8,0-3.6,0.6-5.1,1.7l-6.8,4.9C0.2,30.4-2,40.1,2,47.9c1.4,2.9,3.9,6.3,7.2,6.5c0.3,0,0.5,0,0.8,0h18.6c1.4,1.7,3.5,2.9,6,2.9
		c2.8,0,5.2-1.5,6.5-3.7c1.7,0.5,3.8,0.8,5.9,0.8c4.6,0,9.6-1.5,9.6-3.8v-5.3h-0.1c0-0.2,0.1-0.3,0.1-0.5v-11
		C56.4,31.3,50.4,30.6,46.9,30.6L46.9,30.6z M54.5,33.9C54.4,33.9,54.4,34,54.5,33.9c-0.1,0.1-0.1,0.1-0.2,0.2
		c-0.1,0-0.1,0.1-0.2,0.1c-0.1,0-0.1,0.1-0.2,0.1c-0.1,0-0.2,0.1-0.3,0.1c-0.1,0-0.2,0.1-0.3,0.1c-0.1,0-0.3,0.1-0.5,0.1
		c-0.1,0-0.3,0.1-0.4,0.1c-0.2,0-0.4,0.1-0.6,0.1c-0.2,0-0.3,0.1-0.5,0.1c-0.2,0-0.5,0.1-0.7,0.1c-0.2,0-0.3,0.1-0.5,0.1
		c-0.3,0-0.6,0.1-1,0.1c-0.2,0-0.3,0-0.5,0c-0.5,0-1.1,0-1.7,0c-0.6,0-1.1,0-1.7,0c-0.2,0-0.3,0-0.5,0c-0.3,0-0.7,0-1-0.1
		c-0.2,0-0.3-0.1-0.5-0.1c-0.3,0-0.5-0.1-0.7-0.1c-0.2,0-0.3-0.1-0.5-0.1c-0.2,0-0.4-0.1-0.6-0.1c-0.1,0-0.3-0.1-0.4-0.1
		c-0.2,0-0.3-0.1-0.5-0.1c-0.1,0-0.2-0.1-0.3-0.1c-0.1,0-0.2-0.1-0.3-0.1c-0.1,0-0.2-0.1-0.2-0.1c-0.1,0-0.2-0.1-0.2-0.1
		c-0.1,0-0.1-0.1-0.1-0.1c0,0,0,0-0.1-0.1c0,0,0,0,0,0c0,0,0.1-0.1,0.1-0.1c0.1-0.1,0.2-0.1,0.3-0.2c0.1,0,0.1-0.1,0.2-0.1
		c0.1,0,0.2-0.1,0.3-0.1c0.1,0,0.2-0.1,0.3-0.1c0.1,0,0.2-0.1,0.3-0.1c0.2-0.1,0.4-0.1,0.7-0.2c0.1,0,0.3-0.1,0.4-0.1
		c0.2,0,0.3-0.1,0.5-0.1c0.2,0,0.4-0.1,0.6-0.1c1.1-0.2,2.4-0.3,3.9-0.3C51.4,32.5,53.9,33.4,54.5,33.9L54.5,33.9z M39.9,41.8
		c0.1,0,0.2,0.1,0.3,0.1c0.2,0.1,0.3,0.1,0.5,0.2c0.1,0,0.2,0.1,0.3,0.1c0.2,0.1,0.4,0.1,0.6,0.2c0.1,0,0.1,0,0.2,0.1
		c0.3,0.1,0.6,0.1,0.9,0.2c0.1,0,0.1,0,0.2,0c0.2,0,0.5,0.1,0.7,0.1c0.1,0,0.2,0,0.3,0c0.2,0,0.4,0.1,0.6,0.1c0.1,0,0.2,0,0.3,0
		c0.2,0,0.5,0,0.7,0c0.1,0,0.2,0,0.3,0c0.3,0,0.7,0,1,0c0.3,0,0.7,0,1,0c0.1,0,0.2,0,0.3,0c0.2,0,0.5,0,0.7,0c0.1,0,0.2,0,0.4,0
		c0.2,0,0.4,0,0.6-0.1c0.1,0,0.2,0,0.3,0c0.2,0,0.5-0.1,0.7-0.1c0.1,0,0.1,0,0.2,0c0.3-0.1,0.6-0.1,0.9-0.2c0.1,0,0.2,0,0.2-0.1
		c0.2-0.1,0.4-0.1,0.6-0.2c0.1,0,0.2-0.1,0.3-0.1c0.2-0.1,0.3-0.1,0.5-0.2c0.1,0,0.2-0.1,0.3-0.1c0.2-0.1,0.3-0.1,0.5-0.2
		c0.1,0,0.1,0,0.2-0.1l0,3.4c-0.2,0.5-2.7,1.8-6.6,2c-0.4,0-0.7,0-1.1,0c-2.1,0-4.2-0.3-5.8-0.9c0,0,0,0,0,0
		c-0.1-0.2-0.2-0.4-0.4-0.6c0,0,0-0.1-0.1-0.1c-0.1-0.2-0.2-0.3-0.4-0.5c0,0-0.1-0.1-0.1-0.1c-0.1-0.1-0.2-0.3-0.4-0.4
		c-0.1-0.1-0.1-0.1-0.2-0.2c-0.1-0.1-0.2-0.2-0.3-0.3c0,0,0,0,0,0c0-0.4,0-1.2,0-2.2c0.1,0,0.1,0,0.2,0.1
		C39.6,41.6,39.7,41.7,39.9,41.8L39.9,41.8z M27.3,52.6H9.9c-0.2,0-0.4,0-0.7,0c-1.9-0.1-3.9-2.1-5.6-5.5c-3.6-7-1.6-15.7,4.8-20.7
		l6.8-4.9c1.1-0.9,2.5-1.4,3.9-1.4h7.4c1.5,0,2.9,0.8,3.9,1.5l6.9,4.7c1.7,1.3,3.1,2.9,4.2,4.8c-1.2,0.2-2.4,0.6-3.2,1.2l-0.1,0
		c-0.1,0.1-0.2,0.2-0.3,0.3c0,0-0.1,0.1-0.1,0.1c-0.1,0.1-0.1,0.2-0.2,0.3c0,0.1-0.1,0.1-0.1,0.2c0,0.1-0.1,0.1-0.1,0.2
		c-0.1,0.2-0.1,0.3-0.1,0.5v8.7c-0.3-0.1-0.7-0.2-1-0.3c0,0-0.1,0-0.1,0c-0.3-0.1-0.7-0.1-1-0.2c0,0-0.1,0-0.1,0c-0.2,0-0.4,0-0.6,0
		c-0.1,0-0.2,0-0.3,0c-0.1,0-0.2,0-0.2,0c-0.3,0-0.7,0.1-1,0.1c0,0,0,0,0,0c0,0-0.1,0-0.1,0c-0.3,0.1-0.6,0.2-0.9,0.3
		c-0.1,0-0.2,0.1-0.3,0.1c-0.3,0.1-0.6,0.2-0.8,0.4c-0.1,0.1-0.2,0.1-0.3,0.2c-0.2,0.1-0.4,0.2-0.5,0.4c-0.1,0.1-0.2,0.1-0.3,0.2
		c-0.2,0.2-0.4,0.4-0.6,0.6c-0.1,0.1-0.2,0.2-0.3,0.3c-0.1,0.2-0.3,0.3-0.4,0.5c-0.1,0.1-0.1,0.2-0.2,0.3c-0.2,0.2-0.3,0.5-0.5,0.8
		c-0.1,0.1-0.1,0.2-0.1,0.3c-0.1,0.2-0.2,0.5-0.3,0.7c0,0.1-0.1,0.1-0.1,0.2c-0.1,0.3-0.2,0.6-0.2,1c0,0,0,0.1,0,0.1
		c0,0.1,0,0.1,0,0.2c0,0.2,0,0.5-0.1,0.7c0,0.1,0,0.2,0,0.2c0,0,0,0.1,0,0.1c0,0.1,0,0.3,0,0.4C26.9,51,27,51.8,27.3,52.6L27.3,52.6
		z M34.5,55.4c-3.1,0-5.7-2.5-5.7-5.7c0-0.1,0-0.1,0-0.2c0-0.1,0-0.2,0-0.3c0-0.1,0-0.2,0-0.3c0-0.1,0-0.2,0-0.3
		c0-0.2,0.1-0.5,0.2-0.7c0,0,0-0.1,0-0.1c0.1-0.2,0.2-0.5,0.3-0.7c0,0,0,0,0-0.1c0.5-1,1.3-1.9,2.3-2.4c0,0,0,0,0,0
		c0.2-0.1,0.5-0.2,0.7-0.3c0.1,0,0.1,0,0.2-0.1c0.2-0.1,0.4-0.1,0.6-0.2c0,0,0.1,0,0.1,0c0.3-0.1,0.6-0.1,0.8-0.1c0.1,0,0.1,0,0.2,0
		c0.3,0,0.6,0,0.8,0c0,0,0,0,0,0c0.3,0,0.6,0.1,0.9,0.2c0,0,0,0,0,0c0.3,0.1,0.6,0.2,0.9,0.3c0.3,0.1,0.5,0.3,0.7,0.4l0,0
		c0,0,0.1,0.1,0.1,0.1c0.2,0.1,0.3,0.2,0.5,0.4c0,0,0.1,0.1,0.1,0.1c0.1,0.1,0.3,0.3,0.4,0.4c0,0,0,0,0,0c0.3,0.4,0.6,0.7,0.8,1.2
		c0.1,0.1,0.1,0.2,0.1,0.3c0.1,0.2,0.1,0.3,0.2,0.5c0,0,0,0,0,0c0.1,0.2,0.1,0.3,0.1,0.5c0,0,0,0,0,0c0,0.2,0.1,0.4,0.1,0.5
		c0,0,0,0,0,0c0,0.2,0,0.4,0,0.6c0,0.2,0,0.4,0,0.6c0,0,0,0.1,0,0.1c0,0.2,0,0.3-0.1,0.5c0,0,0,0,0,0.1c0,0.2-0.1,0.4-0.1,0.5l0,0
		c-0.1,0.2-0.1,0.4-0.2,0.6C38.8,54,36.8,55.4,34.5,55.4L34.5,55.4z M46.9,52.6c-1.8,0-3.6-0.2-5.1-0.7v0c0.1-0.3,0.2-0.6,0.2-1
		c0-0.1,0-0.2,0-0.2c0-0.3,0.1-0.7,0.1-1c0-0.2,0-0.5,0-0.7c0-0.1,0-0.2,0-0.3c0-0.1,0-0.2-0.1-0.4c1.5,0.3,3.1,0.4,4.9,0.4
		c2.3,0,5.6-0.3,7.6-1.2l0,3C54.3,51.2,51.4,52.6,46.9,52.6L46.9,52.6z M46.9,41.1c-4.5,0-7.4-1.4-7.6-1.9c0-1.1,0-2.2,0-3.1
		c0,0,0.1,0,0.1,0c0.2,0.1,0.5,0.2,0.7,0.3c0,0,0,0,0,0c0.3,0.1,0.5,0.2,0.8,0.2c0.1,0,0.2,0,0.3,0.1c0.2,0,0.4,0.1,0.6,0.1
		c0.1,0,0.2,0,0.3,0.1c0.2,0,0.5,0.1,0.7,0.1c0.1,0,0.1,0,0.2,0c0.3,0,0.6,0.1,0.9,0.1c0.1,0,0.2,0,0.2,0c0.2,0,0.5,0,0.7,0.1
		c0.1,0,0.2,0,0.3,0c0.2,0,0.4,0,0.6,0c0.1,0,0.2,0,0.3,0c0.3,0,0.6,0,0.8,0c0.3,0,0.5,0,0.8,0c0.1,0,0.2,0,0.3,0c0.2,0,0.4,0,0.6,0
		c0.1,0,0.2,0,0.3,0c0.2,0,0.5,0,0.7-0.1c0.1,0,0.1,0,0.2,0c0.3,0,0.6-0.1,0.9-0.1c0.1,0,0.1,0,0.2,0c0.2,0,0.5-0.1,0.7-0.1
		c0.1,0,0.2,0,0.3-0.1c0.2,0,0.4-0.1,0.6-0.1c0.1,0,0.2,0,0.3-0.1c0.3-0.1,0.6-0.1,0.8-0.2c0,0,0,0,0,0c0.2-0.1,0.5-0.2,0.7-0.3
		c0,0,0.1,0,0.1,0l0,3C54.3,39.7,51.4,41.1,46.9,41.1L46.9,41.1z M46.9,41.1"/>
</g>
</svg>
