<?xml version="1.0" encoding="utf-8"?>
<!-- Generator: Adobe Illustrator 21.0.2, SVG Export Plug-In . SVG Version: 6.00 Build 0)  -->
<svg version="1.1"
	 id="Layer_1" xmlns:cc="http://creativecommons.org/ns#" xmlns:dc="http://purl.org/dc/elements/1.1/" xmlns:inkscape="http://www.inkscape.org/namespaces/inkscape" xmlns:rdf="http://www.w3.org/1999/02/22-rdf-syntax-ns#" xmlns:sodipodi="http://sodipodi.sourceforge.net/DTD/sodipodi-0.dtd" xmlns:svg="http://www.w3.org/2000/svg"
	 xmlns="http://www.w3.org/2000/svg" xmlns:xlink="http://www.w3.org/1999/xlink" x="0px" y="0px" viewBox="0 0 333.3 400"
	 style="enable-background:new 0 0 333.3 400;" xml:space="preserve">
<style type="text/css">
	.st0{fill:#FFFFFF;}
</style>
<path id="YouTube" class="st0" d="M282,292.6h-22l0.1-12.8c0-5.7,4.7-10.3,10.3-10.3h1.4c5.7,0,10.4,4.6,10.4,10.3L282,292.6z
	 M199.6,265.3c-5.6,0-10.1,3.7-10.1,8.3v62c0,4.6,4.6,8.3,10.1,8.3c5.6,0,10.2-3.7,10.2-8.3v-62C209.8,269,205.2,265.3,199.6,265.3z
	 M333.3,230.6v118c0,28.3-24.5,51.5-54.5,51.5H54.5C24.5,400,0,376.8,0,348.5v-118c0-28.3,24.5-51.5,54.5-51.5h224.3
	C308.8,179.1,333.3,202.3,333.3,230.6z M69.5,361.4V237.1l27.8,0v-18.4l-74.1-0.1v18.1l23.1,0.1v124.6L69.5,361.4L69.5,361.4z
	 M152.8,255.6h-23.2V322c0,9.6,0.6,14.4,0,16.1c-1.9,5.1-10.4,10.6-13.7,0.6c-0.6-1.8-0.1-7.1-0.1-16.2l-0.1-66.8h-23l0.1,65.8
	c0,10.1-0.2,17.6,0.1,21c0.6,6,0.4,13.1,6,17.1c10.4,7.5,30.4-1.1,35.4-11.9l0,13.7l18.6,0L152.8,255.6L152.8,255.6z M227,331.6
	l0-55.2c0-21-15.8-33.7-37.1-16.6l0.1-41.1l-23.2,0l-0.1,141.7l19-0.3l1.7-8.8C211.7,373.7,227,358.4,227,331.6L227,331.6z
	 M299.5,324.3l-17.4,0.1c0,0.7,0,1.5,0,2.4v9.7c0,5.2-4.3,9.4-9.5,9.4h-3.4c-5.2,0-9.5-4.2-9.5-9.4v-1.1v-10.7v-13.8h39.8v-15
	c0-10.9-0.3-21.9-1.2-28.1c-2.8-19.8-30.6-22.9-44.7-12.8c-4.4,3.2-7.8,7.4-9.7,13.1c-2,5.7-3,13.5-3,23.4v32.9
	C240.9,379.1,307.4,371.4,299.5,324.3L299.5,324.3z M210.4,145.5c1.2,2.9,3.1,5.3,5.6,7c2.5,1.8,5.7,2.6,9.5,2.6
	c3.3,0,6.3-0.9,8.9-2.8c2.6-1.9,4.7-4.6,6.5-8.3l-0.4,9.1h25.8V43.3h-20.3v85.5c0,4.6-3.8,8.4-8.5,8.4c-4.6,0-8.5-3.8-8.5-8.4V43.3
	h-21.2v74.1c0,9.4,0.2,15.7,0.4,18.9C208.4,139.5,209.2,142.5,210.4,145.5z M132.1,83.4c0-10.5,0.9-18.8,2.6-24.7
	c1.8-5.9,4.9-10.7,9.5-14.3c4.6-3.6,10.4-5.4,17.5-5.4c6,0,11.1,1.2,15.4,3.5c4.3,2.3,7.6,5.3,9.9,9c2.3,3.7,3.9,7.5,4.8,11.4
	c0.9,4,1.3,9.9,1.3,18v27.8c0,10.2-0.4,17.7-1.2,22.4c-0.8,4.8-2.5,9.2-5.1,13.4c-2.6,4.1-5.9,7.2-9.9,9.1c-4.1,2-8.7,2.9-14,2.9
	c-5.9,0-10.8-0.8-14.9-2.5c-4.1-1.7-7.3-4.2-9.5-7.6c-2.3-3.4-3.9-7.5-4.9-12.3c-1-4.8-1.4-12-1.4-21.7L132.1,83.4L132.1,83.4z
	 M152.3,127.1c0,6.2,4.6,11.3,10.3,11.3c5.6,0,10.3-5.1,10.3-11.3V68.6c0-6.2-4.6-11.3-10.3-11.3c-5.6,0-10.3,5.1-10.3,11.3V127.1
	L152.3,127.1z M80.8,156.6h24.4l0-84.3L134,0.1h-26.7L92.1,53.8L76.5,0H50.1l30.6,72.4L80.8,156.6L80.8,156.6z"/>
</svg>
