<?xml version="1.0" encoding="UTF-8"?><!DOCTYPE svg PUBLIC "-//W3C//DTD SVG 1.1//EN" "http://www.w3.org/Graphics/SVG/1.1/DTD/svg11.dtd"><svg xmlns="http://www.w3.org/2000/svg"><symbol id="icon-adv-arrow" viewBox="0 0 101.8 119">
    <path d="M88.2 110.4s-.1 0 0 0c-.9 0-1.5-.7-1.5-1.5.7-37.8-8.7-66.2-27.9-84.4C34.3 1.1 1.9 3 1.6 3 .8 3.1.1 2.5 0 1.6-.1.8.6.1 1.4 0c.3 0 34-2 59.5 22.2 19.8 18.8 29.5 48 28.8 86.6 0 .9-.7 1.6-1.5 1.6z"/>
    <path d="M88.2 119c-.5 0-.9-.2-1.2-.6l-13.7-18c-.5-.7-.4-1.6.3-2.1s1.6-.4 2.1.3L88.1 115 99 98.7c.5-.7 1.4-.9 2.1-.4.7.5.9 1.4.4 2.1l-12.1 18c-.2.4-.7.6-1.2.6z"/>
</symbol><symbol id="icon-adv1" viewBox="0 0 101 90">
    <g>
        <path d="M71.1 80.4c-.9-.2-1.8.3-2 1.2L67.4 88c-.2.9.3 1.7 1.2 2h.4c.8 0 1.4-.5 1.6-1.2l1.7-6.4c.3-.9-.3-1.7-1.2-2zm0 0"/>
        <path d="M50.5 48.2c.2 0 .4 0 .6-.1l18.5-7.3c.9-.3 1.3-1.3.9-2.1s-1.3-1.2-2.2-.9l-17.9 7.1-47-18.6v-.5c0-.9-.8-1.6-1.7-1.6-.9 0-1.7.7-1.7 1.6v1.6c0 .7.4 1.2 1 1.5l48.8 19.3h.7zm0 0"/>
        <path d="M70.5 64.7c-.4-.8-1.4-1.1-2.3-.7-3.2 1.5-8.5 3.3-16.1 3.5V53.1c0-.9-.8-1.6-1.7-1.6-.9 0-1.7.7-1.7 1.6v14.4c-20.9-.6-27.6-12.7-28.6-14.7v-11c0-.9-.8-1.6-1.7-1.6-.9 0-1.7.7-1.7 1.6v11.3c0 .2 0 .4.1.6.3.7 7.5 17.1 33.5 17.1 9.1 0 15.5-2.1 19.3-3.9 1-.4 1.3-1.4.9-2.2zm0 0"/>
        <path d="M75.8 82c-.9 0-1.7.7-1.7 1.6v4.8c0 .9.8 1.6 1.7 1.6.9 0 1.7-.7 1.7-1.6v-4.8c-.1-.9-.8-1.6-1.7-1.6zm0 0"/>
        <path d="M99.3 24.1c-.9 0-1.7.7-1.7 1.6v.5l-20.2 7.9v-2.9l22.5-8.9c.6-.2 1-.8 1-1.5s-.4-1.2-1-1.5L51.1.1c-.4-.2-.9-.2-1.3 0L1 19.4c-.6.2-1 .8-1 1.5s.4 1.2 1 1.5l48.8 19.3c.2.1.4.1.6.1.2 0 .4 0 .6-.1l17.7-7c.9-.3 1.3-1.3.9-2.1s-1.3-1.2-2.2-.9l-17 6.7L6.1 20.9 50.5 3.3l44.4 17.6-19.3 7.6-18.5-6.6c.1-.3.2-.7.2-1 0-2.7-3-4.8-6.7-4.8-3.8 0-6.7 2.1-6.7 4.8 0 2.7 3 4.8 6.7 4.8 1.7 0 3.2-.4 4.4-1.1l19.2 6.9V71c-2 .7-3.4 2.4-3.4 4.5 0 2.7 2.3 4.8 5.1 4.8s5-2.2 5-4.8c0-2.1-1.4-3.9-3.4-4.5v-9.1c4.8-3.5 6.6-8.1 6.6-8.3.1-.2.1-.3.1-.5V41.8c0-.9-.8-1.6-1.7-1.6-.9 0-1.7.7-1.7 1.6v11c-.3.7-1.3 2.8-3.4 4.9v-20l22.5-8.9c.6-.2 1-.8 1-1.5v-1.6c.1-.9-.7-1.6-1.6-1.6zm-48.8-1.6c-2.1 0-3.4-1-3.4-1.6 0-.7 1.3-1.6 3.4-1.6 2.1 0 3.4 1 3.4 1.6 0 .7-1.3 1.6-3.4 1.6zm25.3 54.7c-.9 0-1.7-.7-1.7-1.6 0-.9.8-1.6 1.7-1.6.9 0 1.7.7 1.7 1.6-.1.9-.8 1.6-1.7 1.6zm0 0"/>
        <path d="M82.4 81.6c-.2-.9-1.1-1.4-2-1.2-.9.2-1.5 1.1-1.2 2l1.7 6.4c.2.7.9 1.2 1.6 1.2h.4c.9-.2 1.5-1.1 1.2-2l-1.7-6.4zm0 0"/>
    </g>
</symbol><symbol id="icon-adv2" viewBox="0 0 90 81.7">
    <path d="M86.1 39.3H6c-.4.4-.7.9-.7 1.5 0 1.1.9 2 2 2h75.6c-1 19.4-17.1 34.8-36.8 34.8-15.8 0-29.9-10.1-34.9-25.1-.3-1-1.5-1.6-2.5-1.2-1 .3-1.6 1.5-1.3 2.5C12.9 70.5 28.5 81.7 46 81.7c22.5 0 40.8-18.3 40.8-40.8 0-.7-.3-1.2-.7-1.6z"/>
    <path d="M45 32.7c3.9 0 7.2 2.9 7.9 6.6H37.1c.2-1.3.7-2.4 1.5-3.4 1.4-1.9 3.8-3.2 6.4-3.2zM1.4 42h87.2c.7 0 1.4-.6 1.4-1.4 0-.7-.6-1.4-1.4-1.4h-6.4L85 36c.2-.3.3-.7.3-1-.1-.4-.3-.7-.6-.9l-5.1-3.5L82 25c.1-.3.1-.7 0-1.1-.2-.3-.5-.6-.8-.7l-5.8-1.9.7-6.1c0-.4-.1-.8-.3-1-.2-.3-.6-.5-1-.5l-6.1-.2-1-6c-.2-.5-.4-.8-.7-1-.3-.2-.7-.3-1.1-.2L60 7.8l-2.7-5.5c-.2-.3-.5-.6-.8-.7-.4-.1-.8-.1-1.1.1L50.1 5 46 .4c-.3-.2-.6-.4-1-.4s-.7.2-1 .4L39.8 5l-5.2-3.2c-.6-.4-1.5-.2-1.9.5-.4.6-.2 1.5.5 1.9l6.2 3.7c.6.3 1.3.2 1.7-.2L45 3.3l3.9 4.2c.4.5 1.1.6 1.7.2l4.9-3L58 10c.3.6.9.9 1.6.7l5.6-1.5 1 5.7c.1.6.6 1.1 1.3 1.1l5.8.2-.8 5.8c-.1.6.3 1.2.9 1.4l5.5 1.8-2.2 5.3c-.3.6 0 1.3.5 1.6l4.8 3.3-3.3 4H55.6C54.9 34.1 50.4 30 45 30c-3.8 0-7.1 2-9 4.9-.8 1.3-1.4 2.8-1.6 4.4H11.3l-3.3-4 4.8-3.3c.5-.4.7-1.1.5-1.6L11 25.2l5.5-1.8c.6-.2 1-.8.9-1.4l-.7-5.7 5.8-.2c.6 0 1.2-.5 1.3-1.1l1-5.7 5.6 1.5c.6.2 1.3-.1 1.6-.7l1.3-2.6c.3-.7.1-1.5-.6-1.8-.7-.3-1.5-.1-1.8.6L30 7.8l-6-1.5c-.4-.1-.8 0-1.1.2-.3.2-.5.5-.6.9l-1 6-6.1.2c-.4 0-.7.2-1 .5-.2.3-.4.7-.3 1l.7 6.1-5.8 1.9c-.4.1-.7.4-.8.7-.2.3-.2.7 0 1.1l2.4 5.6L5.3 34c-.3.2-.5.5-.6.9-.1.4.1.8.3 1l2.8 3.4H1.4c-.7 0-1.4.6-1.4 1.4 0 .7.6 1.3 1.4 1.3z"/>
</symbol><symbol id="icon-adv3" viewBox="0 0 84 89.8">
    <path d="M67.2 49.8c.3-2.4 1.6-4.6 3.7-6 2-1.4 3.3-3.1 3.8-5.1.5-2 .1-4.2-1.1-6.3-1.2-2.1-1.4-4.7-.6-7 .8-2.3.8-4.4.1-6.3-.8-2-2.4-3.5-4.8-4.5-2.2-1-3.9-2.9-4.7-5.2-.7-2.1-1.9-3.7-3.5-4.7-1.7-1.1-3.8-1.4-6.1-.9-2.5.3-5-.3-6.9-1.8-1.9-1.5-4-2.2-6-2-2 .2-3.9 1.1-5.5 2.9-1.7 1.8-4 2.7-6.4 2.7-2.5-.1-4.5.6-6 1.9-1.5 1.3-2.5 3.2-2.8 5.6-.3 2.4-1.6 4.6-3.6 5.9-2 1.4-3.3 3.1-3.8 5.1-.5 2-.1 4 1 6.1 1.2 2.1 1.4 4.6.5 6.9-.8 2.3-.9 4.4-.1 6.3.4 1 1 1.9 1.8 2.6L.3 72.3c-.4.6-.4 1.3 0 1.9s1.1.9 1.8.8l16.5-2.3 5.5 15.8c.1.4.4.7.8.9.2.1.5.2.7.3.7.1 1.4-.3 1.7-.9l15.9-26c1 .3 2 .4 3 .4 2.1-.2 4-1.2 5.7-3 1.7-1.8 4-2.8 6.5-2.7 2.4.1 4.5-.6 6-1.9 1.6-1.4 2.6-3.3 2.8-5.8zM26.3 83.7l-4.7-13.6c-.1-.4-.4-.7-.8-.9-.3-.2-.8-.3-1.2-.2L5.4 71l14-23c1.9 1.2 3.3 3 3.8 5.2.7 2.6 1.9 4.4 3.8 5.5 1.8 1.1 3.9 1.4 6.4.9 2.3-.5 4.8.1 6.7 1.5L26.3 83.7zm35.8-30.9c-.8.7-2 1.1-3.6 1-3.5-.1-6.9 1.3-9.3 3.9-1.1 1.1-2.2 1.8-3.3 1.9-.8.1-1.7-.1-2.5-.6-.3-.2-.6-.4-1-.6-2.8-2.2-6.4-3-9.8-2.3-1.5.3-2.8.2-3.8-.4-1-.6-1.7-1.8-2.2-3.4-.8-3.1-2.8-5.7-5.5-7.4-.3-.2-.6-.3-.9-.5-.2-.1-.4-.2-.6-.4-.9-.6-1.5-1.3-1.8-2-.4-1-.4-2.3.1-3.7 1.2-3.2.9-6.8-.8-9.8-.7-1.3-.9-2.5-.7-3.6.3-1.1 1-2.1 2.3-2.9 2.8-1.9 4.7-5 5.2-8.4.2-1.5.7-2.6 1.6-3.3.9-.7 2.1-1.1 3.6-1 3.4.1 6.7-1.3 9.1-3.8 1-1.1 2.1-1.7 3.2-1.8 1.1-.1 2.3.3 3.5 1.3 2.7 2.1 6.2 2.9 9.6 2.3 1.5-.3 2.7-.1 3.6.5.9.5 1.5 1.5 2 2.7 1.1 3.3 3.6 6 6.7 7.4 1.5.7 2.5 1.5 2.9 2.6.4 1 .4 2.3-.1 3.7-1.2 3.3-.9 7 .8 10 .8 1.4 1 2.6.8 3.7-.3 1.1-1 2.1-2.3 2.9-2.9 2-4.8 5.1-5.2 8.6-.2 1.5-.8 2.7-1.6 3.4zm0 0"/>
    <path d="M55 13.1c-10.2-6.3-23.7-3-29.9 7.2-6.3 10.2-3 23.7 7.2 29.9 10.2 6.3 23.7 3 29.9-7.2 6.3-10.2 3-23.6-7.2-29.9zM34.2 47.2c-8.5-5.2-11.3-16.4-6-25 5.2-8.5 16.4-11.3 25-6 8.5 5.2 11.3 16.4 6 25-5.3 8.5-16.5 11.2-25 6zm0 0"/>
    <path d="M44.9 16.6c-5.7-.5-11.2 2.3-14.2 7.2-.5.9-.3 2 .6 2.5.9.5 2 .3 2.5-.6 2.3-3.7 6.4-5.9 10.8-5.5 1 .1 1.9-.7 1.9-1.7.1-1-.6-1.8-1.6-1.9zm0 0"/>
    <path d="M55 21.6c-1-1.1-2.1-2.1-3.4-2.9-.9-.5-2-.3-2.5.6-.5.9-.3 2 .6 2.5 1 .6 1.9 1.3 2.6 2.2.1.1.3.3.4.3.7.4 1.5.3 2.1-.2.8-.6.8-1.7.2-2.5zm0 0"/>
    <path d="M65.8 48.4c-.3.3-.5.6-.8.9l13.6 21.3-14.3-1.7c-.4-.1-.8.1-1.2.3-.3.2-.6.6-.7 1L58 83.8 43.9 61.7c-1.3.3-2.3.8-3.4 1.4L57 89c.4.6 1.1.9 1.8.8.7-.1 1.3-.6 1.5-1.2l5.2-15.9 16.6 2c.4.1.8 0 1.2-.3.2-.1.4-.3.6-.6.4-.6.4-1.3 0-1.9l-16-24.8c-.8.3-1.5.8-2.1 1.3z"/>
</symbol><symbol id="icon-adv4" viewBox="0 0 94.6 89.3">
    <g>
        <path d="M7.4 89.3c-1.2 0-2.1-.9-2.1-2.1V54c0-1.2.9-2.1 2.1-2.1 1.2 0 2.1.9 2.1 2.1v31.2h11.8V50c0-1.2.9-2.1 2.1-2.1h21.3c1.2 0 2.1.9 2.1 2.1v35.1h38.4V54c0-1.2.9-2.1 2.1-2.1 1.2 0 2.1.9 2.1 2.1v33.3c0 1.2-.9 2.1-2.1 2.1H7.4zm18.1-4.2h17.1V70.7h-3.2c-1.2 0-2.1-.9-2.1-2.1 0-1.2.9-2.1 2.1-2.1h3.2V52.1H25.5v33z"/>
        <path d="M92.5 49.4c-.6 0-1.1-.2-1.5-.6L47.3 5 3.6 48.8c-.4.4-.9.6-1.5.6-.3 0-.5-.1-.8-.2-.8-.3-1.3-1-1.3-1.9V7.4c0-1.2.9-2.1 2.1-2.1H16V2.1c0-1.2.9-2.1 2.1-2.1h10.6c1.2 0 2.1.9 2.1 2.1v5.3c0 1.2-.9 2.1-2.1 2.1s-2.1-.9-2.1-2.1V4.2h-6.5v3.2c0 1.2-.9 2.1-2.1 2.1H4.2v32.8L45.8.6c.4-.4.9-.6 1.5-.6s1.1.2 1.5.6l41.6 41.6V9.5H65.9c-1.2 0-2.1-.9-2.1-2.1 0-1.2.9-2.1 2.1-2.1h26.6c1.2 0 2.1.9 2.1 2.1v39.9c0 .8-.5 1.6-1.3 1.9-.2.2-.5.2-.8.2z"/>
        <path d="M55.3 73.3c-1.2 0-2.1-.9-2.1-2.1V50c0-1.2.9-2.1 2.1-2.1h16c1.2 0 2.1.9 2.1 2.1v21.3c0 1.2-.9 2.1-2.1 2.1h-16zm2.1-4.1h11.8V52.1H57.4v17.1z"/>
    </g>
</symbol><symbol id="icon-aks-arrow" viewBox="0 0 16.9 31.4">
    <path d="M.5 31.4c-.2 0-.5-.2-.5-.4 0-.3.1-.5.4-.6.1 0 7.6-1.2 11.6-7.5 2.9-4.6 3.3-10.8 1-18.4-.1-.3.1-.5.3-.6.3-.1.5.1.6.3 2.3 7.9 1.9 14.4-1.2 19.3C8.6 30.1.9 31.3.5 31.4z"/>
    <path d="M11.1 6.5s-.1 0 0 0c-.4-.1-.5-.3-.5-.6l1-5.5c0-.2.2-.3.3-.4.2-.1.4 0 .5.1l4.3 3.8c.2.2.2.5 0 .7-.2.2-.5.2-.7 0l-3.6-3.2-.8 4.6c-.1.3-.3.5-.5.5z"/>
</symbol><symbol id="icon-check" viewBox="0 0 45.4 32.2">
    <path d="M14.7 32.2L0 17.5 1.4 16l13.3 13.3L44 0l1.4 1.5z"/>
</symbol><symbol id="icon-droparrow" viewBox="0 0 18.9 9.9">
    <path d="M12.4 9.9c-.3 0-.6-.1-.8-.4-.3-.5-.2-1.1.2-1.4L16.2 5l-4.5-3.2c-.4-.3-.6-.9-.2-1.4.3-.4.9-.6 1.4-.2l5.6 4c.3.2.4.5.4.8 0 .3-.2.6-.4.8L13 9.7c-.2.1-.4.2-.6.2z"/>
    <path d="M17.2 5.9H1c-.6 0-1-.4-1-1s.4-1 1-1h16.2c.6 0 1 .4 1 1s-.4 1-1 1z"/>
</symbol><symbol id="icon-facebook" viewBox="0 0 10 19">
    <title>
        facebook
    </title>
    <path d="M9.766.157v2.946H8.014c-.64 0-1.071.134-1.295.402-.223.268-.335.67-.335 1.205v2.11h3.27l-.435 3.303H6.384v8.471H2.97v-8.47H.123V6.82H2.97V4.387c0-1.384.387-2.457 1.161-3.22C4.904.404 5.934.023 7.222.023c1.093 0 1.941.045 2.544.134z" fill-rule="evenodd"/>
</symbol><symbol id="icon-hbuilding-1" viewBox="0 0 54.7 54.7">
    <g>
        <path d="M3.4 13.3c-.3 0-.5-.1-.6-.3-.4-.4-.4-.9 0-1.3l3.8-3.8c.4-.4.9-.4 1.3 0s.4.9 0 1.3L4 13c-.2.2-.4.3-.6.3z"/>
        <path d="M5.9 15.9c-.3 0-.5-.1-.6-.3-.4-.4-.4-.9 0-1.3l2.6-2.6c.4-.4.9-.4 1.3 0s.4.9 0 1.3l-2.6 2.6c-.1.2-.4.3-.7.3z"/>
        <path d="M8.6 18.5c-.3 0-.5-.1-.6-.3-.4-.4-.4-.9 0-1.3l3.8-3.8c.4-.4.9-.4 1.3 0s.4.9 0 1.3l-3.8 3.8c-.3.2-.6.3-.7.3z"/>
        <path d="M11.1 21.1c-.3 0-.5-.1-.6-.3-.4-.4-.4-.9 0-1.3L13 17c.4-.4.9-.4 1.3 0s.4.9 0 1.3l-2.6 2.6c-.1.1-.3.2-.6.2z"/>
        <path d="M13.7 23.6c-.3 0-.5-.1-.6-.3-.4-.4-.4-.9 0-1.3l3.8-3.8c.4-.4.9-.4 1.3 0s.4.9 0 1.3l-3.8 3.8c-.3.2-.5.3-.7.3z"/>
        <path d="M16.3 26.2c-.3 0-.5-.1-.6-.3-.4-.4-.4-.9 0-1.3l2.6-2.6c.4-.4.9-.4 1.3 0s.4.9 0 1.3L17 25.9c-.2.2-.5.3-.7.3z"/>
        <path d="M29.2 39.1c-.3 0-.5-.1-.6-.3-.4-.4-.4-.9 0-1.3l3.8-3.8c.4-.4.9-.4 1.3 0s.4.9 0 1.3l-3.8 3.8c-.3.2-.5.3-.7.3z"/>
        <path d="M31.7 41.6c-.3 0-.5-.1-.6-.3-.4-.4-.4-.9 0-1.3l2.6-2.6c.4-.4.9-.4 1.3 0s.4.9 0 1.3l-2.6 2.6c-.2.3-.4.3-.7.3z"/>
        <path d="M34.4 44.2c-.3 0-.5-.1-.6-.3-.4-.4-.4-.9 0-1.3l3.8-3.8c.4-.4.9-.4 1.3 0s.4.9 0 1.3L35 43.9c-.2.2-.5.3-.6.3z"/>
        <path d="M45.3 43.5c-.5 0-.9.2-1.3.5-.7.7-.7 1.8 0 2.6.7.7 1.8.7 2.6 0 .7-.7.7-1.8 0-2.6-.4-.3-.9-.5-1.3-.5zm0 5.3c-.9 0-1.8-.4-2.6-1.1-1.5-1.5-1.5-3.7 0-5.1 1.5-1.5 3.7-1.5 5.1 0 1.5 1.5 1.5 3.7 0 5.1-.7.8-1.6 1.1-2.5 1.1z"/>
        <path d="M8.7 47.3l3.2 3.2 30.3-30.3-3.3-3.2L8.7 47.3zm3.1 5.5c-.3 0-.5-.1-.6-.3l-4.6-4.6c-.4-.4-.4-.9 0-1.3l31.6-31.5c.4-.4.9-.4 1.3 0l4.6 4.5c.2.2.3.4.3.6 0 .3-.1.5-.3.6L12.5 52.5c-.1.2-.4.3-.7.3z"/>
        <path d="M4.2 42.8L7.4 46l30.3-30.3-3.2-3.2L4.2 42.8zm3.2 5.4c-.3 0-.5-.1-.6-.3l-4.5-4.6c-.4-.4-.4-.9 0-1.3l31.5-31.5c.4-.4.9-.4 1.3 0l4.6 4.6c.4.4.4.9 0 1.3L8 47.9c-.2.2-.3.3-.6.3z"/>
        <path d="M39.6 7.4l7.7 7.7 4.9-4.9c.8-.8.8-2.3 0-3.1l-4.6-4.6c-.8-.8-2.3-.8-3.1 0l-4.9 4.9zm7.7 9.9c-.3 0-.5-.1-.6-.3l-9-9c-.2-.2-.3-.4-.3-.6 0-.3.1-.5.3-.6l5.6-5.6C43.9.5 44.9 0 46 0s2.1.5 2.8 1.2l4.6 4.6c1.5 1.5 1.5 4.1 0 5.7L47.9 17c-.1.2-.3.3-.6.3z"/>
        <path d="M3.5 44.7l-1.4 7.9 7.9-1.4-6.5-6.5zm-2.6 10c-.3 0-.5-.1-.6-.3-.2-.2-.3-.5-.3-.8l1.9-10.9c.1-.4.3-.7.7-.8.4-.1.6 0 .9.2l9 9c.3.3.4.6.2.9-.1.4-.4.5-.7.6l-10.8 2c-.2.1-.2.1-.3.1z"/>
        <path d="M35.7 11.2l7.7 7.7 2.6-2.6-7.7-7.7-2.6 2.6zm7.8 9.9c-.3 0-.5-.1-.6-.3l-9-9c-.2-.2-.3-.4-.3-.6 0-.3.1-.5.3-.6l3.8-3.8c.4-.4.9-.4 1.3 0l9 9c.2.2.3.4.3.6 0 .3-.1.5-.3.6l-3.8 3.8c-.3.3-.5.3-.7.3z"/>
        <path d="M9.2 1.8c-.3 0-.5.1-.6.3L2.1 8.6c-.4.4-.4.9 0 1.3l16.2 16.2 7.7-7.7L9.8 2.1c-.1-.2-.4-.3-.6-.3zm9.1 26.5c-.3 0-.5-.1-.6-.3L.8 11.1C-.3 10-.3 8.3.8 7.3L7.3.8c1-1 2.8-1 3.8 0L28 17.7c.4.4.4.9 0 1.3l-9 9c-.2.2-.4.3-.7.3z"/>
        <path d="M28.6 36.4L45 52.8c.1.1.4.1.5 0l7.3-7.3c.1-.1.1-.4 0-.5L36.4 28.6l-7.8 7.8zm16.7 18.3c-.5 0-1.1-.2-1.5-.6l-17-17c-.4-.4-.4-.9 0-1.3l9-9c.4-.4.9-.4 1.3 0l17 17c.8.8.8 2.2 0 3L46.7 54c-.3.5-.9.7-1.4.7z"/>
    </g>
</symbol><symbol id="icon-hbuilding-2" viewBox="0 0 59.8 57.9">
    <path d="M58.8 33.9l-3-3c-1.2-1.2-3.3-1.2-4.5 0L34.9 47.2l-2.3 8.3-.6.6c-.4.4-.4 1.1 0 1.5.2.2.5.3.7.3.3 0 .5-.1.8-.3l.6-.6 8.3-2.3 16.4-16.4c1.3-1.2 1.3-3.2 0-4.4zM37.3 47.8l10.9-10.9 4.5 4.5-10.9 10.9-4.5-4.5zm-.9 2l3.4 3.4-4.7 1.3 1.3-4.7zm20.9-13l-3 3-4.5-4.5 3-3c.4-.4 1.1-.4 1.5 0l3 3c.4.5.4 1.1 0 1.5zm0 0"/>
    <path d="M28.8 12.8c-.6 0-1.1.5-1.1 1.1 0 .6.5 1.1 1.1 1.1H48c.6 0 1.1-.5 1.1-1.1 0-.6-.5-1.1-1.1-1.1H28.8zm0 0"/>
    <path d="M49.1 28.8c0-.6-.5-1.1-1.1-1.1H28.8c-.6 0-1.1.5-1.1 1.1 0 .6.5 1.1 1.1 1.1H48c.6 0 1.1-.5 1.1-1.1zm0 0"/>
    <path d="M22 7.7c-.4-.4-1.1-.3-1.5.1l-6.7 7.8-4.1-3.1c-.5-.4-1.1-.3-1.5.2-.4.5-.3 1.1.2 1.5l4.9 3.7c.2.1.4.2.6.2.3 0 .6-.1.8-.4L22 9.2c.5-.4.4-1.1 0-1.5zm0 0"/>
    <path d="M22 22.7c-.4-.4-1.1-.3-1.5.1l-6.7 7.8-4.1-3.1c-.5-.4-1.1-.3-1.5.2-.4.5-.3 1.1.2 1.5l4.9 3.7c.2.1.4.2.6.2.3 0 .6-.1.8-.4l7.3-8.5c.5-.5.4-1.1 0-1.5zm0 0"/>
    <path d="M20.5 38.8l-6.7 7.8-4.1-3.1c-.5-.4-1.1-.3-1.5.2-.4.5-.3 1.1.2 1.5l4.9 3.7c.2.1.4.2.6.2.3 0 .6-.1.8-.4l7.3-8.5c.4-.4.3-1.1-.1-1.5-.4-.4-1.1-.4-1.4.1zm0 0"/>
    <path d="M26.7 55.5H13c-6 0-10.9-4.9-10.9-10.9V13C2.1 7 7 2.1 13 2.1h31.6c6 0 10.9 4.9 10.9 10.9v12.6c0 .6.5 1.1 1.1 1.1.6 0 1.1-.5 1.1-1.1V13c0-7.2-5.8-13-13-13H13C5.8 0 0 5.8 0 13v31.6c0 7.2 5.8 13 13 13h13.7c.6 0 1.1-.5 1.1-1.1-.1-.5-.5-1-1.1-1zm0 0"/>
</symbol><symbol id="icon-hbuilding-3" viewBox="0 0 71.7 56.7">
    <path d="M47.7 56.7c-.2 0-.3 0-.5-.1L.5 30.2c-.5-.3-.7-.9-.4-1.4.3-.5.9-.7 1.4-.4l46 26L70 33.6c.4-.4 1-.4 1.4.1.4.4.4 1-.1 1.4l-23 21.3c-.1.2-.4.3-.6.3z"/>
    <path d="M2.2 27.2c-.6 0-1-.4-1-1V21c0-.6.4-1 1-1s1 .4 1 1v5.2c0 .5-.5 1-1 1z"/>
    <path d="M68 34c-.6 0-1-.4-1-1v-5.2c0-.6.4-1 1-1s1 .4 1 1V33c0 .5-.4 1-1 1z"/>
    <path d="M47.2 52.2c-.6 0-1-.4-1-1V46c0-.6.4-1 1-1s1 .4 1 1v5.2c0 .5-.5 1-1 1z"/>
    <path d="M47.7 44.6c-.2 0-.3 0-.5-.1L.5 18.1c-.5-.3-.7-.9-.4-1.4.3-.5.9-.7 1.4-.4l46 26 21.4-19.8-44-20.4L4.4 15.5c-.5.3-1.1.2-1.4-.3-.3-.5-.2-1.1.3-1.4L24.3.1c.3-.2.7-.2 1-.1l45.8 21.2c.3.1.5.4.6.8.1.3-.1.7-.3.9l-23 21.3c-.2.3-.5.4-.7.4z"/>
</symbol><symbol id="icon-hbuilding-4" viewBox="0 0 55.9 55.9">
    <g>
        <path d="M2.2 5.9c-.7 2.2.2 4.7 2.1 6.1 1.9 1.3 4.4 1.3 6.2.1 1.4-.9 2.3-2.4 2.5-4.1.2-1.7-.5-3.3-1.6-4.5-.8-.8-1.9-1.4-3-1.6l2 3.5c.2.3.2.6 0 .8l-.2.5c-.9 1.9-2.9 3-5 2.9h-.3c-.3 0-.6-.2-.7-.5l-2-3.2zm5.4 9c-1.5 0-3-.5-4.3-1.4a7.28 7.28 0 0 1-2-10.1c.2-.3.5-.5.8-.4.3 0 .7.2.7.5L5.5 8c1.3 0 2.6-.7 3.2-1.9L6.1 1.4c-.2-.3-.2-.7 0-.9.1-.2.4-.4.6-.5 2.2-.2 4.5.6 6.1 2.1 1.6 1.6 2.3 3.7 2.1 6-.2 2.2-1.4 4.2-3.3 5.5-1.1.9-2.6 1.3-4 1.3z"/>
        <path d="M38.6 44.5c-.3 0-.5-.1-.7-.3-.4-.4-.4-.9 0-1.3l1.9-1.9c.4-.4.9-.4 1.3 0s.4.9 0 1.3l-1.9 1.9c-.1.2-.3.3-.6.3z"/>
        <path d="M48.4 42.7c-1.1 0-2.1.3-3.1.9-1.4.9-2.3 2.4-2.5 4.1-.2 1.7.5 3.3 1.6 4.5.8.8 1.9 1.4 3 1.6l-2-3.5c-.2-.3-.2-.6 0-.8l.2-.5c.9-1.9 2.9-3.1 5-2.9h.4c.3 0 .6.2.7.5l2 3.4c.7-2.2-.2-4.7-2.1-6.1-1-.9-2.1-1.2-3.2-1.2zm0 13c-2 0-3.8-.7-5.2-2.1-1.6-1.6-2.3-3.7-2.1-6 .2-2.2 1.4-4.2 3.3-5.5 2.5-1.7 5.9-1.7 8.4.1 3.3 2.3 4.2 6.8 2 10.1-.2.3-.5.4-.8.5-.3 0-.7-.2-.7-.5l-2.6-4.5c-1.4-.1-2.6.7-3.3 1.9l2.7 4.6c.2.3.2.7 0 .9-.2.3-.5.5-.7.5h-1z"/>
        <path d="M36.4 41.5c-.3 0-.5-.1-.7-.3-.4-.4-.4-.9 0-1.3l1.5-1.5c.4-.4.9-.4 1.3 0s.4.9 0 1.3L37 41.3c-.1.1-.3.2-.6.2z"/>
        <path d="M42.5 25.7l3.3 3.3c.4.4.9.4 1.3 0l6.6-6.6c.2-.2.3-.4.3-.7 0-.3-.1-.5-.3-.7l-3.3-3.3c-.3.4-.7.6-1.3.6-.5 0-1-.2-1.4-.6-1.1-1.1-1.2-1.9-1.2-2.9 0-.3 0-.7-.1-1.1-.1-.9-.6-1.9-1.3-2.6l-3.4-3.4c-2-2-2.7-2.7-4.9-3.6C32.9 2.4 29 2.4 23.7 4c2.5.3 4.7 1.2 7.7 4.1 2.2 2.2 2.4 5.8.4 8.3l4 4c.7.7 1.6 1.2 2.6 1.3.5.1.8.1 1.1.1 1 0 1.8.1 2.9 1.2.4.4.6.9.6 1.4.1.6-.1 1-.5 1.3zm3.9 5.5c-.7 0-1.5-.3-2-.8l-3.3-3.3c-.4-.4-.6-.9-.6-1.4 0-.5.2-.9.6-1.2-.7-.7-.9-.7-1.7-.7-.4 0-.7 0-1.3-.1-1.3-.2-2.6-.8-3.6-1.9l-4.6-4.6c-.4-.4-.4-.9 0-1.3 1.9-1.9 2-4.7.2-6.4-3.7-3.7-5.9-3.7-10-3.7h-1.2c-.5 0-.8-.3-.9-.7-.1-.5.1-.8.6-1C26.6.5 32.1 0 37.5 2.5c2.5 1.1 3.4 2 5.4 4l3.4 3.4c1 1 1.7 2.3 1.9 3.6.2.6.2 1 .2 1.4 0 .7 0 .9.7 1.6.4-.3.8-.6 1.3-.6s.9.2 1.3.6l3.3 3.3c.6.6.8 1.2.8 2 0 .7-.3 1.5-.8 2l-6.6 6.6c-.5.5-1.2.8-2 .8z"/>
        <path d="M30.7 17.9L2.5 49.5c-.5.5-.7.9-.7 1.5 0 .5.2.9.6 1.3l1.3 1.2c.7.7 2 .7 2.7-.1l28.2-31.6-3.9-3.9zM5 55.9c-.9 0-1.9-.4-2.6-1l-1.3-1.3C.4 52.8 0 51.9 0 50.8c0-1 .4-2 1.1-2.8L30 15.9c.2-.2.4-.3.7-.3.3 0 .5.1.7.3l5.3 5.3c.4.4.4.9 0 1.3l-29 32.3C7 55.5 6 55.9 5 55.9z"/>
        <path d="M30.7 17.9L2.5 49.5c-.5.5-.7.9-.7 1.5 0 .5.2.9.6 1.3l1.3 1.2c.7.7 2 .7 2.7-.1l28.2-31.6-3.9-3.9zM5 55.9c-.9 0-1.9-.4-2.6-1l-1.3-1.3C.4 52.8 0 51.9 0 50.8c0-1 .4-2 1.1-2.8L30 15.9c.2-.2.4-.3.7-.3.3 0 .5.1.7.3l5.3 5.3c.4.4.4.9 0 1.3l-29 32.3C7 55.5 6 55.9 5 55.9z"/>
        <path d="M30.7 17.9L2.5 49.5c-.5.5-.7.9-.7 1.5 0 .5.2.9.6 1.3l1.3 1.2c.7.7 2 .7 2.7-.1l28.2-31.6-3.9-3.9zM5 55.9c-.9 0-1.9-.4-2.6-1l-1.3-1.3C.4 52.8 0 51.9 0 50.8c0-1 .4-2 1.1-2.8L30 15.9c.2-.2.4-.3.7-.3.3 0 .5.1.7.3l5.3 5.3c.4.4.4.9 0 1.3l-29 32.3C7 55.5 6 55.9 5 55.9z"/>
        <path d="M10.2 14.5c3 1.8 5.8 4 8.6 6.9l3.4 3.4 2.5-2.8-3.3-3.3c-2.8-2.8-5-5.6-6.8-8.6-.6 1.5-1.5 2.7-2.9 3.6-.4.3-1 .6-1.5.8zm12 12.4c-.3 0-.5-.1-.7-.3l-4.1-4c-3.4-3.4-6.7-5.9-10.3-7.7-.3-.1-.5-.4-.5-.7s.1-.6.3-.8l.1-.1c.1-.2.4-.3.6-.3 1.1 0 2.1-.4 3-.9 1.6-1 2.5-2.7 2.5-4.6 0-.3.1-.5.3-.7l.1-.1c.3-.2.6-.3.8-.3.3 0 .6.2.7.5 1.9 3.6 4.3 6.9 7.7 10.3l3.8 3.8c.4.4.4.9 0 1.3l-3.7 4.2c-.1.2-.3.4-.6.4z"/>
        <path d="M28.8 31.2l5.9 5.9c1.8 1.8 4 4.7 6.8 8.7.6-1.5 1.5-2.9 3-3.8.6-.4 1.1-.7 1.7-.8-4.2-2.8-7.1-5-8.7-6.8l-6-6.1-2.7 2.9zm13 18c-.4 0-.7-.2-.7-.4-3.4-5-5.9-8.5-7.8-10.4l-6.5-6.5c-.4-.4-.4-.9 0-1.3l3.7-4.2c.2-.2.4-.3.7-.3.3 0 .5.1.7.3l6.7 6.7c2 2 5.3 4.5 10.4 7.8.3.2.4.4.4.7 0 .3-.1.6-.3.7l-.1.1c-.2.2-.4.3-.7.3-1.1 0-2.1.4-3 .9-1.5 1.1-2.4 2.8-2.4 4.7 0 .3-.1.5-.3.7h-.2c-.1.1-.3.2-.6.2z"/>
    </g>
</symbol><symbol id="icon-hbuilding-5" viewBox="0 0 73.4 35.1">
    <path d="M43.3 29.3c-.3 0-.7-.2-.8-.5-.2-.3-.2-.7 0-1l9.8-16.7c.2-.3.5-.5.8-.5.3 0 .7.2.8.5l9.8 16.7c.2.3.2.7 0 1-.2.3-.5.5-.8.5H43.3zm1.7-1.9h16.1L53 13.6l-8 13.8z"/>
    <path d="M1 35.1c-.3 0-.7-.2-.8-.5-.2-.3-.2-.7 0-1L19.5.5c.2-.3.5-.5.8-.5H53.3l.1.1.1.1.1.1.1.1.1.1 14.3 24.4c.3.5.1 1.1-.3 1.3-.1.1-.3.1-.5.1-.3 0-.7-.2-.8-.5L53 2.9 35.3 33.2h37.1c.5 0 1 .4 1 1 0 .5-.4 1-1 1H1zM41.7 6.3c.2 0 .3 0 .5.1.5.3.6.9.4 1.3L27.8 33.2h5.3L51.3 1.9H38.6L20.4 33.2h5.1L40.9 6.8c.2-.3.5-.5.8-.5zm-39 26.9h15.5L36.3 1.9h-4.9L17 26.9c-.2.3-.5.5-.8.5-.2 0-.3 0-.5-.1-.5-.3-.6-.9-.4-1.3L29.2 2h-8.3L2.7 33.2z"/>
</symbol><symbol id="icon-hbuilding-6" viewBox="0 0 55.1 57">
    <path d="M27.5 45.6c-1 0-1.9.9-1.9 1.9 0 1 .9 1.9 1.9 1.9 1 0 1.9-.9 1.9-1.9 0-1.1-.8-1.9-1.9-1.9zm0 5.7c-2.1 0-3.8-1.7-3.8-3.8 0-2.1 1.7-3.8 3.8-3.8 2.1 0 3.8 1.7 3.8 3.8 0 2.1-1.7 3.8-3.8 3.8z"/>
    <path d="M2.8 22.8v6.6c0 1.6 1.2 2.8 2.8 2.8h9.5c1.7 0 3.3.8 4.5 2.1 1.1 1.3 1.6 3 1.3 4.7l-1 6.4c-.5 3.2.9 6.5 3.6 8.4 2.4 1.7 5.7 1.7 8.1 0 2.7-1.9 4.1-5.2 3.6-8.4l-1-6.4c-.3-1.7.2-3.4 1.3-4.7 1.1-1.3 2.8-2.1 4.5-2.1h9.5c1.6 0 2.8-1.2 2.8-2.8v-6.6H2.8zM27.5 57c-1.8 0-3.6-.6-5.1-1.6-3.3-2.3-5-6.4-4.4-10.3l1-6.4c.2-1.1-.2-2.3-.9-3.1-.8-.9-1.9-1.4-3-1.4H5.7C3 34.2 1 32.1 1 29.5v-7.6c0-.6.4-.9.9-.9h51.3c.6 0 .9.4.9.9v7.6c0 2.7-2.1 4.7-4.7 4.7h-9.5c-1.1 0-2.3.5-2.9 1.3-.8.9-1 2-.9 3.1l1 6.4c.7 4-1.1 8-4.4 10.3-1.6 1.2-3.4 1.7-5.2 1.7z"/>
    <path d="M11.4 8.5c-.6 0-.9-.4-.9-.9V4.7c0-.6.4-.9.9-.9.6 0 .9.4.9.9v2.8c0 .7-.3 1-.9 1z"/>
    <path d="M2.8 12.3h7.6v-1.4c-.6.4-1.3.5-2.1.5-2-.1-3.6-1.8-3.6-4V1.9h-.9c-.5 0-.9.5-.9.9v9.5h-.1zm8.6 1.9H1.9c-.6 0-.9-.4-.9-.9V2.8C.9 1.2 2.2 0 3.8 0h1.9c.6 0 .9.4.9.9v6.5c0 1.1.9 2 1.8 2.1.6 0 1-.2 1.4-.5.4-.4.6-.9.6-1.4 0-.6.4-.9.9-.9.6 0 .9.4.9.9v5.7c.1.6-.2.9-.8.9z"/>
    <path d="M12.3 7.6v7.6c0 1 .9 1.9 1.9 1.9 1 0 1.9-.9 1.9-1.9v-10c0-.6.4-1 .9-1 .6 0 .9.4.9 1 0 .8.7 1.4 1.4 1.4.8 0 1.4-.7 1.4-1.4V1.9H6.6v5.7c0 1 .9 1.9 1.9 1.9 1 0 1.9-.9 1.9-1.9 0-.6.4-.9.9-.9.7-.1 1 .4 1 .9zM14.2 19c-2.1 0-3.8-1.7-3.8-3.8v-4.3c-.6.3-1.2.5-1.9.5-2.1 0-3.8-1.7-3.8-3.8V.9c0-.5.4-.9 1-.9h16.1c.6 0 .9.4.9.9v4.3c0 1.8-1.5 3.3-3.3 3.3-.5 0-.9-.1-1.4-.3v6.9c0 2.2-1.7 3.9-3.8 3.9z"/>
    <path d="M18 12.3h34.2V2.8c0-.6-.4-.9-.9-.9H22.8v3.2c0 1.8-1.3 3.2-2.9 3.4-.6.1-1.2 0-1.8-.3v4.1H18zm35.2 1.9H17.1c-.3 0-.6-.2-.8-.4-.1-.2-.2-.4-.2-.6v-8c0-.6.4-1 .9-1 .6 0 .9.4.9 1 0 .4.2.8.5 1 .3.3.7.4 1.1.4.7-.1 1.2-.8 1.2-1.5V.9c0-.6.4-.9 1-.9h29.4c1.6 0 2.8 1.2 2.8 2.8v10.4c.2.7-.2 1-.7 1z"/>
    <path d="M17.1 6.6c-.6 0-.9-.4-.9-.9V3.8c0-.6.4-.9.9-.9.6 0 .9.4.9.9v1.9c0 .6-.3.9-.9.9z"/>
    <path d="M1.9 20.9h51.3v-6.6H18v1c0 2.1-1.7 3.8-3.8 3.8-2.1 0-3.8-1.7-3.8-3.8v-1H1.9v6.6zm52.2 1.9H.9c-.6 0-.9-.4-.9-.9v-8.5c0-.6.4-1 .9-1h10.4c.6 0 .9.4.9 1v1.9c0 1 .9 1.9 1.9 1.9 1 0 1.9-.9 1.9-1.9v-1.9c0-.6.4-1 .9-1h37c.6 0 .9.4.9 1v8.5c.3.5-.1.9-.7.9z"/>
    <path d="M7.6 26.6H1.9c-.6 0-.9-.4-.9-.9 0-.6.4-.9.9-.9h5.7c.6 0 .9.4.9.9s-.3.9-.9.9z"/>
    <path d="M5.7 30.4H1.9c-.6 0-.9-.4-.9-1s.4-.9.9-.9h3.8c.6 0 .9.4.9.9 0 .6-.3 1-.9 1z"/>
</symbol><symbol id="icon-hbuilding-7" viewBox="0 0 55.7 42.7">
    <path d="M1.9 1.9v39h52v-39h-52zm51.9 40.8h-52c-1 0-1.9-.8-1.9-1.9v-39C0 .8.8 0 1.9 0h52c1 0 1.9.8 1.9 1.9v39c-.1.9-1 1.8-2 1.8z"/>
    <path d="M27.8 42.7c-.5 0-.9-.4-.9-.9V.9c0-.5.4-.9.9-.9s.9.4.9.9v40.8c.1.6-.4 1-.9 1z"/>
    <path d="M5.6 5.6v31.5h17.6V5.6H5.6zM23.2 39H5.6c-1 0-1.9-.8-1.9-1.9V5.6c0-1 .8-1.9 1.9-1.9h17.6c1 0 1.9.8 1.9 1.9v31.5c0 1-.9 1.9-1.9 1.9z"/>
    <path d="M32.5 5.6v31.5h17.6V5.6H32.5zM50.1 39H32.5c-1 0-1.9-.8-1.9-1.9V5.6c0-1 .8-1.9 1.9-1.9h17.6c1 0 1.9.8 1.9 1.9v31.5c0 1-.9 1.9-1.9 1.9z"/>
    <path d="M35.3 24.1c-.2 0-.4-.1-.6-.2L31 21.2c-.4-.3-.5-.9-.2-1.3s.9-.5 1.3-.2l3.7 2.8c.4.3.5.9.2 1.3-.2.2-.5.3-.7.3z"/>
    <path d="M8.4 9.3c-.5 0-.9-.4-.9-.9 0-.1 0-.2.1-.3 0-.1.1-.2.2-.3.4-.4.9-.4 1.3 0 0 0 .1.1.1.2.2.5 0 1-.5 1.2-.1.1-.2.1-.3.1z"/>
    <path d="M17.6 9.3H12c-.5 0-.9-.4-.9-.9s.4-.9.9-.9h5.6c.5 0 .9.4.9.9.1.5-.4.9-.9.9z"/>
    <path d="M31.5 9.3c-.5 0-.9-.4-.9-.9 0-.1 0-.2.1-.4 0-.1.1-.2.2-.3.4-.4.9-.4 1.3 0 .1.1.1.2.2.3.1.3.1.7-.2 1-.1.1-.2.2-.3.2-.1.1-.2.1-.4.1z"/>
    <path d="M40.8 9.3h-5.6c-.5 0-.9-.4-.9-.9s.4-.9.9-.9h5.6c.5 0 .9.4.9.9.1.5-.4.9-.9.9z"/>
</symbol><symbol id="icon-hbuilding-8" viewBox="0 0 58.8 45.9">
    <path d="M39 35.9c1.6 0 2.9 1.3 2.9 2.9 0 1.6-1.3 2.9-2.9 2.9-1.6 0-2.9-1.3-2.9-2.9 0-1.6 1.3-2.9 2.9-2.9zm0 7.3c2.4 0 4.4-2 4.4-4.4 0-2.4-2-4.4-4.4-4.4-2.4 0-4.4 2-4.4 4.4 0 2.4 2 4.4 4.4 4.4z"/>
    <path d="M26.1 40.2s-.1 0 0 0c-.7 2.5-2.9 4.3-5.5 4.3-1.5 0-3-.6-4.1-1.7-1.1-1.1-1.6-2.6-1.6-4.1.1-2.8 2.4-5.2 5.2-5.4h.4c.4 0 .8 0 1.2.1h.3l1-.2c1.5-.2 2.9-1 4-2.1.1-.1.1-.2.2-.3l.5-1.5.4.1.5.2-2.5 10.6zM36 2.4c.2.5.2 1 .1 1.4l-3.9 21.3-1.6-5.3L36 2.4zm3.5 29.3c-.6 0-1.3 0-1.9.1l-.9-.1c-1.1-.2-2.2-.7-3-1.6l-.6-1.9 4.4-24.1c.3-1.4-.3-3-1.4-3.9-.1-.2-.4-.2-.6-.2-.2.1-.4.3-.5.5l-5.2 16.8L24.6.5c-.1-.2-.3-.4-.5-.5-.2-.1-.5 0-.7.2-1.1 1-1.6 2.5-1.4 3.9l1.6 8.9c.1.4.5.7.9.6.4-.1.7-.5.6-.9l-1.6-8.9c-.1-.5 0-1 .1-1.4L29.1 20l2.6 8.4.7 2.3c0 .1.1.2.2.3 1.1 1.1 2.5 1.9 4 2.1l1 .2h.3c.5-.1 1.1-.1 1.6-.1 2.8.2 5.1 2.6 5.2 5.4.1 1.5-.5 3-1.6 4.1-1.1 1.1-2.5 1.7-4.1 1.7-2.6 0-4.8-1.7-5.5-4.2v-.1l-2.6-10.9c-.1-.2-.2-.4-.5-.5l-.4-.2-2-.7-.2-.1-2.3-12.6c-.1-.4-.5-.7-.9-.6-.4.1-.7.5-.6.9l2.3 12.7-.6 1.9c-.8.8-1.9 1.4-3 1.6l-.9.1c-.6-.1-1.2-.1-1.9-.1-3.6.3-6.4 3.3-6.6 6.8-.1 2 .6 3.8 2 5.2 1.4 1.4 3.2 2.2 5.1 2.2 3.2 0 6-2.1 6.9-5.2v-.1l2.3-9.8 2.3 9.8v.1c.9 3.1 3.7 5.2 6.9 5.2 1.9 0 3.8-.8 5.1-2.2 1.4-1.4 2.1-3.2 2-5.2.1-3.4-2.8-6.4-6.4-6.7z"/>
    <path d="M20.6 41.7c-1.6 0-2.9-1.3-2.9-2.9 0-1.6 1.3-2.9 2.9-2.9 1.6 0 2.9 1.3 2.9 2.9 0 1.6-1.3 2.9-2.9 2.9zm0-7.3c-2.4 0-4.4 2-4.4 4.4 0 2.4 2 4.4 4.4 4.4 2.4 0 4.4-2 4.4-4.4 0-2.4-2-4.4-4.4-4.4z"/>
    <path d="M36.3 22.2c-.3 0-.5-.1-.6-.4-.2-.4-.1-.8.2-1 1.6-1 5.2-2.7 10.8-2.3 2.1.1 6.9.9 9.6 1.4L53.2 16c-.2-.1-.2-.3-.2-.5s.1-.4.3-.5c1.1-.8 2.3-1.7 3.1-2.4-1.7-.1-4.3-.6-7.7-1.1l-.7-.1c-4.5-.8-9.6 1.5-9.7 1.5-.4.2-.8 0-1-.4-.2-.4 0-.8.4-1 .3-.1 5.6-2.5 10.6-1.6l.7.1c4.3.7 7.4 1.3 8.7 1.1.7-.1 1 .4 1 .5.2.5.4 1-3.9 4.1l3.8 4.8c.2.2.2.6.1.9-.2.3-.5.4-.8.3-.1 0-8.5-1.6-11.3-1.7-5.1-.3-8.4 1.2-9.9 2.1-.2.1-.3.1-.4.1z"/>
    <path d="M13.4 26.9c-.9 0-1.8 0-2.7-.1-2.7-.2-4.8-.6-6.5-.9-1.4-.2-2.4-.4-3-.4-.7.1-1-.4-1-.5-.2-.5-.4-1 3.9-4.1L.3 16.1c-.3-.3-.3-.6-.1-.9.2-.2.5-.4.8-.3.1 0 8.5 1.6 11.3 1.7 5.1.3 7.3-.5 8.8-1.5.4-.2.8-.1 1 .2.2.4.1.8-.2 1-1.7 1-4.2 2.1-9.7 1.7-2.1-.1-6.9-.9-9.6-1.4l3.1 3.9c.1.2.2.4.2.6 0 .2-.1.4-.3.5-1.1.8-2.4 1.7-3.2 2.4.6.1 1.3.2 2.1.3 1.7.3 3.8.7 6.4.9 7.8.5 12.8-1.4 12.8-1.4.4-.1.8 0 1 .4.2.4 0 .8-.4 1-.4.2-4.4 1.7-10.9 1.7z"/>
</symbol><symbol id="icon-hnext" viewBox="0 0 5 8.9">
    <path d="M.5 0c.1 0 .3 0 .4.1l4 4c.1.2.1.6 0 .8L1 8.8c-.2.2-.5.2-.7 0S0 8.2.2 8l3.5-3.5L.1.9C0 .7 0 .3.1.1.2 0 .4 0 .5 0z"/>
</symbol><symbol id="icon-hprev" viewBox="0 0 5 8.9">
    <path d="M4.5 8.9c-.1 0-.3 0-.4-.1l-4-4C0 4.6 0 4.2.1 4L4 .1c.2-.1.6-.1.8 0s.2.5 0 .7L1.2 4.4 4.9 8c.1.2.1.6 0 .8-.1.1-.3.1-.4.1z"/>
</symbol><symbol id="icon-inst" viewBox="0 0 258.8 258.8">
    <path d="M252 44.6c-3.3-8.5-7.7-15.7-14.9-22.9-7.2-7.2-14.4-11.6-22.9-14.9-8.2-3.2-17.7-5.4-31.4-6C169 .2 164.6 0 129.4 0S89.8.1 76 .8c-13.8.6-23.2 2.8-31.4 6-8.5 3.3-15.7 7.7-22.9 14.9S10.1 36.1 6.8 44.6C3.6 52.8 1.4 62.3.8 76 .2 89.8 0 94.2 0 129.4s.1 39.6.8 53.4c.6 13.8 2.8 23.2 6 31.4 3.3 8.5 7.7 15.7 14.9 22.9 7.2 7.2 14.4 11.6 22.9 14.9 8.2 3.2 17.7 5.4 31.4 6 13.8.6 18.2.8 53.4.8s39.6-.1 53.4-.8c13.8-.6 23.2-2.8 31.4-6 8.5-3.3 15.7-7.7 22.9-14.9 7.2-7.2 11.6-14.4 14.9-22.9 3.2-8.2 5.4-17.7 6-31.4.6-13.8.8-18.2.8-53.4s-.1-39.6-.8-53.4c-.6-13.8-2.8-23.2-6-31.4zm-17.3 137.1c-.6 12.6-2.7 19.5-4.5 24-2.3 6-5.2 10.4-9.7 14.9s-8.8 7.3-14.9 9.7c-4.6 1.8-11.4 3.9-24 4.5-13.7.6-17.7.8-52.3.8s-38.7-.1-52.3-.8c-12.6-.6-19.5-2.7-24-4.5-6-2.3-10.4-5.2-14.9-9.7s-7.3-8.8-9.7-14.9c-1.8-4.6-3.9-11.4-4.5-24-.6-13.7-.8-17.8-.8-52.3s.1-38.7.8-52.3c.6-12.6 2.7-19.5 4.5-24 2.3-6 5.2-10.4 9.7-14.9s8.8-7.3 14.9-9.7c4.6-1.8 11.4-3.9 24-4.5 13.7-.6 17.8-.8 52.3-.8s38.7.1 52.3.8c12.6.6 19.5 2.7 24 4.5 6 2.3 10.4 5.2 14.9 9.7s7.3 8.8 9.7 14.9c1.8 4.6 3.9 11.4 4.5 24 .6 13.7.8 17.8.8 52.3s-.2 38.7-.8 52.3z"/>
    <path d="M129.3 62.9c-36.7 0-66.5 29.8-66.5 66.5s29.8 66.5 66.5 66.5 66.5-29.8 66.5-66.5-29.8-66.5-66.5-66.5zm0 109.7c-23.8 0-43.2-19.3-43.2-43.2 0-23.8 19.3-43.2 43.2-43.2s43.2 19.3 43.2 43.2c0 23.8-19.4 43.2-43.2 43.2z"/>
    <circle cx="198.4" cy="60.3" r="15.5"/>
</symbol><symbol id="icon-mouse" viewBox="0 0 13 20.7">
    <path d="M7.9 20.7c-2.8 0-5.1-2.3-5.1-5.1V8.5c0-2.8 2.3-5.1 5.1-5.1S13 5.7 13 8.5v7.1c0 2.8-2.3 5.1-5.1 5.1zm0-16.3c-2.3 0-4.1 1.8-4.1 4.1v7.1c0 2.3 1.8 4.1 4.1 4.1s4.1-1.8 4.1-4.1V8.5c0-2.3-1.8-4.1-4.1-4.1z"/>
    <path d="M7.9 13.1c-.3 0-.5-.2-.5-.5V7.9c0-.3.2-.5.5-.5s.5.2.5.5v4.7c0 .3-.2.5-.5.5z"/>
    <path d="M1.6 6.8s-.1 0 0 0c-.4-.1-.5-.3-.5-.6 0-.1.7-3.6 4.8-4.7.3-.1.5.1.6.4.1.3-.1.5-.4.6-3.4.9-4 3.8-4 3.9-.1.2-.3.4-.5.4z"/>
    <path d="M.5 3.9c-.1 0-.2 0-.2-.1-.3-.1-.4-.4-.2-.6C.1 3.1 1.3.9 3.7.1c.3-.1.5 0 .6.3.1.2-.1.5-.3.6-2 .7-3 2.6-3 2.7-.1.1-.3.2-.5.2z"/>
</symbol><symbol id="icon-phone" viewBox="0 0 24 25">
    <path d="M19.1 24c-1 0-2.2-.3-3.5-.7-2.9-1.1-6-3.2-8.8-6-2.8-2.8-5-5.9-6-8.8-1-2.6-1-4.8 0-5.8.1-.2.2-.4.4-.5.9-.9 1.9-2 3.3-2C5.4.2 6.3.8 7.3 2c2.7 3.4 1.5 4.6.1 6l-.4.2c-.2.2-.7 1.3 3.4 5.4 1.3 1.3 2.5 2.3 3.4 2.9.6.4 1.6.9 2 .5l.3-.3c1.4-1.4 2.6-2.6 6 .1 1.1.9 1.7 1.8 1.8 2.7.1 1.3-1 2.4-2 3.3l-.4.4c-.6.6-1.4.8-2.4.8zM4.3 1c-1 0-1.8.9-2.6 1.7-.1.2-.3.3-.4.5-.7.7-.7 2.7.2 4.9 1 2.8 3.1 5.8 5.9 8.5 2.7 2.7 5.8 4.8 8.5 5.9 2.3.8 4.2.9 4.9.2.1-.1.3-.3.5-.4.8-.8 1.8-1.7 1.7-2.6 0-.7-.5-1.4-1.5-2.2-2.8-2.3-3.6-1.5-4.9-.1l-.3.3c-.6.6-1.6.5-3-.4-1-.6-2.1-1.6-3.5-3-3.4-3.4-4.5-5.5-3.4-6.5l.3-.3c1.3-1.4 2.1-2.2-.1-5C5.8 1.5 5.1 1 4.3 1c.1 0 .1 0 0 0zm0 0"/>
    <path d="M19.3 10h-.2c-.2-.1-.3-.3-.2-.5.5-1.3.2-2.7-.7-3.6-1-1-2.5-1.3-3.8-.7-.2.1-.4 0-.5-.2-.1-.2 0-.4.2-.5 1.6-.7 3.4-.4 4.7.9 1.2 1.2 1.5 3 .9 4.5-.1.1-.3.1-.4.1zm0 0"/>
    <path d="M22.8 11.5h-.2c-.2-.1-.3-.3-.2-.5 1.1-2.7.5-5.8-1.6-7.8-2.1-2.1-5.4-2.7-8.1-1.5-.2.1-.4 0-.5-.2-.1-.2 0-.4.2-.5 3-1.4 6.6-.7 9 1.6 2.3 2.3 3 5.7 1.8 8.7-.1.1-.2.2-.4.2zm0 0"/>
</symbol><symbol id="icon-tw" viewBox="0 0 32 32">
    <path d="M31.993 6.077a13.027 13.027 0 0 1-3.77 1.033 6.588 6.588 0 0 0 2.887-3.63 13.144 13.144 0 0 1-4.168 1.592A6.56 6.56 0 0 0 22.149 3a6.562 6.562 0 0 0-6.562 6.563c0 .514.057 1.016.169 1.496-5.455-.274-10.291-2.887-13.529-6.858a6.544 6.544 0 0 0-.888 3.3 6.564 6.564 0 0 0 2.919 5.464 6.544 6.544 0 0 1-2.972-.821l-.001.082a6.568 6.568 0 0 0 5.265 6.437 6.606 6.606 0 0 1-2.963.113 6.572 6.572 0 0 0 6.13 4.558 13.166 13.166 0 0 1-8.15 2.811c-.53 0-1.053-.031-1.566-.092A18.592 18.592 0 0 0 10.062 29c12.072 0 18.675-10.001 18.675-18.675 0-.284-.008-.568-.02-.85a13.315 13.315 0 0 0 3.276-3.398z"/>
</symbol><symbol id="icon-vk" viewBox="0 0 260.1 311.9">
    <path d="M238.2 277.9c14.6-18.2 22-38.9 22-62 0-38.7-29.6-65.7-71.1-75.5 17.9-4.7 31.3-9.9 40.3-22.5 9-12.6 13.5-26.6 13.5-42.2 0-21.3-7.8-34.2-23.3-50.8C204 8.3 179.4 0 145.5 0H0v311.9h152.7c47.9 0 70.8-15.7 85.5-34zM80.9 61.7h36.4c21.9 0 32.9 7.9 32.9 25.3 0 6.4-2.3 18.4-7 24.1-4.7 5.6-12.8 8.5-24.2 8.5H80.9V61.7zm-.4 180.8v-56.7h44.6c14.4 0 24.3 3 29.7 9 5.4 6 8.1 12.6 8.1 19.8 0 7.2-2.8 13.6-8.3 19.3-5.6 5.7-14.3 8.6-26.2 8.6H80.5z"/>
</symbol><symbol id="icon-why-we1" viewBox="0 0 64.6 58">
    <path d="M42.4 34.1c0 .8-.7 1.5-1.5 1.5h-7c-.8 0-1.5-.7-1.5-1.5s.7-1.5 1.5-1.5h7c.9 0 1.5.7 1.5 1.5zM37.5 6c.8 0 1.5-.7 1.5-1.5v-3c0-.8-.7-1.5-1.5-1.5-.9 0-1.5.7-1.5 1.5v3.1c0 .8.6 1.4 1.5 1.4zm-5 7.5c0 .8.7 1.5 1.5 1.5h7c.8 0 1.5-.7 1.5-1.5S41.8 12 41 12h-7c-.9 0-1.5.7-1.5 1.5zm8.5 8.8h-7c-.8 0-1.5.7-1.5 1.5s.7 1.5 1.5 1.5h7c.8 0 1.5-.7 1.5-1.5-.1-.8-.7-1.5-1.5-1.5zM49 6c.8 0 1.5-.7 1.5-1.5v-3C50.4.7 49.8 0 49 0s-1.5.7-1.5 1.5v3.1c0 .8.7 1.4 1.5 1.4zm-1.3 9h7c.8 0 1.5-.7 1.5-1.5s-.7-1.5-1.5-1.5h-7c-.8 0-1.5.7-1.5 1.5.1.8.7 1.5 1.5 1.5zm0 10.2h7c.8 0 1.5-.7 1.5-1.5s-.7-1.5-1.5-1.5h-7c-.8 0-1.5.7-1.5 1.5.1.9.7 1.5 1.5 1.5zM43.2 6c.8 0 1.5-.7 1.5-1.5v-3C44.7.7 44 0 43.2 0s-1.5.7-1.5 1.5v3.1c.1.8.7 1.4 1.5 1.4zm4.5 29.5h7c.8 0 1.5-.7 1.5-1.5s-.7-1.5-1.5-1.5h-7c-.8 0-1.5.7-1.5 1.5.1.9.7 1.5 1.5 1.5zM27.2 22.3h-7c-.8 0-1.5.7-1.5 1.5s.7 1.5 1.5 1.5h7c.8 0 1.5-.7 1.5-1.5-.1-.8-.7-1.5-1.5-1.5zm6-17.7V1.5c0-.8-.7-1.5-1.5-1.5s-1.5.7-1.5 1.5v3.1c0 .8.7 1.5 1.5 1.5.8-.1 1.5-.7 1.5-1.5zm-6 7.4h-7c-.8 0-1.5.7-1.5 1.5s.7 1.5 1.5 1.5h7c.8 0 1.5-.7 1.5-1.5-.1-.8-.7-1.5-1.5-1.5zm36-10.2h-7v-.3c0-.8-.7-1.5-1.5-1.5s-1.5.7-1.5 1.5v3.1c0 .8.7 1.5 1.5 1.5s1.4-.6 1.5-1.3h5.5V43H33.8c-.8 0-1.5.7-1.5 1.5S33 46 33.8 46h29.3c.8 0 1.5-.7 1.5-1.5V3.2c0-.8-.6-1.4-1.4-1.4zM26.8 32.9c.6.6.6 1.5 0 2.1-.6.6-1.5.6-2.1 0l-.1-.1-1 1.1c2 2.3 3.2 5.3 3.2 8.6 0 7.4-6 13.4-13.4 13.4S0 52 0 44.6c0-6.3 4.4-11.7 10.4-13v-.2c0-.8.7-1.5 1.5-1.5H15c.8 0 1.5.7 1.5 1.5v.2c1.9.4 3.6 1.3 5.1 2.4l1.2-1.2-.1-.1c-.6-.6-.6-1.5 0-2.1.6-.6 1.5-.6 2.1 0l1.1 1.1.9 1.2zm-13.4 1.3C7.6 34.2 3 38.9 3 44.6 3 50.4 7.7 55 13.4 55s10.4-4.7 10.4-10.4-4.7-10.4-10.4-10.4zm-1.7-9c.8 0 1.5-.7 1.5-1.5v-19h5.5c.1.7.7 1.3 1.5 1.3s1.5-.7 1.5-1.5v-3C21.6.7 21 0 20.2 0s-1.5.7-1.5 1.5v.3h-7c-.8 0-1.5.7-1.5 1.5v20.6c.1.7.7 1.3 1.5 1.3zm4.8 18h-1.6V39c0-.8-.7-1.5-1.5-1.5s-1.5.7-1.5 1.5v5.6c0 .8.7 1.5 1.5 1.5h3.1c.8 0 1.5-.7 1.5-1.5-.1-.8-.7-1.4-1.5-1.4zM25.9 6c.8 0 1.5-.7 1.5-1.5v-3c0-.8-.7-1.5-1.5-1.5s-1.5.7-1.5 1.5v3.1c.1.8.7 1.4 1.5 1.4zm0 0"/>
</symbol><symbol id="icon-why-we2" viewBox="0 0 56.4 57.3">
    <g>
        <path d="M15.4 9.6c.4 1.1 1.4 1.9 2.6 1.9h7.1c1.2 0 2.2-.8 2.6-1.9.4-1.1 1.5-3.5 2.4-4.2.8-.7 1.2-1.7 1-2.7-.2-1-.9-1.8-1.8-2.1-2.9-1-5.4-.6-7.4.9-.3.3-.8.3-1.2 0-1.9-1.6-4.5-1.9-7.4-.9-1 .3-1.7 1.1-1.8 2.1-.2 1 .2 2 1 2.7 1.1.8 2.6 3.4 2.9 4.2zm-2-6.6c0-.2.2-.5.6-.6.9-.3 1.7-.4 2.5-.4 1.2 0 2.2.4 3.1 1 1 .8 2.5.8 3.6 0 1.4-1.1 3.3-1.3 5.6-.6.4.1.5.5.6.6.1.3-.1.7-.3.9-1.5 1.2-2.8 4.4-3 5.1-.1.4-.4.6-.8.6H18c-.4 0-.7-.2-.8-.6-.4-1.2-2.2-4-3.4-5.1-.3-.3-.4-.6-.4-.9zm0 0"/>
        <path d="M29.7 13.4c0-.5-.4-1-1-1-.2 0-.3.1-.5.1-.1-.1-.3-.1-.5-.1H16.3c-.5 0-1 .4-1 1 0 .5.4 1 1 1h11.5v1H17.3c-.5 0-1 .4-1 1 0 .5.4 1 1 1h11.4c.9.7 1.9 1.1 3 1.1 1.3 0 2.5-.5 3.4-1.4.4-.4.4-1 0-1.3-.4-.4-1-.4-1.3 0-1.1 1.1-3 1.1-4 0v-2.4zm0 0"/>
        <path d="M20.1 24.8c-6.1 0-13.4 7.8-13.4 14.3 0 .5.4 1 1 1 .5 0 1-.4 1-1 0-5.5 6.4-12.4 11.5-12.4.5 0 1-.4 1-1-.1-.4-.5-.9-1.1-.9zm0 0"/>
        <path d="M46.9 30.6c-1 0-2.2.1-3.3.2-1.3-2.4-3-4.4-5.1-6l-6.9-4.7c-1.1-.9-2.9-1.9-5-1.9h-7.4c-1.8 0-3.6.6-5.1 1.7l-6.8 4.9C.2 30.4-2 40.1 2 47.9c1.4 2.9 3.9 6.3 7.2 6.5H28.6c1.4 1.7 3.5 2.9 6 2.9 2.8 0 5.2-1.5 6.5-3.7 1.7.5 3.8.8 5.9.8 4.6 0 9.6-1.5 9.6-3.8v-5.3h-.1c0-.2.1-.3.1-.5v-11c-.2-2.5-6.2-3.2-9.7-3.2zm7.6 3.3c-.1 0-.1.1 0 0l-.2.2c-.1 0-.1.1-.2.1s-.1.1-.2.1-.2.1-.3.1c-.1 0-.2.1-.3.1-.1 0-.3.1-.5.1-.1 0-.3.1-.4.1-.2 0-.4.1-.6.1-.2 0-.3.1-.5.1s-.5.1-.7.1c-.2 0-.3.1-.5.1-.3 0-.6.1-1 .1h-4.4c-.3 0-.7 0-1-.1-.2 0-.3-.1-.5-.1-.3 0-.5-.1-.7-.1-.2 0-.3-.1-.5-.1s-.4-.1-.6-.1c-.1 0-.3-.1-.4-.1-.2 0-.3-.1-.5-.1-.1 0-.2-.1-.3-.1-.1 0-.2-.1-.3-.1-.1 0-.2-.1-.2-.1-.1 0-.2-.1-.2-.1-.1 0-.1-.1-.1-.1l-.1-.1.1-.1c.1-.1.2-.1.3-.2.1 0 .1-.1.2-.1s.2-.1.3-.1c.1 0 .2-.1.3-.1.1 0 .2-.1.3-.1.2-.1.4-.1.7-.2.1 0 .3-.1.4-.1.2 0 .3-.1.5-.1s.4-.1.6-.1c1.1-.2 2.4-.3 3.9-.3 4.5.1 7 1 7.6 1.5zm-14.6 7.9c.1 0 .2.1.3.1.2.1.3.1.5.2.1 0 .2.1.3.1.2.1.4.1.6.2.1 0 .1 0 .2.1.3.1.6.1.9.2h.2c.2 0 .5.1.7.1h.3c.2 0 .4.1.6.1h4.7c.2 0 .4 0 .6-.1h.3c.2 0 .5-.1.7-.1h.2c.3-.1.6-.1.9-.2.1 0 .2 0 .2-.1.2-.1.4-.1.6-.2.1 0 .2-.1.3-.1.2-.1.3-.1.5-.2.1 0 .2-.1.3-.1.2-.1.3-.1.5-.2.1 0 .1 0 .2-.1v3.4c-.2.5-2.7 1.8-6.6 2h-1.1c-2.1 0-4.2-.3-5.8-.9-.1-.2-.2-.4-.4-.6 0 0 0-.1-.1-.1-.1-.2-.2-.3-.4-.5l-.1-.1c-.1-.1-.2-.3-.4-.4l-.2-.2-.3-.3v-2.2c.1 0 .1 0 .2.1.3-.1.4 0 .6.1zM27.3 52.6H9.2c-1.9-.1-3.9-2.1-5.6-5.5C0 40.1 2 31.4 8.4 26.4l6.8-4.9c1.1-.9 2.5-1.4 3.9-1.4h7.4c1.5 0 2.9.8 3.9 1.5l6.9 4.7c1.7 1.3 3.1 2.9 4.2 4.8-1.2.2-2.4.6-3.2 1.2h-.1l-.3.3-.1.1c-.1.1-.1.2-.2.3 0 .1-.1.1-.1.2s-.1.1-.1.2c-.1.2-.1.3-.1.5v8.7c-.3-.1-.7-.2-1-.3h-.1c-.3-.1-.7-.1-1-.2H34c-.3 0-.7.1-1 .1h-.1l-.9.3c-.1 0-.2.1-.3.1-.3.1-.6.2-.8.4-.1.1-.2.1-.3.2-.2.1-.4.2-.5.4-.1.1-.2.1-.3.2l-.6.6-.3.3c-.1.2-.3.3-.4.5-.1.1-.1.2-.2.3-.2.2-.3.5-.5.8-.1.1-.1.2-.1.3-.1.2-.2.5-.3.7 0 .1-.1.1-.1.2-.1.3-.2.6-.2 1V48.8c0 .2 0 .5-.1.7V50.2c-.1.8 0 1.6.3 2.4zm7.2 2.8c-3.1 0-5.7-2.5-5.7-5.7v-.2-.3-.3-.3c0-.2.1-.5.2-.7v-.1c.1-.2.2-.5.3-.7V47c.5-1 1.3-1.9 2.3-2.4.2-.1.5-.2.7-.3.1 0 .1 0 .2-.1.2-.1.4-.1.6-.2h.1c.3-.1.6-.1.8-.1h1c.3 0 .6.1.9.2l.9.3c.3.1.5.3.7.4l.1.1c.2.1.3.2.5.4l.1.1.4.4c.3.4.6.7.8 1.2.1.1.1.2.1.3.1.2.1.3.2.5s.1.3.1.5.1.4.1.5v1.3c0 .2 0 .3-.1.5v.1c0 .2-.1.4-.1.5-.1.2-.1.4-.2.6-.7 2.2-2.7 3.6-5 3.6zm12.4-2.8c-1.8 0-3.6-.2-5.1-.7.1-.3.2-.6.2-1v-.2c0-.3.1-.7.1-1V49v-.3c0-.1 0-.2-.1-.4 1.5.3 3.1.4 4.9.4 2.3 0 5.6-.3 7.6-1.2v3c-.2.7-3.1 2.1-7.6 2.1zm0-11.5c-4.5 0-7.4-1.4-7.6-1.9v-3.1h.1c.2.1.5.2.7.3.3.1.5.2.8.2.1 0 .2 0 .3.1.2 0 .4.1.6.1.1 0 .2 0 .3.1.2 0 .5.1.7.1h.2c.3 0 .6.1.9.1h.2c.2 0 .5 0 .7.1H48.8c.2 0 .5 0 .7-.1h.2c.3 0 .6-.1.9-.1h.2c.2 0 .5-.1.7-.1.1 0 .2 0 .3-.1.2 0 .4-.1.6-.1.1 0 .2 0 .3-.1.3-.1.6-.1.8-.2.2-.1.5-.2.7-.3h.1v3c0 .6-2.9 2-7.4 2zm0 0"/>
    </g>
</symbol><symbol id="icon-why-we3" viewBox="0 0 43.3 57.8">
    <path d="M33.1 50.7c-.4-.2-.8-.2-1.2.1L26 54.7l-3.8-11.4c1.2-.2 2.2-1 3-1.8.5-.5 1.1-1.1 1.5-1.2.5-.1 1.2.1 2 .2 1.2.3 2.6.6 3.8-.1.5-.3.9-.7 1.2-1.2l6.1 14.9-6.7-3.4zm-11.4-9.8c-.5 0-1.2-.7-1.8-1.2-.8-.7-1.6-1.5-2.6-1.7-.3-.1-.7-.1-1-.1-.7 0-1.5.2-2.2.3-.8.2-1.7.4-2.1.2-.4-.2-.7-1.1-.9-1.9-.3-1-.6-2.1-1.4-2.8-.7-.7-1.8-1.1-2.8-1.4-.8-.3-1.7-.6-1.9-1-.2-.4 0-1.3.2-2.1.2-1 .5-2.1.2-3.2-.3-1-1-1.8-1.7-2.6-.6-.6-1.2-1.3-1.2-1.8s.7-1.2 1.2-1.8c.7-.8 1.5-1.6 1.7-2.6.3-1 0-2.1-.2-3.2-.2-.6-.4-1.6-.2-2 .2-.4 1.1-.7 1.9-.9 1-.3 2.1-.6 2.8-1.4.8-.8 1.1-1.8 1.4-2.8.3-.8.5-1.7.9-1.9.4-.2 1.3 0 2.1.2 1 .2 2.1.5 3.2.2 1-.3 1.8-1 2.6-1.7.6-.6 1.3-1.2 1.8-1.2s1.2.7 1.8 1.2c.7.7 1.5 1.4 2.5 1.7 1 .3 2.1 0 3.2-.2.8-.2 1.7-.4 2.1-.2.4.2.7 1.1.9 1.9.3 1 .6 2.1 1.4 2.8.7.7 1.8 1.1 2.8 1.4.8.2 1.7.5 1.9.9.2.4 0 1.3-.2 2.1-.2 1-.5 2.1-.2 3.2.3 1 1 1.8 1.7 2.6.6.6 1.2 1.3 1.2 1.8s-.7 1.2-1.2 1.8c-.6.7-1.4 1.5-1.6 2.5-.3 1 0 2.1.2 3.2.2.8.4 1.7.2 2.1-.2.4-1.1.7-1.9.9-1 .3-2.1.6-2.8 1.4-.8.8-1.1 1.8-1.4 2.8-.2.8-.5 1.7-.9 1.9-.4.2-1.3 0-2.1-.2-1-.2-2.1-.5-3.2-.2-1 .3-1.8 1-2.6 1.7-.6.7-1.4 1.3-1.8 1.3zm-1.2 5.6l-3.1 8.2-6-4c-.4-.2-.8-.3-1.2-.1L3.4 54l6.1-14.9c.3.5.6.9 1.2 1.2 1.2.7 2.6.4 3.8.1.8-.2 1.6-.4 2-.2.4.1 1 .7 1.5 1.2.3.3.7.6 1.1.9v.1l1.3 3.9c.2.2.2.2.1.2zm14.4-10.6c.1-.3.2-.5.4-.6.3-.3 1.1-.6 1.8-.8 1.2-.4 2.6-.8 3.3-2 .7-1.2.4-2.6.1-3.8-.2-.8-.4-1.5-.2-2 .1-.4.7-1 1.2-1.5.9-.9 1.9-2 1.9-3.4s-1-2.5-1.9-3.4c-.5-.5-1.1-1.1-1.2-1.5-.1-.5.1-1.3.2-2 .3-1.2.6-2.6-.1-3.8-.7-1.2-2.1-1.6-3.3-2-.7-.2-1.5-.5-1.8-.8-.3-.6-.6-1.3-.8-2.1-.4-1.2-.8-2.6-2-3.3-1.2-.7-2.6-.4-3.8-.1-.8.2-1.6.4-2 .2-.4-.1-1-.7-1.5-1.2-1-.8-2.1-1.8-3.5-1.8s-2.5 1-3.4 1.9c-.5.5-1.1 1.1-1.5 1.2-.5.1-1.2-.1-2-.2-1.2-.3-2.6-.6-3.8.1-1.4.6-1.8 2-2.2 3.2-.2.8-.4 1.5-.7 1.8-.4.4-1.1.6-1.9.8-1.2.4-2.6.8-3.3 2-.7 1.2-.4 2.6-.1 3.8.2.8.4 1.5.2 2-.1.4-.7 1-1.2 1.5C1 19.2 0 20.2 0 21.7c0 1.4 1 2.5 1.9 3.4.5.5 1.1 1.1 1.2 1.5.1.5-.1 1.3-.2 2-.3 1.2-.6 2.6.1 3.8.7 1.2 2.1 1.6 3.3 2 .7.3 1.4.6 1.8.9.1.1.3.4.4.6L.1 56.1c-.2.5-.1 1 .3 1.3.2.2.5.3.8.3.2 0 .4 0 .5-.1l9-4.5 6.6 4.4c.3.2.7.3 1 .1.4-.1.6-.4.8-.7l2.6-7 2.3 7c.1.4.4.6.8.8.4.1.7.1 1.1-.1l6.6-4.4 9 4.5c.2.1.4.1.5.1.3 0 .6-.1.8-.3.4-.3.5-.9.3-1.3l-8.2-20.3z"/>
    <path d="M20 30.4c-.5 0-1-.3-1.3-.7L14 22.1c-.4-.7-.2-1.6.5-2.1.7-.4 1.6-.2 2.1.5l3.4 5.6 9.4-14.9c.4-.7 1.4-.9 2.1-.5.7.4.9 1.4.5 2.1l-10.7 17c-.3.3-.8.6-1.3.6z"/>
</symbol><symbol id="icon-why-we4" viewBox="0 0 52.3 53.8">
    <path d="M35.8 53.8c-1.1 0-2.4-.1-3.8-.2h-1.7c-7.1 0-13.5-.8-13.6-.8l-2.9-.3-.2.1c-.7.5-1.6.8-2.4.8h-7c-2.3 0-4.2-1.9-4.2-4.2V30.5c0-2.3 1.9-4.2 4.2-4.2h7c.7 0 1.4.2 2 .5l.5.3.3-.6c.6-1.2 1.3-2.3 2.1-3.2l.1-.1c4.5-3.4 9.4-16.5 9.6-17.1v-.2c-.1-.8-.4-3.7.8-5 .5-.6 1.2-.9 1.9-.9.8 0 3.6.2 5.4 2.6 1.7 2.3 1.8 5.9.2 10.6-1.3 4-1.5 5.9-1.5 6.9v.7l.6-.1c.6-.1 1.2-.3 1.7-.4h.1c.1 0 2.6-.6 5.6-.7h1.3c3.4 0 6 .7 7.5 2.1 2.6 2.3 1.8 5.3 1.3 6.4l-.1.3.2.3c.6.8 1.3 2 1.4 3.6.1 1.4-.4 2.9-1.5 4.2l-.2.3.1.3c.2.5.4 1.2.4 2.1.1 1.5-.3 3.6-2.4 5.5l-.2.2v.3c.1 1 .1 2.5-.7 4-1.1 2-3.4 3.4-6.8 4.2-1.3.2-3 .4-5.1.4zm-3.6-2.1c1.3.1 2.6.2 3.7.2 1.9 0 3.5-.1 4.8-.4 2.8-.6 4.6-1.7 5.5-3.2.8-1.4.5-2.8.4-3.3v-.1c-.1-.4 0-.9.3-1.1 1.7-1.3 2.5-2.8 2.4-4.5 0-.9-.3-1.6-.5-2l-.2-.3c-.2-.4-.2-.9.1-1.2 1.1-1.1 1.6-2.3 1.6-3.5-.1-1.7-1.3-2.9-1.4-3.1-.4-.3-.5-.9-.2-1.3.2-.3 1.7-2.9-.5-4.9-1.1-1-3.3-1.6-6.3-1.6-2 0-4.3.3-6.3.7h-.1c-.6.1-1.3.2-2 .4-.3.1-.5.1-.8.1-.3 0-.8-.1-1.2-.5-1.3-1.2-1.1-4.2.7-9.7 1.3-4 1.3-7.1.1-8.9-1.2-1.6-3.1-1.8-3.7-1.8h-.3l-.2.3c-.4.7-.4 2.6-.2 3.7v.5c-.3.8-5.3 14.5-10.3 18.4-1.5 1.6-2.1 3.3-2.3 4.2v.4c.1.4.2.8.2 1.3v18.7c0 .3 0 .6-.1.9l-.1.6 1.8.2c.1 0 6.4.8 13.3.8h1.8zm-28-23.5c-1.2 0-2.2 1-2.2 2.2v18.7c0 1.2 1 2.2 2.2 2.2h7c1.2 0 2.2-1 2.2-2.2V30.5c0-1.2-1-2.2-2.2-2.2h-7z"/>
</symbol><symbol id="icon-you" viewBox="0 0 333.3 400">
    <style>
        .st0{fill:#fff}
    </style>
    <path id="YouTube" class="st0" d="M282 292.6h-22l.1-12.8c0-5.7 4.7-10.3 10.3-10.3h1.4c5.7 0 10.4 4.6 10.4 10.3l-.2 12.8zm-82.4-27.3c-5.6 0-10.1 3.7-10.1 8.3v62c0 4.6 4.6 8.3 10.1 8.3 5.6 0 10.2-3.7 10.2-8.3v-62c0-4.6-4.6-8.3-10.2-8.3zm133.7-34.7v118c0 28.3-24.5 51.5-54.5 51.5H54.5C24.5 400 0 376.8 0 348.5v-118C0 202.2 24.5 179 54.5 179h224.3c30 .1 54.5 23.3 54.5 51.6zM69.5 361.4V237.1h27.8v-18.4l-74.1-.1v18.1l23.1.1v124.6h23.2zm83.3-105.8h-23.2V322c0 9.6.6 14.4 0 16.1-1.9 5.1-10.4 10.6-13.7.6-.6-1.8-.1-7.1-.1-16.2l-.1-66.8h-23l.1 65.8c0 10.1-.2 17.6.1 21 .6 6 .4 13.1 6 17.1 10.4 7.5 30.4-1.1 35.4-11.9v13.7h18.6l-.1-105.8zm74.2 76v-55.2c0-21-15.8-33.7-37.1-16.6l.1-41.1h-23.2l-.1 141.7 19-.3 1.7-8.8c24.3 22.4 39.6 7.1 39.6-19.7zm72.5-7.3l-17.4.1v12.1c0 5.2-4.3 9.4-9.5 9.4h-3.4c-5.2 0-9.5-4.2-9.5-9.4v-25.6h39.8v-15c0-10.9-.3-21.9-1.2-28.1-2.8-19.8-30.6-22.9-44.7-12.8-4.4 3.2-7.8 7.4-9.7 13.1-2 5.7-3 13.5-3 23.4v32.9c0 54.7 66.5 47 58.6-.1zm-89.1-178.8c1.2 2.9 3.1 5.3 5.6 7 2.5 1.8 5.7 2.6 9.5 2.6 3.3 0 6.3-.9 8.9-2.8 2.6-1.9 4.7-4.6 6.5-8.3l-.4 9.1h25.8V43.3H246v85.5c0 4.6-3.8 8.4-8.5 8.4-4.6 0-8.5-3.8-8.5-8.4V43.3h-21.2v74.1c0 9.4.2 15.7.4 18.9.2 3.2 1 6.2 2.2 9.2zm-78.3-62.1c0-10.5.9-18.8 2.6-24.7 1.8-5.9 4.9-10.7 9.5-14.3 4.6-3.6 10.4-5.4 17.5-5.4 6 0 11.1 1.2 15.4 3.5 4.3 2.3 7.6 5.3 9.9 9 2.3 3.7 3.9 7.5 4.8 11.4.9 4 1.3 9.9 1.3 18v27.8c0 10.2-.4 17.7-1.2 22.4-.8 4.8-2.5 9.2-5.1 13.4-2.6 4.1-5.9 7.2-9.9 9.1-4.1 2-8.7 2.9-14 2.9-5.9 0-10.8-.8-14.9-2.5s-7.3-4.2-9.5-7.6c-2.3-3.4-3.9-7.5-4.9-12.3-1-4.8-1.4-12-1.4-21.7l-.1-29zm20.2 43.7c0 6.2 4.6 11.3 10.3 11.3 5.6 0 10.3-5.1 10.3-11.3V68.6c0-6.2-4.6-11.3-10.3-11.3-5.6 0-10.3 5.1-10.3 11.3v58.5zm-71.5 29.5h24.4V72.3L134 .1h-26.7L92.1 53.8 76.5 0H50.1l30.6 72.4.1 84.2z"/>
</symbol></svg>