<?xml version="1.0" encoding="UTF-8"?><!DOCTYPE svg PUBLIC "-//W3C//DTD SVG 1.1//EN" "http://www.w3.org/Graphics/SVG/1.1/DTD/svg11.dtd"><svg xmlns="http://www.w3.org/2000/svg"><symbol id="icon-adv1" viewBox="0 0 101 90">
    <g>
        <path d="M71.1 80.4c-.9-.2-1.8.3-2 1.2L67.4 88c-.2.9.3 1.7 1.2 2h.4c.8 0 1.4-.5 1.6-1.2l1.7-6.4c.3-.9-.3-1.7-1.2-2zm0 0"/>
        <path d="M50.5 48.2c.2 0 .4 0 .6-.1l18.5-7.3c.9-.3 1.3-1.3.9-2.1s-1.3-1.2-2.2-.9l-17.9 7.1-47-18.6v-.5c0-.9-.8-1.6-1.7-1.6-.9 0-1.7.7-1.7 1.6v1.6c0 .7.4 1.2 1 1.5l48.8 19.3h.7zm0 0"/>
        <path d="M70.5 64.7c-.4-.8-1.4-1.1-2.3-.7-3.2 1.5-8.5 3.3-16.1 3.5V53.1c0-.9-.8-1.6-1.7-1.6-.9 0-1.7.7-1.7 1.6v14.4c-20.9-.6-27.6-12.7-28.6-14.7v-11c0-.9-.8-1.6-1.7-1.6-.9 0-1.7.7-1.7 1.6v11.3c0 .2 0 .4.1.6.3.7 7.5 17.1 33.5 17.1 9.1 0 15.5-2.1 19.3-3.9 1-.4 1.3-1.4.9-2.2zm0 0"/>
        <path d="M75.8 82c-.9 0-1.7.7-1.7 1.6v4.8c0 .9.8 1.6 1.7 1.6.9 0 1.7-.7 1.7-1.6v-4.8c-.1-.9-.8-1.6-1.7-1.6zm0 0"/>
        <path d="M99.3 24.1c-.9 0-1.7.7-1.7 1.6v.5l-20.2 7.9v-2.9l22.5-8.9c.6-.2 1-.8 1-1.5s-.4-1.2-1-1.5L51.1.1c-.4-.2-.9-.2-1.3 0L1 19.4c-.6.2-1 .8-1 1.5s.4 1.2 1 1.5l48.8 19.3c.2.1.4.1.6.1.2 0 .4 0 .6-.1l17.7-7c.9-.3 1.3-1.3.9-2.1s-1.3-1.2-2.2-.9l-17 6.7L6.1 20.9 50.5 3.3l44.4 17.6-19.3 7.6-18.5-6.6c.1-.3.2-.7.2-1 0-2.7-3-4.8-6.7-4.8-3.8 0-6.7 2.1-6.7 4.8 0 2.7 3 4.8 6.7 4.8 1.7 0 3.2-.4 4.4-1.1l19.2 6.9V71c-2 .7-3.4 2.4-3.4 4.5 0 2.7 2.3 4.8 5.1 4.8s5-2.2 5-4.8c0-2.1-1.4-3.9-3.4-4.5v-9.1c4.8-3.5 6.6-8.1 6.6-8.3.1-.2.1-.3.1-.5V41.8c0-.9-.8-1.6-1.7-1.6-.9 0-1.7.7-1.7 1.6v11c-.3.7-1.3 2.8-3.4 4.9v-20l22.5-8.9c.6-.2 1-.8 1-1.5v-1.6c.1-.9-.7-1.6-1.6-1.6zm-48.8-1.6c-2.1 0-3.4-1-3.4-1.6 0-.7 1.3-1.6 3.4-1.6 2.1 0 3.4 1 3.4 1.6 0 .7-1.3 1.6-3.4 1.6zm25.3 54.7c-.9 0-1.7-.7-1.7-1.6 0-.9.8-1.6 1.7-1.6.9 0 1.7.7 1.7 1.6-.1.9-.8 1.6-1.7 1.6zm0 0"/>
        <path d="M82.4 81.6c-.2-.9-1.1-1.4-2-1.2-.9.2-1.5 1.1-1.2 2l1.7 6.4c.2.7.9 1.2 1.6 1.2h.4c.9-.2 1.5-1.1 1.2-2l-1.7-6.4zm0 0"/>
    </g>
</symbol><symbol id="icon-adv2" viewBox="0 0 90 81.7">
    <path d="M86.1 39.3H6c-.4.4-.7.9-.7 1.5 0 1.1.9 2 2 2h75.6c-1 19.4-17.1 34.8-36.8 34.8-15.8 0-29.9-10.1-34.9-25.1-.3-1-1.5-1.6-2.5-1.2-1 .3-1.6 1.5-1.3 2.5C12.9 70.5 28.5 81.7 46 81.7c22.5 0 40.8-18.3 40.8-40.8 0-.7-.3-1.2-.7-1.6z"/>
    <path d="M45 32.7c3.9 0 7.2 2.9 7.9 6.6H37.1c.2-1.3.7-2.4 1.5-3.4 1.4-1.9 3.8-3.2 6.4-3.2zM1.4 42h87.2c.7 0 1.4-.6 1.4-1.4 0-.7-.6-1.4-1.4-1.4h-6.4L85 36c.2-.3.3-.7.3-1-.1-.4-.3-.7-.6-.9l-5.1-3.5L82 25c.1-.3.1-.7 0-1.1-.2-.3-.5-.6-.8-.7l-5.8-1.9.7-6.1c0-.4-.1-.8-.3-1-.2-.3-.6-.5-1-.5l-6.1-.2-1-6c-.2-.5-.4-.8-.7-1-.3-.2-.7-.3-1.1-.2L60 7.8l-2.7-5.5c-.2-.3-.5-.6-.8-.7-.4-.1-.8-.1-1.1.1L50.1 5 46 .4c-.3-.2-.6-.4-1-.4s-.7.2-1 .4L39.8 5l-5.2-3.2c-.6-.4-1.5-.2-1.9.5-.4.6-.2 1.5.5 1.9l6.2 3.7c.6.3 1.3.2 1.7-.2L45 3.3l3.9 4.2c.4.5 1.1.6 1.7.2l4.9-3L58 10c.3.6.9.9 1.6.7l5.6-1.5 1 5.7c.1.6.6 1.1 1.3 1.1l5.8.2-.8 5.8c-.1.6.3 1.2.9 1.4l5.5 1.8-2.2 5.3c-.3.6 0 1.3.5 1.6l4.8 3.3-3.3 4H55.6C54.9 34.1 50.4 30 45 30c-3.8 0-7.1 2-9 4.9-.8 1.3-1.4 2.8-1.6 4.4H11.3l-3.3-4 4.8-3.3c.5-.4.7-1.1.5-1.6L11 25.2l5.5-1.8c.6-.2 1-.8.9-1.4l-.7-5.7 5.8-.2c.6 0 1.2-.5 1.3-1.1l1-5.7 5.6 1.5c.6.2 1.3-.1 1.6-.7l1.3-2.6c.3-.7.1-1.5-.6-1.8-.7-.3-1.5-.1-1.8.6L30 7.8l-6-1.5c-.4-.1-.8 0-1.1.2-.3.2-.5.5-.6.9l-1 6-6.1.2c-.4 0-.7.2-1 .5-.2.3-.4.7-.3 1l.7 6.1-5.8 1.9c-.4.1-.7.4-.8.7-.2.3-.2.7 0 1.1l2.4 5.6L5.3 34c-.3.2-.5.5-.6.9-.1.4.1.8.3 1l2.8 3.4H1.4c-.7 0-1.4.6-1.4 1.4 0 .7.6 1.3 1.4 1.3z"/>
</symbol><symbol id="icon-adv3" viewBox="0 0 99.7 109.6">
    <path d="M80.6 61.1c.3-2.4 1.6-4.6 3.7-6 2-1.4 3.3-3.1 3.8-5.1.5-2 .1-4.2-1.1-6.3-1.2-2.1-1.4-4.7-.6-7 .8-2.3.8-4.4.1-6.3-.8-2-2.4-3.5-4.8-4.5-2.2-1-3.9-2.9-4.7-5.2-.7-2.1-1.9-3.7-3.5-4.7-1.7-1.1-3.8-1.4-6.1-.9-2.4.4-4.8-.1-6.7-1.6-1.9-1.5-4-2.2-6-2-2 .2-3.9 1.1-5.5 2.9-1.7 1.8-4 2.7-6.4 2.7-2.5-.1-4.5.6-6 1.9-1.8 1-2.8 2.9-3.1 5.3-.3 2.4-1.6 4.6-3.6 5.9-2 1.4-3.3 3.1-3.8 5.1-.5 2-.1 4 1 6.1 1.2 2.1 1.4 4.6.5 6.9-.8 2.3-.9 4.4-.1 6.3.4 1 1 1.9 1.8 2.6L13.6 83.6c-.4.6-.4 1.3 0 1.9.4.6 1.1.9 1.8.8L31.9 84l5.5 15.8c.1.4.4.7.8.9.2.1.5.2.7.3.7.1 1.4-.3 1.7-.9l15.9-26c1 .3 2 .4 3 .4 2.1-.2 4-1.2 5.7-3 1.7-1.8 4-2.8 6.5-2.7 2.4.1 4.5-.6 6-1.9 1.6-1.4 2.6-3.4 2.9-5.8zM39.6 95l-4.7-13.6c-.1-.4-.4-.7-.8-.9-.3-.2-.8-.3-1.2-.2l-14.2 2 14-23c1.9 1.2 3.3 3 3.8 5.2.7 2.6 1.9 4.4 3.8 5.5 1.8 1.1 3.9 1.4 6.4.9 2.3-.5 4.8.1 6.7 1.5L39.6 95zm35.8-30.9c-.8.7-2 1.1-3.6 1-3.5-.1-6.9 1.3-9.3 3.9-1.1 1.1-2.2 1.8-3.3 1.9-.8.1-1.7-.1-2.5-.6-.3-.2-.6-.4-1-.6-2.8-2.2-6.4-3-9.8-2.3-1.5.3-2.8.2-3.8-.4-1-.6-1.7-1.8-2.2-3.4-.8-3.1-2.8-5.7-5.5-7.4-.3-.2-.6-.3-.9-.5-.2-.1-.4-.2-.6-.4-.9-.6-1.5-1.3-1.8-2-.4-1-.4-2.3.1-3.7 1.2-3.2.9-6.8-.8-9.8-.7-1.3-.9-2.5-.7-3.6.3-1.1 1-2.1 2.3-2.9 2.8-1.9 4.7-5 5.2-8.4.2-1.5.7-2.6 1.6-3.3.9-.7 2.1-1.1 3.6-1 3.4.1 6.7-1.3 9.1-3.8 1-1.1 2.1-1.7 3.2-1.8 1.1-.1 2.3.3 3.5 1.3 2.7 2.1 6.2 2.9 9.6 2.3 1.5-.3 2.7-.1 3.6.5.9.5 1.5 1.5 2 2.7 1.1 3.3 3.6 6 6.7 7.4 1.5.7 2.5 1.5 2.9 2.6.4 1 .4 2.3-.1 3.7-1.2 3.3-.9 7 .8 10 .8 1.4 1 2.6.8 3.7-.3 1.1-1 2.1-2.3 2.9-2.9 2-4.8 5.1-5.2 8.6-.2 1.5-.7 2.7-1.6 3.4zm0 0"/>
    <path d="M.002 77.72L47.422.052l52.234 31.891-47.42 77.669z"/>
    <path d="M68.3 24.4c-10.2-6.3-23.7-3-29.9 7.2-6.3 10.2-3 23.7 7.2 29.9 10.2 6.3 23.7 3 29.9-7.2 6.3-10.2 3-23.6-7.2-29.9zM47.5 58.5c-8.5-5.2-11.3-16.4-6-25 5.2-8.5 16.4-11.3 25-6 8.5 5.2 11.3 16.4 6 25-5.3 8.5-16.5 11.2-25 6zm0 0"/>
    <path d="M58.2 27.9c-5.8-.5-11.2 2.3-14.2 7.2-.5.9-.3 2 .6 2.5.9.5 2 .3 2.5-.6 2.3-3.7 6.4-5.9 10.8-5.5 1 .1 1.9-.7 1.9-1.7.1-1-.6-1.9-1.6-1.9zm0 0"/>
    <path d="M68.3 32.9c-1-1.1-2.1-2.1-3.4-2.9-.9-.5-2-.3-2.5.6-.5.9-.3 2 .6 2.5 1 .6 1.9 1.3 2.6 2.2.1.1.3.3.4.3.7.4 1.5.3 2.1-.2.8-.6.8-1.8.2-2.5zm0 0"/>
    <path d="M79.2 59.7c-.3.3-.5.6-.8.9L92 81.9l-14.3-1.7c-.4-.1-.8.1-1.2.3-.3.2-.6.6-.7 1l-4.5 13.7L57.2 73c-1.3.3-2.3.8-3.4 1.4l16.5 25.9c.4.6 1.1.9 1.8.8.7-.1 1.3-.6 1.5-1.2L78.8 84l16.6 2c.4.1.8 0 1.2-.3.2-.1.4-.3.6-.6.4-.6.4-1.3 0-1.9l-16-24.9c-.8.4-1.5.8-2 1.4z"/>
</symbol><symbol id="icon-adv4" viewBox="0 0 94.6 89.3">
    <g>
        <path d="M7.4 89.3c-1.2 0-2.1-.9-2.1-2.1V54c0-1.2.9-2.1 2.1-2.1 1.2 0 2.1.9 2.1 2.1v31.2h11.8V50c0-1.2.9-2.1 2.1-2.1h21.3c1.2 0 2.1.9 2.1 2.1v35.1h38.4V54c0-1.2.9-2.1 2.1-2.1 1.2 0 2.1.9 2.1 2.1v33.3c0 1.2-.9 2.1-2.1 2.1H7.4zm18.1-4.2h17.1V70.7h-3.2c-1.2 0-2.1-.9-2.1-2.1 0-1.2.9-2.1 2.1-2.1h3.2V52.1H25.5v33z"/>
        <path d="M92.5 49.4c-.6 0-1.1-.2-1.5-.6L47.3 5 3.6 48.8c-.4.4-.9.6-1.5.6-.3 0-.5-.1-.8-.2-.8-.3-1.3-1-1.3-1.9V7.4c0-1.2.9-2.1 2.1-2.1H16V2.1c0-1.2.9-2.1 2.1-2.1h10.6c1.2 0 2.1.9 2.1 2.1v5.3c0 1.2-.9 2.1-2.1 2.1s-2.1-.9-2.1-2.1V4.2h-6.5v3.2c0 1.2-.9 2.1-2.1 2.1H4.2v32.8L45.8.6c.4-.4.9-.6 1.5-.6s1.1.2 1.5.6l41.6 41.6V9.5H65.9c-1.2 0-2.1-.9-2.1-2.1 0-1.2.9-2.1 2.1-2.1h26.6c1.2 0 2.1.9 2.1 2.1v39.9c0 .8-.5 1.6-1.3 1.9-.2.2-.5.2-.8.2z"/>
        <path d="M55.3 73.3c-1.2 0-2.1-.9-2.1-2.1V50c0-1.2.9-2.1 2.1-2.1h16c1.2 0 2.1.9 2.1 2.1v21.3c0 1.2-.9 2.1-2.1 2.1h-16zm2.1-4.1h11.8V52.1H57.4v17.1z"/>
    </g>
</symbol><symbol id="icon-aks-arrow" viewBox="0 0 16.9 31.4">
    <path stroke-linecap="round" stroke-miterlimit="10" d="M.5 30.9s20.1-3 13.1-26.6"/>
    <path stroke-linecap="round" stroke-linejoin="round" stroke-miterlimit="10" d="M11.1 6l1-5.5 4.3 3.8"/>
</symbol><symbol id="icon-droparrow" viewBox="0 0 18.9 9.9">
    <path d="M12.4 9.9c-.3 0-.6-.1-.8-.4-.3-.5-.2-1.1.2-1.4L16.2 5l-4.5-3.2c-.4-.3-.6-.9-.2-1.4.3-.4.9-.6 1.4-.2l5.6 4c.3.2.4.5.4.8 0 .3-.2.6-.4.8L13 9.7c-.2.1-.4.2-.6.2z"/>
    <path d="M17.2 5.9H1c-.6 0-1-.4-1-1s.4-1 1-1h16.2c.6 0 1 .4 1 1s-.4 1-1 1z"/>
</symbol><symbol id="icon-facebook" viewBox="0 0 10 19">
    <title>
        facebook
    </title>
    <path d="M9.766.157v2.946H8.014c-.64 0-1.071.134-1.295.402-.223.268-.335.67-.335 1.205v2.11h3.27l-.435 3.303H6.384v8.471H2.97v-8.47H.123V6.82H2.97V4.387c0-1.384.387-2.457 1.161-3.22C4.904.404 5.934.023 7.222.023c1.093 0 1.941.045 2.544.134z" fill-rule="evenodd"/>
</symbol><symbol id="icon-hnext" viewBox="0 0 5 8.9">
    <path d="M.5 0c.1 0 .3 0 .4.1l4 4c.1.2.1.6 0 .8L1 8.8c-.2.2-.5.2-.7 0S0 8.2.2 8l3.5-3.5L.1.9C0 .7 0 .3.1.1.2 0 .4 0 .5 0z"/>
</symbol><symbol id="icon-hprev" viewBox="0 0 5 8.9">
    <path d="M4.5 8.9c-.1 0-.3 0-.4-.1l-4-4C0 4.6 0 4.2.1 4L4 .1c.2-.1.6-.1.8 0s.2.5 0 .7L1.2 4.4 4.9 8c.1.2.1.6 0 .8-.1.1-.3.1-.4.1z"/>
</symbol><symbol id="icon-inst" viewBox="0 0 258.8 258.8">
    <path d="M252 44.6c-3.3-8.5-7.7-15.7-14.9-22.9-7.2-7.2-14.4-11.6-22.9-14.9-8.2-3.2-17.7-5.4-31.4-6C169 .2 164.6 0 129.4 0S89.8.1 76 .8c-13.8.6-23.2 2.8-31.4 6-8.5 3.3-15.7 7.7-22.9 14.9S10.1 36.1 6.8 44.6C3.6 52.8 1.4 62.3.8 76 .2 89.8 0 94.2 0 129.4s.1 39.6.8 53.4c.6 13.8 2.8 23.2 6 31.4 3.3 8.5 7.7 15.7 14.9 22.9 7.2 7.2 14.4 11.6 22.9 14.9 8.2 3.2 17.7 5.4 31.4 6 13.8.6 18.2.8 53.4.8s39.6-.1 53.4-.8c13.8-.6 23.2-2.8 31.4-6 8.5-3.3 15.7-7.7 22.9-14.9 7.2-7.2 11.6-14.4 14.9-22.9 3.2-8.2 5.4-17.7 6-31.4.6-13.8.8-18.2.8-53.4s-.1-39.6-.8-53.4c-.6-13.8-2.8-23.2-6-31.4zm-17.3 137.1c-.6 12.6-2.7 19.5-4.5 24-2.3 6-5.2 10.4-9.7 14.9s-8.8 7.3-14.9 9.7c-4.6 1.8-11.4 3.9-24 4.5-13.7.6-17.7.8-52.3.8s-38.7-.1-52.3-.8c-12.6-.6-19.5-2.7-24-4.5-6-2.3-10.4-5.2-14.9-9.7s-7.3-8.8-9.7-14.9c-1.8-4.6-3.9-11.4-4.5-24-.6-13.7-.8-17.8-.8-52.3s.1-38.7.8-52.3c.6-12.6 2.7-19.5 4.5-24 2.3-6 5.2-10.4 9.7-14.9s8.8-7.3 14.9-9.7c4.6-1.8 11.4-3.9 24-4.5 13.7-.6 17.8-.8 52.3-.8s38.7.1 52.3.8c12.6.6 19.5 2.7 24 4.5 6 2.3 10.4 5.2 14.9 9.7s7.3 8.8 9.7 14.9c1.8 4.6 3.9 11.4 4.5 24 .6 13.7.8 17.8.8 52.3s-.2 38.7-.8 52.3z"/>
    <path d="M129.3 62.9c-36.7 0-66.5 29.8-66.5 66.5s29.8 66.5 66.5 66.5 66.5-29.8 66.5-66.5-29.8-66.5-66.5-66.5zm0 109.7c-23.8 0-43.2-19.3-43.2-43.2 0-23.8 19.3-43.2 43.2-43.2s43.2 19.3 43.2 43.2c0 23.8-19.4 43.2-43.2 43.2z"/>
    <circle cx="198.4" cy="60.3" r="15.5"/>
</symbol><symbol id="icon-mouse" viewBox="0 0 13 20.7">
    <path d="M7.9 20.7c-2.8 0-5.1-2.3-5.1-5.1V8.5c0-2.8 2.3-5.1 5.1-5.1S13 5.7 13 8.5v7.1c0 2.8-2.3 5.1-5.1 5.1zm0-16.3c-2.3 0-4.1 1.8-4.1 4.1v7.1c0 2.3 1.8 4.1 4.1 4.1s4.1-1.8 4.1-4.1V8.5c0-2.3-1.8-4.1-4.1-4.1z"/>
    <path d="M7.9 13.1c-.3 0-.5-.2-.5-.5V7.9c0-.3.2-.5.5-.5s.5.2.5.5v4.7c0 .3-.2.5-.5.5z"/>
    <path d="M1.6 6.8s-.1 0 0 0c-.4-.1-.5-.3-.5-.6 0-.1.7-3.6 4.8-4.7.3-.1.5.1.6.4.1.3-.1.5-.4.6-3.4.9-4 3.8-4 3.9-.1.2-.3.4-.5.4z"/>
    <path d="M.5 3.9c-.1 0-.2 0-.2-.1-.3-.1-.4-.4-.2-.6C.1 3.1 1.3.9 3.7.1c.3-.1.5 0 .6.3.1.2-.1.5-.3.6-2 .7-3 2.6-3 2.7-.1.1-.3.2-.5.2z"/>
</symbol><symbol id="icon-phone" viewBox="0 0 24 25">
    <path d="M19.1 24c-1 0-2.2-.3-3.5-.7-2.9-1.1-6-3.2-8.8-6-2.8-2.8-5-5.9-6-8.8-1-2.6-1-4.8 0-5.8.1-.2.2-.4.4-.5.9-.9 1.9-2 3.3-2C5.4.2 6.3.8 7.3 2c2.7 3.4 1.5 4.6.1 6l-.4.2c-.2.2-.7 1.3 3.4 5.4 1.3 1.3 2.5 2.3 3.4 2.9.6.4 1.6.9 2 .5l.3-.3c1.4-1.4 2.6-2.6 6 .1 1.1.9 1.7 1.8 1.8 2.7.1 1.3-1 2.4-2 3.3l-.4.4c-.6.6-1.4.8-2.4.8zM4.3 1c-1 0-1.8.9-2.6 1.7-.1.2-.3.3-.4.5-.7.7-.7 2.7.2 4.9 1 2.8 3.1 5.8 5.9 8.5 2.7 2.7 5.8 4.8 8.5 5.9 2.3.8 4.2.9 4.9.2.1-.1.3-.3.5-.4.8-.8 1.8-1.7 1.7-2.6 0-.7-.5-1.4-1.5-2.2-2.8-2.3-3.6-1.5-4.9-.1l-.3.3c-.6.6-1.6.5-3-.4-1-.6-2.1-1.6-3.5-3-3.4-3.4-4.5-5.5-3.4-6.5l.3-.3c1.3-1.4 2.1-2.2-.1-5C5.8 1.5 5.1 1 4.3 1c.1 0 .1 0 0 0zm0 0"/>
    <path d="M19.3 10h-.2c-.2-.1-.3-.3-.2-.5.5-1.3.2-2.7-.7-3.6-1-1-2.5-1.3-3.8-.7-.2.1-.4 0-.5-.2-.1-.2 0-.4.2-.5 1.6-.7 3.4-.4 4.7.9 1.2 1.2 1.5 3 .9 4.5-.1.1-.3.1-.4.1zm0 0"/>
    <path d="M22.8 11.5h-.2c-.2-.1-.3-.3-.2-.5 1.1-2.7.5-5.8-1.6-7.8-2.1-2.1-5.4-2.7-8.1-1.5-.2.1-.4 0-.5-.2-.1-.2 0-.4.2-.5 3-1.4 6.6-.7 9 1.6 2.3 2.3 3 5.7 1.8 8.7-.1.1-.2.2-.4.2zm0 0"/>
</symbol><symbol id="icon-tw" viewBox="0 0 32 32">
    <path d="M31.993 6.077a13.027 13.027 0 0 1-3.77 1.033 6.588 6.588 0 0 0 2.887-3.63 13.144 13.144 0 0 1-4.168 1.592A6.56 6.56 0 0 0 22.149 3a6.562 6.562 0 0 0-6.562 6.563c0 .514.057 1.016.169 1.496-5.455-.274-10.291-2.887-13.529-6.858a6.544 6.544 0 0 0-.888 3.3 6.564 6.564 0 0 0 2.919 5.464 6.544 6.544 0 0 1-2.972-.821l-.001.082a6.568 6.568 0 0 0 5.265 6.437 6.606 6.606 0 0 1-2.963.113 6.572 6.572 0 0 0 6.13 4.558 13.166 13.166 0 0 1-8.15 2.811c-.53 0-1.053-.031-1.566-.092A18.592 18.592 0 0 0 10.062 29c12.072 0 18.675-10.001 18.675-18.675 0-.284-.008-.568-.02-.85a13.315 13.315 0 0 0 3.276-3.398z"/>
</symbol><symbol id="icon-vk" viewBox="0 0 260.1 311.9">
    <path d="M238.2 277.9c14.6-18.2 22-38.9 22-62 0-38.7-29.6-65.7-71.1-75.5 17.9-4.7 31.3-9.9 40.3-22.5 9-12.6 13.5-26.6 13.5-42.2 0-21.3-7.8-34.2-23.3-50.8C204 8.3 179.4 0 145.5 0H0v311.9h152.7c47.9 0 70.8-15.7 85.5-34zM80.9 61.7h36.4c21.9 0 32.9 7.9 32.9 25.3 0 6.4-2.3 18.4-7 24.1-4.7 5.6-12.8 8.5-24.2 8.5H80.9V61.7zm-.4 180.8v-56.7h44.6c14.4 0 24.3 3 29.7 9 5.4 6 8.1 12.6 8.1 19.8 0 7.2-2.8 13.6-8.3 19.3-5.6 5.7-14.3 8.6-26.2 8.6H80.5z"/>
</symbol><symbol id="icon-you" viewBox="0 0 333.3 400">
    <style>
        .st0{fill:#fff}
    </style>
    <path id="YouTube" class="st0" d="M282 292.6h-22l.1-12.8c0-5.7 4.7-10.3 10.3-10.3h1.4c5.7 0 10.4 4.6 10.4 10.3l-.2 12.8zm-82.4-27.3c-5.6 0-10.1 3.7-10.1 8.3v62c0 4.6 4.6 8.3 10.1 8.3 5.6 0 10.2-3.7 10.2-8.3v-62c0-4.6-4.6-8.3-10.2-8.3zm133.7-34.7v118c0 28.3-24.5 51.5-54.5 51.5H54.5C24.5 400 0 376.8 0 348.5v-118C0 202.2 24.5 179 54.5 179h224.3c30 .1 54.5 23.3 54.5 51.6zM69.5 361.4V237.1h27.8v-18.4l-74.1-.1v18.1l23.1.1v124.6h23.2zm83.3-105.8h-23.2V322c0 9.6.6 14.4 0 16.1-1.9 5.1-10.4 10.6-13.7.6-.6-1.8-.1-7.1-.1-16.2l-.1-66.8h-23l.1 65.8c0 10.1-.2 17.6.1 21 .6 6 .4 13.1 6 17.1 10.4 7.5 30.4-1.1 35.4-11.9v13.7h18.6l-.1-105.8zm74.2 76v-55.2c0-21-15.8-33.7-37.1-16.6l.1-41.1h-23.2l-.1 141.7 19-.3 1.7-8.8c24.3 22.4 39.6 7.1 39.6-19.7zm72.5-7.3l-17.4.1v12.1c0 5.2-4.3 9.4-9.5 9.4h-3.4c-5.2 0-9.5-4.2-9.5-9.4v-25.6h39.8v-15c0-10.9-.3-21.9-1.2-28.1-2.8-19.8-30.6-22.9-44.7-12.8-4.4 3.2-7.8 7.4-9.7 13.1-2 5.7-3 13.5-3 23.4v32.9c0 54.7 66.5 47 58.6-.1zm-89.1-178.8c1.2 2.9 3.1 5.3 5.6 7 2.5 1.8 5.7 2.6 9.5 2.6 3.3 0 6.3-.9 8.9-2.8 2.6-1.9 4.7-4.6 6.5-8.3l-.4 9.1h25.8V43.3H246v85.5c0 4.6-3.8 8.4-8.5 8.4-4.6 0-8.5-3.8-8.5-8.4V43.3h-21.2v74.1c0 9.4.2 15.7.4 18.9.2 3.2 1 6.2 2.2 9.2zm-78.3-62.1c0-10.5.9-18.8 2.6-24.7 1.8-5.9 4.9-10.7 9.5-14.3 4.6-3.6 10.4-5.4 17.5-5.4 6 0 11.1 1.2 15.4 3.5 4.3 2.3 7.6 5.3 9.9 9 2.3 3.7 3.9 7.5 4.8 11.4.9 4 1.3 9.9 1.3 18v27.8c0 10.2-.4 17.7-1.2 22.4-.8 4.8-2.5 9.2-5.1 13.4-2.6 4.1-5.9 7.2-9.9 9.1-4.1 2-8.7 2.9-14 2.9-5.9 0-10.8-.8-14.9-2.5s-7.3-4.2-9.5-7.6c-2.3-3.4-3.9-7.5-4.9-12.3-1-4.8-1.4-12-1.4-21.7l-.1-29zm20.2 43.7c0 6.2 4.6 11.3 10.3 11.3 5.6 0 10.3-5.1 10.3-11.3V68.6c0-6.2-4.6-11.3-10.3-11.3-5.6 0-10.3 5.1-10.3 11.3v58.5zm-71.5 29.5h24.4V72.3L134 .1h-26.7L92.1 53.8 76.5 0H50.1l30.6 72.4.1 84.2z"/>
</symbol></svg>