<?xml version="1.0" encoding="UTF-8"?><!DOCTYPE svg PUBLIC "-//W3C//DTD SVG 1.1//EN" "http://www.w3.org/Graphics/SVG/1.1/DTD/svg11.dtd"><svg xmlns="http://www.w3.org/2000/svg" xmlns:xlink="http://www.w3.org/1999/xlink"><defs>
        <path id="a" d="M0 0h24v25H0z"/>
    </defs><symbol id="icon-droparrow" viewBox="0 0 18.9 9.9">
    <path d="M12.4 9.9c-.3 0-.6-.1-.8-.4-.3-.5-.2-1.1.2-1.4L16.2 5l-4.5-3.2c-.4-.3-.6-.9-.2-1.4.3-.4.9-.6 1.4-.2l5.6 4c.3.2.4.5.4.8 0 .3-.2.6-.4.8L13 9.7c-.2.1-.4.2-.6.2z"/>
    <path d="M17.2 5.9H1c-.6 0-1-.4-1-1s.4-1 1-1h16.2c.6 0 1 .4 1 1s-.4 1-1 1z"/>
</symbol><symbol id="icon-facebook" viewBox="0 0 10 19">
    <title>
        facebook
    </title>
    <path d="M9.766.157v2.946H8.014c-.64 0-1.071.134-1.295.402-.223.268-.335.67-.335 1.205v2.11h3.27l-.435 3.303H6.384v8.471H2.97v-8.47H.123V6.82H2.97V4.387c0-1.384.387-2.457 1.161-3.22C4.904.404 5.934.023 7.222.023c1.093 0 1.941.045 2.544.134z" fill-rule="evenodd"/>
</symbol><symbol id="icon-phone" viewBox="0 0 24 25">
    
    <clipPath id="b">
        <use xlink:href="#a" overflow="visible"/>
    </clipPath>
    <path clip-path="url(#b)" d="M19.1 24c-1 0-2.2-.3-3.5-.7-2.9-1.1-6-3.2-8.8-6-2.8-2.8-5-5.9-6-8.8-1-2.6-1-4.8 0-5.8.1-.2.2-.4.4-.5.9-.9 1.9-2 3.3-2C5.4.2 6.3.8 7.3 2c2.7 3.4 1.5 4.6.1 6l-.4.2c-.2.2-.7 1.3 3.4 5.4 1.3 1.3 2.5 2.3 3.4 2.9.6.4 1.6.9 2 .5l.3-.3c1.4-1.4 2.6-2.6 6 .1 1.1.9 1.7 1.8 1.8 2.7.1 1.3-1 2.4-2 3.3l-.4.4c-.6.6-1.4.8-2.4.8zM4.3 1c-1 0-1.8.9-2.6 1.7-.1.2-.3.3-.4.5-.7.7-.7 2.7.2 4.9 1 2.8 3.1 5.8 5.9 8.5 2.7 2.7 5.8 4.8 8.5 5.9 2.3.8 4.2.9 4.9.2.1-.1.3-.3.5-.4.8-.8 1.8-1.7 1.7-2.6 0-.7-.5-1.4-1.5-2.2-2.8-2.3-3.6-1.5-4.9-.1l-.3.3c-.6.6-1.6.5-3-.4-1-.6-2.1-1.6-3.5-3-3.4-3.4-4.5-5.5-3.4-6.5l.3-.3c1.3-1.4 2.1-2.2-.1-5C5.8 1.5 5.1 1 4.3 1c.1 0 .1 0 0 0zm0 0"/>
    <path clip-path="url(#b)" d="M19.3 10h-.2c-.2-.1-.3-.3-.2-.5.5-1.3.2-2.7-.7-3.6-1-1-2.5-1.3-3.8-.7-.2.1-.4 0-.5-.2-.1-.2 0-.4.2-.5 1.6-.7 3.4-.4 4.7.9 1.2 1.2 1.5 3 .9 4.5-.1.1-.3.1-.4.1zm0 0"/>
    <path clip-path="url(#b)" d="M22.8 11.5h-.2c-.2-.1-.3-.3-.2-.5 1.1-2.7.5-5.8-1.6-7.8-2.1-2.1-5.4-2.7-8.1-1.5-.2.1-.4 0-.5-.2-.1-.2 0-.4.2-.5 3-1.4 6.6-.7 9 1.6 2.3 2.3 3 5.7 1.8 8.7-.1.1-.2.2-.4.2zm0 0"/>
</symbol></svg>